<?xml version="1.0" encoding="UTF-8"?>
<svg xmlns="http://www.w3.org/2000/svg" version="1.1" viewBox="0 0 1255.3 388">
  <defs>
    <style>
      .cls-1 {
        fill: #010101;
      }

      .cls-1, .cls-2, .cls-3, .cls-4, .cls-5 {
        stroke-width: 0px;
      }

      .cls-6 {
        fill: none;
        stroke: #086132;
        stroke-miterlimit: 2.6;
        stroke-width: .2px;
      }

      .cls-2 {
        fill: #000;
      }

      .cls-3 {
        fill: #ed2024;
      }

      .cls-4 {
        fill: #f4f3e9;
      }

      .cls-5 {
        fill: #fff;
      }

      .cls-7 {
        display: none;
      }
    </style>
  </defs>
  <g id="Background">
    <rect class="cls-5" width="1255.3" height="388"/>
  </g>
  <g id="Keys">
    <path class="cls-2" d="M94.8,176.9c0,2.7,1.9,4.9,4.3,4.9h25.8c2.4,0,4.3-2.2,4.3-4.9v-29.7c0-2.7-1.9-4.9-4.3-4.9h-25.8c-2.4,0-4.3,2.2-4.3,4.9v29.7Z"/>
    <path class="cls-2" d="M147,176.9c0,2.7,1.9,4.9,4.3,4.9h25.8c2.4,0,4.3-2.2,4.3-4.9v-29.7c0-2.7-1.9-4.9-4.3-4.9h-25.8c-2.4,0-4.3,2.2-4.3,4.9v29.7Z"/>
    <path class="cls-2" d="M199.5,176.6c0,2.7,1.9,4.9,4.3,4.9h25.8c2.4,0,4.3-2.2,4.3-4.9v-29.7c0-2.7-1.9-4.9-4.3-4.9h-25.8c-2.4,0-4.3,2.2-4.3,4.9v29.7Z"/>
    <path class="cls-2" d="M252,176.6c0,2.7,1.9,4.9,4.3,4.9h25.8c2.4,0,4.3-2.2,4.3-4.9v-29.7c0-2.7-1.9-4.9-4.3-4.9h-25.8c-2.4,0-4.3,2.2-4.3,4.9v29.7Z"/>
    <path class="cls-2" d="M304.1,176.6c0,2.7,1.9,4.9,4.3,4.9h25.8c2.4,0,4.3-2.2,4.3-4.9v-29.7c0-2.7-1.9-4.9-4.3-4.9h-25.8c-2.4,0-4.3,2.2-4.3,4.9v29.7Z"/>
    <path class="cls-2" d="M356.5,176.5c0,2.7,1.9,4.9,4.3,4.9h25.8c2.4,0,4.3-2.2,4.3-4.9v-29.7c0-2.7-1.9-4.9-4.3-4.9h-25.8c-2.4,0-4.3,2.2-4.3,4.9v29.7Z"/>
    <path class="cls-2" d="M409.1,176.5c0,2.7,1.9,4.9,4.3,4.9h25.8c2.4,0,4.3-2.2,4.3-4.9v-29.7c0-2.7-1.9-4.9-4.3-4.9h-25.8c-2.4,0-4.3,2.2-4.3,4.9v29.7Z"/>
    <path class="cls-2" d="M461.6,176.5c0,2.7,1.9,4.9,4.3,4.9h25.8c2.4,0,4.3-2.2,4.3-4.9v-29.7c0-2.7-1.9-4.9-4.3-4.9h-25.8c-2.4,0-4.3,2.2-4.3,4.9v29.7Z"/>
    <path class="cls-2" d="M514.1,176.4c0,2.7,1.9,4.9,4.3,4.9h25.8c2.4,0,4.3-2.2,4.3-4.9v-29.7c0-2.7-1.9-4.9-4.3-4.9h-25.8c-2.4,0-4.3,2.2-4.3,4.9v29.7Z"/>
    <path class="cls-2" d="M566.5,176.4c0,2.7,1.9,4.9,4.3,4.9h25.8c2.4,0,4.3-2.2,4.3-4.9v-29.7c0-2.7-1.9-4.9-4.3-4.9h-25.8c-2.4,0-4.3,2.2-4.3,4.9v29.7Z"/>
    <path class="cls-2" d="M618.7,176.4c0,2.7,1.9,4.9,4.3,4.9h25.8c2.4,0,4.3-2.2,4.3-4.9v-29.7c0-2.7-1.9-4.9-4.3-4.9h-25.8c-2.4,0-4.3,2.2-4.3,4.9v29.7Z"/>
    <path class="cls-2" d="M852.2,176.2c0,2.7,1.9,4.9,4.3,4.9h25.8c2.4,0,4.3-2.2,4.3-4.9v-29.7c0-2.7-1.9-4.9-4.3-4.9h-25.8c-2.4,0-4.3,2.2-4.3,4.9v29.7Z"/>
    <path class="cls-2" d="M905,176.2c0,2.7,1.9,4.9,4.3,4.9h25.8c2.4,0,4.3-2.2,4.3-4.9v-29.7c0-2.7-1.9-4.9-4.3-4.9h-25.8c-2.4,0-4.3,2.2-4.3,4.9v29.7Z"/>
    <path class="cls-4" d="M957.4,176.2c0,2.7,1.9,4.9,4.3,4.9h25.8c2.4,0,4.3-2.2,4.3-4.9v-29.7c0-2.7-1.9-4.9-4.3-4.9h-25.8c-2.4,0-4.3,2.2-4.3,4.9v29.7Z"/>
    <path class="cls-2" d="M1042.4,176.5c0,2.7,1.9,4.9,4.3,4.9h25.8c2.4,0,4.3-2.2,4.3-4.9v-29.7c0-2.7-1.9-4.9-4.3-4.9h-25.8c-2.4,0-4.3,2.2-4.3,4.9v29.7Z"/>
    <path class="cls-2" d="M1093.9,176.5c0,2.7,1.9,4.9,4.3,4.9h25.8c2.4,0,4.3-2.2,4.3-4.9v-29.7c0-2.7-1.9-4.9-4.3-4.9h-25.8c-2.4,0-4.3,2.2-4.3,4.9v29.7Z"/>
    <path class="cls-2" d="M1146.4,176.5c0,2.7,1.9,4.9,4.3,4.9h25.8c2.4,0,4.3-2.2,4.3-4.9v-29.7c0-2.7-1.9-4.9-4.3-4.9h-25.8c-2.4,0-4.3,2.2-4.3,4.9v29.7Z"/>
    <path class="cls-2" d="M108.5,239.2c0,2.7,1.9,4.9,4.3,4.9h25.8c2.4,0,4.3-2.2,4.3-4.9v-29.7c0-2.7-1.9-4.9-4.3-4.9h-25.8c-2.4,0-4.3,2.2-4.3,4.9v29.7Z"/>
    <path class="cls-2" d="M160.9,239.2c0,2.7,1.9,4.9,4.3,4.9h25.8c2.4,0,4.3-2.2,4.3-4.9v-29.7c0-2.7-1.9-4.9-4.3-4.9h-25.8c-2.4,0-4.3,2.2-4.3,4.9v29.7Z"/>
    <path class="cls-2" d="M213.3,239.2c0,2.7,1.9,4.9,4.3,4.9h25.8c2.4,0,4.3-2.2,4.3-4.9v-29.7c0-2.7-1.9-4.9-4.3-4.9h-25.8c-2.4,0-4.3,2.2-4.3,4.9v29.7Z"/>
    <path class="cls-2" d="M265.8,238.9c0,2.7,1.9,4.9,4.3,4.9h25.8c2.4,0,4.3-2.2,4.3-4.9v-29.7c0-2.7-1.9-4.9-4.3-4.9h-25.8c-2.4,0-4.3,2.2-4.3,4.9v29.7Z"/>
    <path class="cls-2" d="M317.7,238.9c0,2.7,1.9,4.9,4.3,4.9h25.8c2.4,0,4.3-2.2,4.3-4.9v-29.7c0-2.7-1.9-4.9-4.3-4.9h-25.8c-2.4,0-4.3,2.2-4.3,4.9v29.7Z"/>
    <path class="cls-2" d="M370.3,238.9c0,2.7,1.9,4.9,4.3,4.9h25.8c2.4,0,4.3-2.2,4.3-4.9v-29.7c0-2.7-1.9-4.9-4.3-4.9h-25.8c-2.4,0-4.3,2.2-4.3,4.9v29.7Z"/>
    <path class="cls-2" d="M423.3,238.9c0,2.7,1.9,4.9,4.3,4.9h25.8c2.4,0,4.3-2.2,4.3-4.9v-29.7c0-2.7-1.9-4.9-4.3-4.9h-25.8c-2.4,0-4.3,2.2-4.3,4.9v29.7Z"/>
    <path class="cls-2" d="M475.7,238.9c0,2.7,1.9,4.9,4.3,4.9h25.8c2.4,0,4.3-2.2,4.3-4.9v-29.7c0-2.7-1.9-4.9-4.3-4.9h-25.8c-2.4,0-4.3,2.2-4.3,4.9v29.7Z"/>
    <path class="cls-2" d="M528,238.6c0,2.7,1.9,4.9,4.3,4.9h25.8c2.4,0,4.3-2.2,4.3-4.9v-29.7c0-2.7-1.9-4.9-4.3-4.9h-25.8c-2.4,0-4.3,2.2-4.3,4.9v29.7Z"/>
    <path class="cls-2" d="M580.5,238.6c0,2.7,1.9,4.9,4.3,4.9h25.8c2.4,0,4.3-2.2,4.3-4.9v-29.7c0-2.7-1.9-4.9-4.3-4.9h-25.8c-2.4,0-4.3,2.2-4.3,4.9v29.7Z"/>
    <path class="cls-2" d="M632.5,238.6c0,2.7,1.9,4.9,4.3,4.9h25.8c2.4,0,4.3-2.2,4.3-4.9v-29.7c0-2.7-1.9-4.9-4.3-4.9h-25.8c-2.4,0-4.3,2.2-4.3,4.9v29.7Z"/>
    <path class="cls-4" d="M684.7,238.6c0,2.7,1.9,4.9,4.3,4.9h25.8c2.4,0,4.3-2.2,4.3-4.9v-29.7c0-2.7-1.9-4.9-4.3-4.9h-25.8c-2.4,0-4.3,2.2-4.3,4.9v29.7Z"/>
    <path class="cls-2" d="M1042.5,238.8c0,2.7,1.9,4.9,4.3,4.9h25.8c2.4,0,4.3-2.2,4.3-4.9v-29.7c0-2.7-1.9-4.9-4.3-4.9h-25.8c-2.4,0-4.3,2.2-4.3,4.9v29.7Z"/>
    <path class="cls-2" d="M1094.6,238.8c0,2.7,1.9,4.9,4.3,4.9h25.8c2.4,0,4.3-2.2,4.3-4.9v-29.7c0-2.7-1.9-4.9-4.3-4.9h-25.8c-2.4,0-4.3,2.2-4.3,4.9v29.7Z"/>
    <path class="cls-2" d="M1146.7,238.8c0,2.7,1.9,4.9,4.3,4.9h25.8c2.4,0,4.3-2.2,4.3-4.9v-29.7c0-2.7-1.9-4.9-4.3-4.9h-25.8c-2.4,0-4.3,2.2-4.3,4.9v29.7Z"/>
    <path class="cls-2" d="M133.6,301.2c0,2.7,1.9,4.9,4.3,4.9h25.8c2.4,0,4.3-2.2,4.3-4.9v-29.7c0-2.7-1.9-4.9-4.3-4.9h-25.8c-2.4,0-4.3,2.2-4.3,4.9v29.7Z"/>
    <path class="cls-2" d="M81.4,301.3c0,2.7,1.9,4.9,4.3,4.9h25.8c2.4,0,4.3-2.2,4.3-4.9v-29.7c0-2.7-1.9-4.9-4.3-4.9h-25.8c-2.4,0-4.3,2.2-4.3,4.9v29.7Z"/>
    <path class="cls-2" d="M186.5,300.8c0,2.7,1.9,4.9,4.3,4.9h25.8c2.4,0,4.3-2.2,4.3-4.9v-29.7c0-2.7-1.9-4.9-4.3-4.9h-25.8c-2.4,0-4.3,2.2-4.3,4.9v29.7Z"/>
    <path class="cls-2" d="M238.3,300.8c0,2.7,1.9,4.9,4.3,4.9h25.8c2.4,0,4.3-2.2,4.3-4.9v-29.7c0-2.7-1.9-4.9-4.3-4.9h-25.8c-2.4,0-4.3,2.2-4.3,4.9v29.7Z"/>
    <path class="cls-2" d="M290.8,300.8c0,2.7,1.9,4.9,4.3,4.9h25.8c2.4,0,4.3-2.2,4.3-4.9v-29.7c0-2.7-1.9-4.9-4.3-4.9h-25.8c-2.4,0-4.3,2.2-4.3,4.9v29.7Z"/>
    <path class="cls-2" d="M343.2,300.6c0,2.7,1.9,4.9,4.3,4.9h25.8c2.4,0,4.3-2.2,4.3-4.9v-29.7c0-2.7-1.9-4.9-4.3-4.9h-25.8c-2.4,0-4.3,2.2-4.3,4.9v29.7Z"/>
    <path class="cls-2" d="M395.6,300.6c0,2.7,1.9,4.9,4.3,4.9h25.8c2.4,0,4.3-2.2,4.3-4.9v-29.7c0-2.7-1.9-4.9-4.3-4.9h-25.8c-2.4,0-4.3,2.2-4.3,4.9v29.7Z"/>
    <path class="cls-2" d="M448.4,300.4c0,2.7,1.9,4.9,4.3,4.9h25.8c2.4,0,4.3-2.2,4.3-4.9v-29.7c0-2.7-1.9-4.9-4.3-4.9h-25.8c-2.4,0-4.3,2.2-4.3,4.9v29.7Z"/>
    <path class="cls-2" d="M501,300.4c0,2.7,1.9,4.9,4.3,4.9h25.8c2.4,0,4.3-2.2,4.3-4.9v-29.7c0-2.7-1.9-4.9-4.3-4.9h-25.8c-2.4,0-4.3,2.2-4.3,4.9v29.7Z"/>
    <path class="cls-2" d="M553.5,300.4c0,2.7,1.9,4.9,4.3,4.9h25.8c2.4,0,4.3-2.2,4.3-4.9v-29.7c0-2.7-1.9-4.9-4.3-4.9h-25.8c-2.4,0-4.3,2.2-4.3,4.9v29.7Z"/>
    <path class="cls-2" d="M605.6,300.4c0,2.7,1.9,4.9,4.3,4.9h25.8c2.4,0,4.3-2.2,4.3-4.9v-29.7c0-2.7-1.9-4.9-4.3-4.9h-25.8c-2.4,0-4.3,2.2-4.3,4.9v29.7Z"/>
    <path class="cls-2" d="M906,301c0,2.7,1.9,4.9,4.3,4.9h25.8c2.4,0,4.3-2.2,4.3-4.9v-29.7c0-2.7-1.9-4.9-4.3-4.9h-25.8c-2.4,0-4.3,2.2-4.3,4.9v29.7Z"/>
    <path class="cls-2" d="M1042.5,301.2c0,2.7,1.9,4.9,4.3,4.9h25.8c2.4,0,4.3-2.2,4.3-4.9v-29.7c0-2.7-1.9-4.9-4.3-4.9h-25.8c-2.4,0-4.3,2.2-4.3,4.9v29.7Z"/>
    <path class="cls-2" d="M1094.9,301.2c0,2.7,1.9,4.9,4.3,4.9h25.8c2.4,0,4.3-2.2,4.3-4.9v-29.7c0-2.7-1.9-4.9-4.3-4.9h-25.8c-2.4,0-4.3,2.2-4.3,4.9v29.7Z"/>
    <path class="cls-3" d="M1146.8,301.2c0,2.7,1.9,4.9,4.3,4.9h25.8c2.4,0,4.3-2.2,4.3-4.9v-29.7c0-2.7-1.9-4.9-4.3-4.9h-25.8c-2.4,0-4.3,2.2-4.3,4.9v29.7Z"/>
    <path class="cls-2" d="M853.5,362.9c0,2.7,1.9,4.9,4.3,4.9h25.8c2.4,0,4.3-2.2,4.3-4.9v-29.7c0-2.7-1.9-4.9-4.3-4.9h-25.8c-2.4,0-4.3,2.2-4.3,4.9v29.7Z"/>
    <path class="cls-2" d="M906,362.9c0,2.7,1.9,4.9,4.3,4.9h25.8c2.4,0,4.3-2.2,4.3-4.9v-29.7c0-2.7-1.9-4.9-4.3-4.9h-25.8c-2.4,0-4.3,2.2-4.3,4.9v29.7Z"/>
    <path class="cls-2" d="M958.4,362.9c0,2.7,1.9,4.9,4.3,4.9h25.8c2.4,0,4.3-2.2,4.3-4.9v-29.7c0-2.7-1.9-4.9-4.3-4.9h-25.8c-2.4,0-4.3,2.2-4.3,4.9v29.7Z"/>
    <path class="cls-4" d="M1148.4,363.5c0,2.7,1.9,4.9,4.3,4.9h25.8c2.4,0,4.3-2.2,4.3-4.9v-29.7c0-2.7-1.9-4.9-4.3-4.9h-25.8c-2.4,0-4.3,2.2-4.3,4.9v29.7Z"/>
    <path class="cls-2" d="M487.7,113.8c0,2.7,1.9,4.9,4.3,4.9h25.8c2.4,0,4.3-2.2,4.3-4.9v-29.7c0-2.7-1.9-4.9-4.3-4.9h-25.8c-2.4,0-4.3,2.2-4.3,4.9v29.7Z"/>
    <path class="cls-2" d="M540.2,113.8c0,2.7,1.9,4.9,4.3,4.9h25.8c2.4,0,4.3-2.2,4.3-4.9v-29.7c0-2.7-1.9-4.9-4.3-4.9h-25.8c-2.4,0-4.3,2.2-4.3,4.9v29.7Z"/>
    <path class="cls-2" d="M592.6,113.7c0,2.7,1.9,4.9,4.3,4.9h25.8c2.4,0,4.3-2.2,4.3-4.9v-29.7c0-2.7-1.9-4.9-4.3-4.9h-25.8c-2.4,0-4.3,2.2-4.3,4.9v29.7Z"/>
    <path class="cls-2" d="M644.6,113.7c0,2.7,1.9,4.9,4.3,4.9h25.8c2.4,0,4.3-2.2,4.3-4.9v-29.7c0-2.7-1.9-4.9-4.3-4.9h-25.8c-2.4,0-4.3,2.2-4.3,4.9v29.7Z"/>
    <path class="cls-4" d="M852.6,113.9c0,2.7,1.9,4.9,4.3,4.9h25.8c2.4,0,4.3-2.2,4.3-4.9v-29.7c0-2.7-1.9-4.9-4.3-4.9h-25.8c-2.4,0-4.3,2.2-4.3,4.9v29.7Z"/>
    <path class="cls-4" d="M905.1,113.9c0,2.7,1.9,4.9,4.3,4.9h25.8c2.4,0,4.3-2.2,4.3-4.9v-29.7c0-2.7-1.9-4.9-4.3-4.9h-25.8c-2.4,0-4.3,2.2-4.3,4.9v29.7Z"/>
    <path class="cls-4" d="M957.5,113.9c0,2.7,1.9,4.9,4.3,4.9h25.8c2.4,0,4.3-2.2,4.3-4.9v-29.7c0-2.7-1.9-4.9-4.3-4.9h-25.8c-2.4,0-4.3,2.2-4.3,4.9v29.7Z"/>
    <path class="cls-2" d="M1042.2,114.1c0,2.7,1.9,4.9,4.3,4.9h25.8c2.4,0,4.3-2.2,4.3-4.9v-29.7c0-2.7-1.9-4.9-4.3-4.9h-25.8c-2.4,0-4.3,2.2-4.3,4.9v29.7Z"/>
    <path class="cls-2" d="M1094.6,114.1c0,2.7,1.9,4.9,4.3,4.9h25.8c2.4,0,4.3-2.2,4.3-4.9v-29.7c0-2.7-1.9-4.9-4.3-4.9h-25.8c-2.4,0-4.3,2.2-4.3,4.9v29.7Z"/>
    <path class="cls-2" d="M1147.1,114.1c0,2.7,1.9,4.9,4.3,4.9h25.8c2.4,0,4.3-2.2,4.3-4.9v-29.7c0-2.7-1.9-4.9-4.3-4.9h-25.8c-2.4,0-4.3,2.2-4.3,4.9v29.7Z"/>
    <path class="cls-2" d="M1199.5,114.1c0,2.7,1.9,4.9,4.3,4.9h25.8c2.4,0,4.3-2.2,4.3-4.9v-29.7c0-2.7-1.9-4.9-4.3-4.9h-25.8c-2.4,0-4.3,2.2-4.3,4.9v29.7Z"/>
    <path class="cls-4" d="M852.6,51.5c0,2.7,1.9,4.9,4.3,4.9h25.8c2.4,0,4.3-2.2,4.3-4.9v-29.7c0-2.7-1.9-4.9-4.3-4.9h-25.8c-2.4,0-4.3,2.2-4.3,4.9v29.7Z"/>
    <path class="cls-4" d="M905.1,51.5c0,2.7,1.9,4.9,4.3,4.9h25.8c2.4,0,4.3-2.2,4.3-4.9v-29.7c0-2.7-1.9-4.9-4.3-4.9h-25.8c-2.4,0-4.3,2.2-4.3,4.9v29.7Z"/>
    <path class="cls-4" d="M957.5,51.5c0,2.7,1.9,4.9,4.3,4.9h25.8c2.4,0,4.3-2.2,4.3-4.9v-29.7c0-2.7-1.9-4.9-4.3-4.9h-25.8c-2.4,0-4.3,2.2-4.3,4.9v29.7Z"/>
    <path class="cls-2" d="M16.3,239.4c0,2.7,1.9,4.9,4.4,4.9h66.9c2.4,0,4.4-2.2,4.4-4.9v-29.7c0-2.7-2-4.9-4.4-4.9H20.7c-2.4,0-4.4,2.2-4.4,4.9v29.7Z"/>
    <path class="cls-2" d="M16.2,177.1c0,2.7,2,4.9,4.5,4.9h52.6c2.5,0,4.5-2.2,4.5-4.9v-29.7c0-2.7-2-4.9-4.5-4.9H20.7c-2.5,0-4.5,2.2-4.5,4.9v29.7Z"/>
    <path class="cls-2" d="M783.3,265.8h-121.1c-2.5,0-4.5,2.2-4.5,4.9v29.7c0,2.7,2,4.9,4.5,4.9h121.1c2.5,0,4.5-2.2,4.5-4.9v-29.7c0-2.7-2-4.9-4.5-4.9Z"/>
    <path class="cls-2" d="M1230,141.3h-26.6c-2.4,0-4.4,2.2-4.4,4.9v83.7c0,2.7,2,4.9,4.4,4.9h26.6c2.4,0,4.4-2.2,4.4-4.9v-83.7c0-2.7-2-4.9-4.4-4.9Z"/>
    <path class="cls-2" d="M1230,266h-26.6c-2.4,0-4.4,2.2-4.4,4.9v83.7c0,2.7,2,4.9,4.4,4.9h26.6c2.4,0,4.4-2.2,4.4-4.9v-83.7c0-2.7-2-4.9-4.4-4.9Z"/>
    <path class="cls-4" d="M1126.8,329h-80.3c-2.4,0-4.4,2.2-4.4,4.9v29.7c0,2.7,2,4.9,4.4,4.9h80.3c2.4,0,4.4-2.2,4.4-4.9v-29.7c0-2.7-2-4.9-4.4-4.9Z"/>
    <path class="cls-2" d="M670.8,176.4c0,2.7,1.9,4.9,4.3,4.9h25.8c2.4,0,4.3-2.2,4.3-4.9v-29.7c0-2.7-1.9-4.9-4.3-4.9h-25.8c-2.4,0-4.3,2.2-4.3,4.9v29.7Z"/>
    <path class="cls-2" d="M781.4,79h-80c-2.4,0-4.4,2.2-4.4,4.9v29.7c0,2.7,2,4.9,4.4,4.9h80c2.4,0,4.4-2.2,4.4-4.9v-29.7c0-2.7-2-4.9-4.4-4.9Z"/>
    <path class="cls-2" d="M61,267.4H20.8c-2.3,0-4.2,2.2-4.2,4.9v29.7c0,2.7,1.9,4.9,4.2,4.9h40.2c2.3,0,4.2-2.2,4.2-4.9v-29.7c0-2.7-1.9-4.9-4.2-4.9Z"/>
    <path class="cls-2" d="M736.9,181.5v49.2c0,2.7,1.9,4.9,4.3,4.9h40.7c2.4,0,4.3-2.2,4.3-4.9v-71.5h0v-12.8c0-2.5-2.1-4.5-4.6-4.5l-52.9.2c-2.5,0-4.6,2-4.6,4.5v30.5c0,2.5,2.1,4.5,4.6,4.5h8.2Z"/>
    <path class="cls-4" d="M15.9,52.6c0,2.7,1.9,4.9,4.3,4.9h25.8c2.4,0,4.3-2.2,4.3-4.9v-29.7c0-2.7-1.9-4.9-4.3-4.9h-25.8c-2.4,0-4.3,2.2-4.3,4.9v29.7Z"/>
    <path class="cls-4" d="M120.7,53.6c0,2.7,1.9,4.9,4.3,4.9h25.8c2.4,0,4.3-2.2,4.3-4.9v-29.7c0-2.7-1.9-4.9-4.3-4.9h-25.8c-2.4,0-4.3,2.2-4.3,4.9v29.7Z"/>
    <path class="cls-4" d="M173.2,53.6c0,2.7,1.9,4.9,4.3,4.9h25.8c2.4,0,4.3-2.2,4.3-4.9v-29.7c0-2.7-1.9-4.9-4.3-4.9h-25.8c-2.4,0-4.3,2.2-4.3,4.9v29.7Z"/>
    <path class="cls-4" d="M225.6,53.5c0,2.7,1.9,4.9,4.3,4.9h25.8c2.4,0,4.3-2.2,4.3-4.9v-29.7c0-2.7-1.9-4.9-4.3-4.9h-25.8c-2.4,0-4.3,2.2-4.3,4.9v29.7Z"/>
    <path class="cls-4" d="M277.8,53.2c0,2.7,1.9,4.9,4.3,4.9h25.8c2.4,0,4.3-2.2,4.3-4.9v-29.7c0-2.7-1.9-4.9-4.3-4.9h-25.8c-2.4,0-4.3,2.2-4.3,4.9v29.7Z"/>
    <path class="cls-4" d="M357.1,53.3c0,2.7,1.9,4.9,4.3,4.9h25.8c2.4,0,4.3-2.2,4.3-4.9v-29.7c0-2.7-1.9-4.9-4.3-4.9h-25.8c-2.4,0-4.3,2.2-4.3,4.9v29.7Z"/>
    <path class="cls-4" d="M409.5,53.3c0,2.7,1.9,4.9,4.3,4.9h25.8c2.4,0,4.3-2.2,4.3-4.9v-29.7c0-2.7-1.9-4.9-4.3-4.9h-25.8c-2.4,0-4.3,2.2-4.3,4.9v29.7Z"/>
    <path class="cls-4" d="M462.1,53.3c0,2.7,1.9,4.9,4.3,4.9h25.8c2.4,0,4.3-2.2,4.3-4.9v-29.7c0-2.7-1.9-4.9-4.3-4.9h-25.8c-2.4,0-4.3,2.2-4.3,4.9v29.7Z"/>
    <path class="cls-4" d="M514.7,53c0,2.7,1.9,4.9,4.3,4.9h25.8c2.4,0,4.3-2.2,4.3-4.9v-29.7c0-2.7-1.9-4.9-4.3-4.9h-25.8c-2.4,0-4.3,2.2-4.3,4.9v29.7Z"/>
    <path class="cls-4" d="M594.6,52.9c0,2.7,1.9,4.9,4.3,4.9h25.8c2.4,0,4.3-2.2,4.3-4.9v-29.7c0-2.7-1.9-4.9-4.3-4.9h-25.8c-2.4,0-4.3,2.2-4.3,4.9v29.7Z"/>
    <path class="cls-4" d="M647.2,52.8c0,2.7,1.9,4.9,4.3,4.9h25.8c2.4,0,4.3-2.2,4.3-4.9v-29.7c0-2.7-1.9-4.9-4.3-4.9h-25.8c-2.4,0-4.3,2.2-4.3,4.9v29.7Z"/>
    <path class="cls-4" d="M699.6,52.8c0,2.7,1.9,4.9,4.3,4.9h25.8c2.4,0,4.3-2.2,4.3-4.9v-29.7c0-2.7-1.9-4.9-4.3-4.9h-25.8c-2.4,0-4.3,2.2-4.3,4.9v29.7Z"/>
    <path class="cls-4" d="M752,52.6c0,2.7,1.9,4.9,4.3,4.9h25.8c2.4,0,4.3-2.2,4.3-4.9v-29.7c0-2.7-1.9-4.9-4.3-4.9h-25.8c-2.4,0-4.3,2.2-4.3,4.9v29.7Z"/>
    <path class="cls-2" d="M16.5,114.9c0,2.7,1.9,4.9,4.3,4.9h25.8c2.4,0,4.3-2.2,4.3-4.9v-29.7c0-2.7-1.9-4.9-4.3-4.9h-25.8c-2.4,0-4.3,2.2-4.3,4.9v29.7Z"/>
    <path class="cls-2" d="M68.3,114.9c0,2.7,1.9,4.9,4.3,4.9h25.8c2.4,0,4.3-2.2,4.3-4.9v-29.7c0-2.7-1.9-4.9-4.3-4.9h-25.8c-2.4,0-4.3,2.2-4.3,4.9v29.7Z"/>
    <path class="cls-2" d="M120.8,114.6c0,2.7,1.9,4.9,4.3,4.9h25.8c2.4,0,4.3-2.2,4.3-4.9v-29.7c0-2.7-1.9-4.9-4.3-4.9h-25.8c-2.4,0-4.3,2.2-4.3,4.9v29.7Z"/>
    <path class="cls-2" d="M173,114.5c0,2.7,1.9,4.9,4.3,4.9h25.8c2.4,0,4.3-2.2,4.3-4.9v-29.7c0-2.7-1.9-4.9-4.3-4.9h-25.8c-2.4,0-4.3,2.2-4.3,4.9v29.7Z"/>
    <path class="cls-2" d="M225.6,114.5c0,2.7,1.9,4.9,4.3,4.9h25.8c2.4,0,4.3-2.2,4.3-4.9v-29.7c0-2.7-1.9-4.9-4.3-4.9h-25.8c-2.4,0-4.3,2.2-4.3,4.9v29.7Z"/>
    <path class="cls-2" d="M277.4,114.4c0,2.7,1.9,4.9,4.3,4.9h25.8c2.4,0,4.3-2.2,4.3-4.9v-29.7c0-2.7-1.9-4.9-4.3-4.9h-25.8c-2.4,0-4.3,2.2-4.3,4.9v29.7Z"/>
    <path class="cls-2" d="M330.1,114.4c0,2.7,1.9,4.9,4.3,4.9h25.8c2.4,0,4.3-2.2,4.3-4.9v-29.7c0-2.7-1.9-4.9-4.3-4.9h-25.8c-2.4,0-4.3,2.2-4.3,4.9v29.7Z"/>
    <path class="cls-2" d="M382.7,114.3c0,2.7,1.9,4.9,4.3,4.9h25.8c2.4,0,4.3-2.2,4.3-4.9v-29.7c0-2.7-1.9-4.9-4.3-4.9h-25.8c-2.4,0-4.3,2.2-4.3,4.9v29.7Z"/>
    <path class="cls-2" d="M435.1,113.9c0,2.7,1.9,4.9,4.3,4.9h25.8c2.4,0,4.3-2.2,4.3-4.9v-29.7c0-2.7-1.9-4.9-4.3-4.9h-25.8c-2.4,0-4.3,2.2-4.3,4.9v29.7Z"/>
    <path class="cls-4" d="M73.4,329H22.1c-3,0-5.4,2.2-5.4,4.9v29.7c0,2.7,2.4,4.9,5.4,4.9h51.3c3,0,5.4-2.2,5.4-4.9v-29.7c0-2.7-2.4-4.9-5.4-4.9Z"/>
    <path class="cls-4" d="M126.6,329h-28.4c-1.6,0-3,2.2-3,4.9v29.7c0,2.7,1.3,4.9,3,4.9h28.4c1.6,0,3-2.2,3-4.9v-29.7c0-2.7-1.3-4.9-3-4.9Z"/>
    <path class="cls-4" d="M204.6,329.4h-51.3c-3,0-5.4,2.2-5.4,4.9v29.7c0,2.7,2.4,4.9,5.4,4.9h51.3c3,0,5.4-2.2,5.4-4.9v-29.7c0-2.7-2.4-4.9-5.4-4.9Z"/>
    <path class="cls-2" d="M606.3,328.1h-51.3c-3,0-5.4,2.2-5.4,4.9v29.7c0,2.7,2.4,4.9,5.4,4.9h51.3c3,0,5.4-2.2,5.4-4.9v-29.7c0-2.7-2.4-4.9-5.4-4.9Z"/>
    <path class="cls-4" d="M660,328.1h-28.4c-1.6,0-3,2.2-3,4.9v29.7c0,2.7,1.3,4.9,3,4.9h28.4c1.6,0,3-2.2,3-4.9v-29.7c0-2.7-1.3-4.9-3-4.9Z"/>
    <path class="cls-2" d="M712.2,328.1h-28.4c-1.6,0-3,2.2-3,4.9v29.7c0,2.7,1.3,4.9,3,4.9h28.4c1.6,0,3-2.2,3-4.9v-29.7c0-2.7-1.3-4.9-3-4.9Z"/>
    <path class="cls-2" d="M789.5,328.1h-51.3c-3,0-5.4,2.2-5.4,4.9v29.7c0,2.7,2.4,4.9,5.4,4.9h51.3c3,0,5.4-2.2,5.4-4.9v-29.7c0-2.7-2.4-4.9-5.4-4.9Z"/>
    <path class="cls-2" d="M532.1,364.2c0,2.2-1.8,4-3.9,4H231.3c-2.2,0-3.9-1.8-3.9-4v-31.7c0-2.2,1.8-4,3.9-4h296.8c2.2,0,3.9,1.8,3.9,4v31.7Z"/>
  </g>
  <g id="Grid" class="cls-7">
    <path class="cls-6" d="M99.4,161.9h25.5M112.1,176.7v-29.5M99.4,147.2h25.5v29.5h-25.5v-29.5Z"/>
    <path class="cls-6" d="M113,224.2h25.5M125.8,238.9v-29.5M113,209.5h25.5v29.5h-25.5v-29.5Z"/>
    <path class="cls-6" d="M165.4,224.2h25.5M178.2,238.9v-29.5M165.4,209.5h25.5v29.5h-25.5v-29.5Z"/>
    <path class="cls-6" d="M217.8,224.2h25.5M230.6,238.9v-29.5M217.8,209.5h25.5v29.5h-25.5v-29.5Z"/>
    <path class="cls-6" d="M270.3,223.9h25.5M283.1,238.7v-29.5M270.3,209.2h25.5v29.5h-25.5v-29.5Z"/>
    <path class="cls-6" d="M322.3,223.9h25.5M335,238.7v-29.5M322.3,209.2h25.5v29.5h-25.5v-29.5Z"/>
    <path class="cls-6" d="M374.8,223.9h25.5M387.6,238.7v-29.5M374.8,209.2h25.5v29.5h-25.5v-29.5Z"/>
    <path class="cls-6" d="M427.8,223.9h25.5M440.6,238.7v-29.5M427.9,209.2h25.5v29.5h-25.5v-29.5Z"/>
    <path class="cls-6" d="M480.2,223.9h25.5M492.9,238.7v-29.5M480.2,209.2h25.5v29.5h-25.5v-29.5Z"/>
    <path class="cls-6" d="M505.6,285.4h25.5M518.3,300.1v-29.5M505.6,270.6h25.5v29.5h-25.5v-29.5Z"/>
    <path class="cls-6" d="M558,285.4h25.5M570.8,300.1v-29.5M558,270.6h25.5v29.5h-25.5v-29.5Z"/>
    <path class="cls-6" d="M610.1,285.4h25.5M622.9,300.1v-29.5M610.1,270.6h25.5v29.5h-25.5v-29.5Z"/>
    <path class="cls-6" d="M532.5,223.6h25.5M545.2,238.4v-29.5M532.5,208.9h25.5v29.5h-25.5v-29.5Z"/>
    <path class="cls-6" d="M585,223.6h25.5M597.8,238.4v-29.5M585,208.9h25.5v29.5h-25.5v-29.5Z"/>
    <path class="cls-6" d="M637,223.6h25.5M649.7,238.4v-29.5M637,208.9h25.5v29.5h-25.5v-29.5Z"/>
    <path class="cls-6" d="M689.2,223.6h25.5M702,238.3v-29.5M689.2,208.9h25.5v29.5h-25.5v-29.5Z"/>
    <path class="cls-6" d="M748.9,191.1h25.5M761.6,205.8v-29.5M748.9,176.3h25.5v29.5h-25.5v-29.5Z"/>
    <path class="cls-6" d="M453,285.4h25.5M465.8,300.1v-29.5M453,270.6h25.5v29.5h-25.5v-29.5Z"/>
    <path class="cls-6" d="M138.1,286.2h25.5M150.9,301v-29.5M138.1,271.5h25.5v29.5h-25.5v-29.5Z"/>
    <path class="cls-6" d="M85.9,286.4h25.5M98.7,301.1v-29.5M85.9,271.6h25.5v29.5h-25.5v-29.5Z"/>
    <path class="cls-6" d="M191,285.8h25.5M203.7,300.6v-29.5M191,271.1h25.5v29.5h-25.5v-29.5Z"/>
    <path class="cls-6" d="M242.9,285.8h25.5M255.6,300.6v-29.5M242.9,271.1h25.5v29.5h-25.5v-29.5Z"/>
    <path class="cls-6" d="M295.3,285.8h25.5M308,300.5v-29.5M295.3,271.1h25.5v29.5h-25.5v-29.5Z"/>
    <path class="cls-6" d="M347.7,285.6h25.5M360.5,300.4v-29.5M347.7,270.9h25.5v29.5h-25.5v-29.5Z"/>
    <path class="cls-6" d="M400.1,285.7h25.5M412.9,300.4v-29.5M400.1,270.9h25.5v29.5h-25.5v-29.5Z"/>
    <path class="cls-6" d="M151.5,161.9h25.5M164.3,176.7v-29.5M151.5,147.2h25.5v29.5h-25.5v-29.5Z"/>
    <path class="cls-6" d="M204,161.7h25.5M216.8,176.4v-29.5M204,146.9h25.5v29.5h-25.5v-29.5Z"/>
    <path class="cls-6" d="M256.5,161.6h25.5M269.2,176.4v-29.5M256.5,146.9h25.5v29.5h-25.5v-29.5Z"/>
    <path class="cls-6" d="M308.6,161.6h25.5M321.4,176.4v-29.5M308.6,146.9h25.5v29.5h-25.5v-29.5Z"/>
    <path class="cls-6" d="M361,161.5h25.5M373.8,176.3v-29.5M361,146.8h25.5v29.5h-25.5v-29.5Z"/>
    <path class="cls-6" d="M466.1,161.5h25.5M478.9,176.3v-29.5M466.1,146.8h25.5v29.5h-25.5v-29.5Z"/>
    <path class="cls-6" d="M571.1,161.4h25.5M583.8,176.2v-29.5M571.1,146.7h25.5v29.5h-25.5v-29.5Z"/>
    <path class="cls-6" d="M597.2,98.7h25.5M610,113.5v-29.5M597.2,84h25.5v29.5h-25.5v-29.5Z"/>
    <path class="cls-6" d="M649.3,98.7h25.5M662,113.5v-29.5M649.3,84h25.5v29.5h-25.5v-29.5Z"/>
    <path class="cls-6" d="M623.2,161.4h25.5M636,176.1v-29.5M623.2,146.6h25.5v29.5h-25.5v-29.5Z"/>
    <path class="cls-6" d="M675.4,161.4h25.5M688.1,176.1v-29.5M675.4,146.6h25.5v29.5h-25.5v-29.5Z"/>
    <path class="cls-6" d="M518.6,161.4h25.5M531.4,176.2v-29.5M518.6,146.7h25.5v29.5h-25.5v-29.5Z"/>
    <path class="cls-6" d="M544.8,98.8h25.5M557.5,113.6v-29.5M544.8,84.1h25.5v29.5h-25.5v-29.5Z"/>
    <path class="cls-6" d="M857.2,36.5h25.5M869.9,51.3v-29.5M857.2,21.8h25.5v29.5h-25.5v-29.5Z"/>
    <path class="cls-6" d="M909.6,36.6h25.5M922.3,51.3v-29.5M909.6,21.8h25.5v29.5h-25.5v-29.5Z"/>
    <path class="cls-6" d="M962,36.6h25.5M974.8,51.3v-29.5M962,21.8h25.5v29.5h-25.5v-29.5Z"/>
    <path class="cls-6" d="M962,98.9h25.5M974.8,113.7v-29.5M962.1,84.2h25.5v29.5h-25.5v-29.5Z"/>
    <path class="cls-6" d="M1046.7,99.2h25.5M1059.5,113.9v-29.5M1046.7,84.5h25.5v29.5h-25.5v-29.5Z"/>
    <path class="cls-6" d="M1047,161.5h25.5M1059.7,176.3v-29.5M1047,146.8h25.5v29.5h-25.5v-29.5Z"/>
    <path class="cls-6" d="M1047,223.9h25.5M1059.8,238.6v-29.5M1047,209.1h25.5v29.5h-25.5v-29.5Z"/>
    <path class="cls-6" d="M1099.2,223.9h25.5M1111.9,238.6v-29.5M1099.2,209.1h25.5v29.5h-25.5v-29.5Z"/>
    <path class="cls-6" d="M1151.2,223.8h25.5M1164,238.6v-29.5M1151.2,209.1h25.5v29.5h-25.5v-29.5Z"/>
    <path class="cls-6" d="M1151.3,286.2h25.5M1164.1,301v-29.5M1151.3,271.5h25.5v29.5h-25.5v-29.5Z"/>
    <path class="cls-6" d="M1152.9,348.6h25.5M1165.7,363.4v-29.5M1152.9,333.9h25.5v29.5h-25.5v-29.5Z"/>
    <path class="cls-6" d="M1099.4,286.2h25.5M1112.2,301v-29.5M1099.4,271.5h25.5v29.5h-25.5v-29.5Z"/>
    <path class="cls-6" d="M1047,286.2h25.5M1059.7,301v-29.5M1047,271.5h25.5v29.5h-25.5v-29.5Z"/>
    <path class="cls-6" d="M1098.5,161.5h25.5M1111.2,176.3v-29.5M1098.5,146.8h25.5v29.5h-25.5v-29.5Z"/>
    <path class="cls-6" d="M1150.9,161.5h25.5M1163.7,176.3v-29.5M1150.9,146.8h25.5v29.5h-25.5v-29.5Z"/>
    <path class="cls-6" d="M1099.1,99.2h25.5M1111.9,113.9v-29.5M1099.1,84.5h25.5v29.5h-25.5v-29.5Z"/>
    <path class="cls-6" d="M1151.6,99.2h25.5M1164.3,113.9v-29.5M1151.6,84.4h25.5v29.5h-25.5v-29.5Z"/>
    <path class="cls-6" d="M1204,99.2h25.5M1216.8,114v-29.5M1204,84.5h25.5v29.5h-25.5v-29.5Z"/>
    <path class="cls-6" d="M909.7,98.9h25.5M922.4,113.7v-29.5M909.7,84.2h25.5v29.5h-25.5v-29.5Z"/>
    <path class="cls-6" d="M857.2,98.9h25.5M869.9,113.7v-29.5M857.2,84.2h25.5v29.5h-25.5v-29.5Z"/>
    <path class="cls-6" d="M856.8,161.3h25.5M869.5,176v-29.5M856.8,146.5h25.5v29.5h-25.5v-29.5Z"/>
    <path class="cls-6" d="M909.5,161.3h25.5M922.3,176v-29.5M909.5,146.5h25.5v29.5h-25.5v-29.5Z"/>
    <path class="cls-6" d="M962,161.3h25.5M974.7,176v-29.5M962,146.5h25.5v29.5h-25.5v-29.5Z"/>
    <path class="cls-6" d="M962.9,347.9h25.5M975.6,362.6v-29.5M962.9,333.1h25.5v29.5h-25.5v-29.5Z"/>
    <path class="cls-6" d="M910.5,347.9h25.5M923.2,362.7v-29.5M910.5,333.2h25.5v29.5h-25.5v-29.5Z"/>
    <path class="cls-6" d="M858,347.9h25.5M870.8,362.7v-29.5M858,333.2h25.5v29.5h-25.5v-29.5Z"/>
    <path class="cls-6" d="M910.5,286.2h25.5M923.2,300.9v-29.5M910.5,271.4h25.5v29.5h-25.5v-29.5Z"/>
    <path class="cls-6" d="M413.7,161.6h25.5M426.4,176.3v-29.5M413.7,146.8h25.5v29.5h-25.5v-29.5Z"/>
    <path class="cls-6" d="M492.3,98.8h25.5M505.1,113.6v-29.5M492.4,84.1h25.5v29.5h-25.5v-29.5Z"/>
    <path class="cls-6" d="M1204,188.1h25.5M1216.8,229.7v-83.3M1204,146.4h25.5v83.3h-25.5v-83.3Z"/>
    <path class="cls-6" d="M1204,312.8h25.5M1216.8,354.4v-83.3M1204,271.1h25.5v83.3h-25.5v-83.3Z"/>
    <path class="cls-6" d="M1046.6,348.6h80.8M1087,363.3v-29.4M1046.6,333.9h80.8v29.4h-80.8v-29.4Z"/>
    <path class="cls-6" d="M662.3,285.4h121.1M722.8,300.1v-29.4M662.3,270.7h121.1v29.4h-121.1v-29.4Z"/>
    <path class="cls-6" d="M729,161.6h52.5M755.2,176.3v-29.4M729,146.9h52.5v29.4h-52.5v-29.4Z"/>
    <path class="cls-6" d="M701.4,98.5h80.8M741.8,113.3v-29.5M701.4,83.8h80.8v29.5h-80.8v-29.5Z"/>
    <path class="cls-6" d="M20.8,224.5h66.9M54.2,239.2v-29.4M20.8,209.8h66.9v29.4H20.8v-29.4Z"/>
    <path class="cls-6" d="M20.7,162.1h52.9M47.1,176.8v-29.4M20.7,147.4h52.9v29.4H20.7v-29.4Z"/>
    <path class="cls-6" d="M21,287h40M41,301.7v-29.4M21,272.3h40v29.4H21v-29.4Z"/>
    <path class="cls-6" d="M20.4,37.6h25.5M33.2,52.4v-29.5M20.4,22.9h25.5v29.5h-25.5v-29.5Z"/>
    <path class="cls-6" d="M177.5,38.4h25.5M190.3,53.1v-29.5M177.5,23.6h25.5v29.5h-25.5v-29.5Z"/>
    <path class="cls-6" d="M230.2,38.4h25.5M243,53.1v-29.5M230.2,23.6h25.5v29.5h-25.5v-29.5Z"/>
    <path class="cls-6" d="M281.9,38.4h25.5M294.6,53.1v-29.5M281.9,23.6h25.5v29.5h-25.5v-29.5Z"/>
    <path class="cls-6" d="M704.1,38h25.5M716.9,52.7v-29.5M704.1,23.2h25.5v29.5h-25.5v-29.5Z"/>
    <path class="cls-6" d="M756.4,37.7h25.5M769.2,52.4v-29.5M756.4,23h25.5v29.5h-25.5v-29.5Z"/>
    <path class="cls-6" d="M651.6,38h25.5M664.4,52.8v-29.5M651.7,23.3h25.5v29.5h-25.5v-29.5Z"/>
    <path class="cls-6" d="M599.1,38h25.5M611.8,52.7v-29.5M599.1,23.2h25.5v29.5h-25.5v-29.5Z"/>
    <path class="cls-6" d="M519.4,38.4h25.5M532.1,53.1v-29.5M519.4,23.6h25.5v29.5h-25.5v-29.5Z"/>
    <path class="cls-6" d="M466.6,38.6h25.5M479.3,53.4v-29.5M466.6,23.9h25.5v29.5h-25.5v-29.5Z"/>
    <path class="cls-6" d="M414.1,38.6h25.5M426.8,53.3v-29.5M414.1,23.8h25.5v29.5h-25.5v-29.5Z"/>
    <path class="cls-6" d="M361.8,38.4h25.5M374.5,53.1v-29.5M361.8,23.6h25.5v29.5h-25.5v-29.5Z"/>
    <path class="cls-6" d="M125.3,38.4h25.5M138.1,53.1v-29.5M125.3,23.6h25.5v29.5h-25.5v-29.5Z"/>
    <path class="cls-6" d="M21,99.9h25.5M33.8,114.6v-29.5M21,85.2h25.5v29.5h-25.5v-29.5Z"/>
    <path class="cls-6" d="M72.9,99.9h25.5M85.6,114.6v-29.5M72.9,85.1h25.5v29.5h-25.5v-29.5Z"/>
    <path class="cls-6" d="M125.3,99.6h25.5M138.1,114.3v-29.5M125.3,84.9h25.5v29.5h-25.5v-29.5Z"/>
    <path class="cls-6" d="M177.6,99.5h25.5M190.3,114.2v-29.5M177.6,84.7h25.5v29.5h-25.5v-29.5Z"/>
    <path class="cls-6" d="M230.2,99.5h25.5M243,114.2v-29.5M230.2,84.8h25.5v29.5h-25.5v-29.5Z"/>
    <path class="cls-6" d="M282,99.4h25.5M294.7,114.1v-29.5M282,84.6h25.5v29.5h-25.5v-29.5Z"/>
    <path class="cls-6" d="M439.7,98.9h25.5M452.4,113.6v-29.5M439.7,84.2h25.5v29.5h-25.5v-29.5Z"/>
    <path class="cls-6" d="M387.2,99.3h25.5M400,114.1v-29.5M387.2,84.6h25.5v29.5h-25.5v-29.5Z"/>
    <path class="cls-6" d="M334.7,99.4h25.5M347.4,114.1v-29.5M334.7,84.6h25.5v29.5h-25.5v-29.5Z"/>
    <path class="cls-6" d="M633.1,347.7h25.5M645.8,362.5v-29.5M633.1,333h25.5v29.5h-25.5v-29.5Z"/>
    <path class="cls-6" d="M685.3,347.7h25.5M698,362.4v-29.5M685.3,332.9h25.5v29.5h-25.5v-29.5Z"/>
    <path class="cls-6" d="M99.7,348.6h25.5M112.5,363.3v-29.5M99.7,333.8h25.5v29.5h-25.5v-29.5Z"/>
    <path class="cls-6" d="M21.1,348.6h53.3M47.8,363.3v-29.4M21.1,333.8h53.3v29.4H21.1v-29.4Z"/>
    <path class="cls-6" d="M152.4,349h53.3M179.1,363.7v-29.4M152.4,334.3h53.3v29.4h-53.3v-29.4Z"/>
    <path class="cls-6" d="M554.1,347.7h53.3M580.8,362.4v-29.4M554.1,333h53.3v29.4h-53.3v-29.4Z"/>
    <path class="cls-6" d="M737.2,347.7h53.3M763.9,362.4v-29.4M737.3,333h53.3v29.4h-53.3v-29.4Z"/>
    <path class="cls-6" d="M231.8,348.2h295.9M379.8,363.1v-29.6M231.8,333.4h295.9v29.6H231.8v-29.6Z"/>
  </g>
  <g id="Design">
    <path id="path4735-3-5-7" class="cls-5" d="M670.7,98.6v-3.4s.1-.5.7-.5c.6,0,.6.5.6.5v2.2s1.3-1.5,1.8-2.3c.3-.4.7-.5.9-.3.2.1.2.6.1.8-.6,1.1-2.1,3-2.1,3l1.7,2.7s.6,1,0,1.3c-.4.3-.8,0-1-.4-.6-.8-1.6-2.3-1.6-2.3v2.4s-.2.4-.6.4-.7-.4-.7-.4v-3.4s0-.4,0-.4h0Z"/>
    <path class="cls-5" d="M1162.9,155.4c1-.3,2.9-.4,4.1.6.3.3,1.1.6,1.6.2.6-.7.2-1.5-.1-1.8-.6-.5-2.8-1.4-5.3-1.2-2.8.3-4.8,2.7-5.5,4.5-1.1,2.7-.4,6-.3,6.5.2.9,1.1,3.4,2.2,4.2.7.5,2.5,1.2,4.1,1.2s2.9,0,4-.8c1.1-.8,2.3-2,2.5-4.2.3-2.5-.9-4.2-2-5-.9-.7-1.8-1.3-4.3-1.4-2,0-4.7,2.1-4.7,2.1l.2,3.1s.9-2.1,2.6-2.7c1.9-.6,2.8-.6,4.1,0,1.9.7,2.6,1.9,2,4-.3,1.1-1,2.3-4.3,2.7-2.9,0-3.8-1.9-4.1-3.1-.1-.6,0-1.2,0-1.8,0,0-.3-2.7,0-3.6.1-.5.3-2.5,3.4-3.5h0Z"/>
    <path class="cls-5" d="M33.9,102.5s-1.1.9-1.1.9c-.7.5-1.7-.7-1-1.2,0,0,1.9-1.5,2-1.5.7-.5,1.6-.1,1.6.6s.3,10.2.3,10.3c0,.8-1.7,1-1.7,0v-9Z"/>
    <circle class="cls-5" cx="33.6" cy="97.8" r="1.1"/>
    <path class="cls-5" d="M32.7,91.5s.2,3.1.2,3.2c0,.7,1.5.8,1.5,0,0-.1.4-6,.4-6.1,0-1.4-2.2-1.5-2.2,0"/>
    <path class="cls-5" d="M84.6,110.6s4-3.9,4.1-4.2c.7-1.2.6-3.1.1-4-.5-1-1.8-1.8-3-1.9-.9,0-2.1.2-3,1.2-.8.9-1.1,2.4-.9,3,.2.6,1.1.9,1.5.3.4-.5-.2-1.1.5-2,.2-.4.7-.8,1.7-.8.7,0,1.5.3,1.8.9.6,1,.2,2.1.2,2.1,0,0-5.3,5.4-5.5,5.6-.5.6-.1,1.2.5,1.3.3,0,5.7-.1,5.9-.1.9,0,.9-1.4-.1-1.4h-3.9Z"/>
    <path class="cls-5" d="M82.5,90.6s-.3-2.1-.3-2.2c-.1-.6.4-1,1.5-1s1.5.5,1.4,1.1c0,.1-.6,4.5-.6,4.7-.1.8-1.3,1-1.5,0"/>
    <path class="cls-5" d="M86.1,90.6s-.3-2.2-.3-2.3c-.1-.6.3-.9,1.4-.9s1.3.5,1.3,1.1c0,.1-.6,4.5-.6,4.7-.1.8-1.1.8-1.3,0"/>
    <path class="cls-5" d="M140.6,106.2s1.2,1.2,1.1,2.8c0,1.4-1.2,2.4-1.9,2.8-.7.5-2.8.6-3.6.1-.8-.4-2-1-2.1-2.9,0-.2,0-.9.6-1.1.5-.2.9.2.9.2,0,0,0,1.4.9,2.1.8.6,1.7.3,2.3,0,.7-.3,1.1-1.1,1.2-1.5,0-.4-.4-1.3-.7-1.6-.4-.3-1.7-.2-1.7-.2,0,0-.6-.1-.6-.8s.5-.8.5-.8c0,0,1,0,1.6-.2.8-.2,1.1-1,.9-1.8-.1-.6-.8-1-1.4-1.3-.6-.3-1.5-.1-2,.3-.6.5-.9,1.7-.9,1.7,0,0-.3.4-.8.4-.5,0-.6-.6-.6-.6,0,0,.2-2,1.2-2.9,1.1-1,3-.8,4-.5.7.2,2,1,2.2,2.5.3,1.9-.9,3-.9,3"/>
    <path class="cls-5" d="M191.1,103.8l-2.7,4.1h4.4s.7,0,.7,0c0,0,.5.2.5.7,0,.5-.4.7-.4.7h-.9v2s-.2.5-.7.5c-.5,0-.7-.4-.7-.4v-2s-4,0-4,0c0,0-.4-.1-.6-.4-.3-.4-.1-.9-.1-.9l4.8-7.8s.2-.4.7-.4c.4,0,.6.5.6.5v7.7c.1,0-1.4,0-1.4,0v-4.2Z"/>
    <path class="cls-5" d="M191,95.4s.6,0,.8,0c.2,0,.5-.2.5-.8,0-.5-.2-.8-.5-.8-.6-.2-2,0-2.7-.2-.4,0-1.2-.5-1.5-.9-.3-.3-.5-1.1-.5-1.5,0-.6.5-1.5,1-1.8.5-.3,1.7-.5,1.7-.5v-1.4s0-.6.7-.6c.5,0,.7.5.7.5v1.5s.7,0,1.3.4c.5.3.9,1,.9,1,0,0,.3.7,0,1.1-.3.4-.8.2-.8.2,0,0-.3-.7-1-1-.7-.3-.7-.4-1.4-.3-.6,0-1.1.2-1.3.6-.3.6.2,1.1.2,1.1,0,0,2.1,0,2.9.2.8.2,1.4.6,1.6,1.1.2.5.4,1.7.2,2.2-.2.4-.8,1.1-1.2,1.2-.3.1-1.2,0-1.2,0v1.4s-.2.7-.7.7-.7-.6-.7-.6v-1.4s-1,0-1.8-.6c-.6-.4-1-1.3-1-1.3,0,0,0-.5.3-.7.4-.3.9,0,.9,0,0,0,.7.9,1,1.1.4.1.7,0,.9,0h1Z"/>
    <path class="cls-5" d="M135.3,92.4h-.9s-.5-.3-.5-.7.4-.7.4-.7h1s0-1.6,0-1.6c0,0,.2-.6.8-.6.6,0,.7.5.7.5v1.6c0,0,2.2,0,2.2,0v-1.3s0-.6.7-.6.7.5.7.5v1.4s1.2,0,1.2,0c0,0,.3.2.3.7s-.3.8-.3.8h-1.1s0,2,0,2h1s.4.1.4.7-.4.6-.4.6h-1.1s0,1.3,0,1.3c0,0-.2.7-.7.7s-.7-.6-.7-.6v-1.3s-2.2,0-2.2,0v1.2s-.2.7-.7.7-.7-.6-.7-.6v-1.1s-.9,0-.9,0c0,0-.6-.2-.5-.7,0-.6.4-.7.4-.7h4.7s0-2,0-2h-2.3s0,2,0,2h-1.5s0-2,0-2Z"/>
    <path class="cls-5" d="M240.8,101.8v1.9s1.1-.4,2.4-.3c1.1.1,2,.8,2.7,1.5.5.5.9,2,.9,2.9s-.6,2.2-1.2,2.8c-.5.5-1.9,1.2-2.7,1.2-.9,0-1.9-.5-2.6-.9-.3-.2-.9-.7-1-1,0-.2,0-.8.2-1,.1-.2.6-.3.8-.2.4,0,1,.7,1.3.9.3.2.9.4,1.5.3.8-.1,1.4-.6,1.7-1.3.4-.7.4-1.6,0-2.2-.4-.7-.9-1.1-1.8-1.3-.8-.2-1.6.3-2.1.7-.2.2-.3.6-.9.5-.7,0-.8-.6-.8-.6v-4.7c0,0,0-.6.2-.8.1-.1.7-.2.7-.2h5.6c0,0,.7,0,.7.8s-.6.9-.6.9h-4.6"/>
    <path class="cls-5" d="M292.8,104.8v-1.2s1-1.3,1.5-1.4c.7-.1,1.5,0,1.9.5.2.2,1,.9,1,.9,0,0,.2.5.9.2.6-.3.3-1,.3-1,0,0-.7-1.2-1.1-1.5-.6-.5-1.5-1.3-3.1-1.2-2.2.2-3.3,3-3.3,3.1-.2,1,0,5.5,0,5.5,0,0,0,1.2,1.2,2.2.4.3,1.3.8,2.3,1,.8.2,2-.2,2.5-.5.7-.4,1.4-1.3,1.6-2.9.2-1.7-.5-2.6-1.1-3.1-.5-.5-1.1-.9-2.6-1-1.2,0-2.2.6-2.2.6v2.2s1.2-.9,1.2-.9h2.1c0-.1.9.8.9.8v1.2s-.3,1-.3,1l-1.7.8-1.9-1.1s-.1-1.2-.1-1.5v-2.8Z"/>
    <path class="cls-5" d="M298.6,95.2l.3-2.4s.1-.7-.6-.9c-.6-.2-.8.4-.8.4l-.6,2-2.1-1.9s-1-.8-1.3-1.1c-.2-.2-.7-.7-.8-1-.2-.3-.5-1.1-.3-1.5.1-.3.6-.7.9-.8.3,0,1.2-.2,1.5-.1.3,0,.8.3,1,.5.2.2.3.8.2,1.1-.2.4-.7.8-1,1-.3.2-1.4.9-1.4.9l1.1,1s1.6-.7,2-1.1c.4-.4,1-1.3,1-1.9,0-.6-.2-1.7-.6-2.1-.4-.4-1.4-.9-1.9-1-.5,0-1.7,0-2.2,0-.6.2-1.6.3-2,1.2-.5.9-.4,2-.2,2.6.2.4,1.1,1.5,1.1,1.5v.4s-.6,0-1.2.4c-.3.3-.5.8-.7,1.4,0,.3-.1.8,0,1.3,0,.4.4,1.2.7,1.5.3.3,1.3.8,1.7.9.5.2,1.6.4,2.1.4.5,0,1.4,0,2.1-.4.8-.4,1.1-1.1,1.1-1.1l-1.1-1.1s-.9.5-1.2.6c-.4.1-1.2.3-1.5.2-.5,0-1.6-.5-2-.8-.2-.2-.5-.8-.4-1.1,0-.3.6-.8.9-.8.3,0,.9,0,1.2,0,.3.1,1,.6,1.2.8.2.2.6.5.8.7.5.4,2,1.6,2,1.6l1.8.9h0s.5,0,.8-.6c.2-.6-.3-1.1-.3-1.1l-1.3-.6Z"/>
    <path class="cls-5" d="M239.6,89.2s.5-.6.7-.7c.3-.1.6-.1.8,0,.4.3.4.7.3,1.1,0,.3-.4.8-.6.9-.4.2-.4.2-.7.2s-.4,0-.5-.2c-.3-.3-.3-.4-.3-.9,0-.4.5-.8.5-.8l-.8-.9s-.8.8-.9,1.1c-.1.3,0,.9,0,1.3,0,.4,0,.4.3.8.2.3.4.5.7.6.4.1.7.2,1.1.2s.6,0,1-.3c.2-.2.5-.4.7-.8.2-.3.4-.6.4-.9,0-.4,0-.7,0-1.1,0-.4-.3-.9-.7-1.3-.4-.3-1.1-.4-1.4-.4-.2,0-.7.1-.9.3-.3.1-.8.7-.8.7"/>
    <path class="cls-5" d="M244.8,95.5s.5-.6.7-.7c.3-.1.6-.1.8,0,.4.3.4.7.3,1.1,0,.3-.4.8-.6.9-.4.2-.4.2-.7.2s-.4,0-.5-.2c-.3-.3-.3-.4-.3-.9,0-.4.5-.8.5-.8l-.8-.9s-.8.8-.9,1.1c-.1.3,0,.9,0,1.3,0,.4,0,.4.3.8.2.3.4.5.7.6.4.1.7.2,1.1.2s.6,0,1-.3c.2-.2.5-.4.7-.8.2-.3.4-.6.4-.9,0-.4,0-.7,0-1.1,0-.4-.3-.9-.7-1.3-.4-.3-1.1-.4-1.4-.4-.2,0-.7.1-.9.3-.3.1-.8.7-.8.7"/>
    <path class="cls-5" d="M242.2,92.6l3.9-4.6s.4-.3.9,0c.4.3.3,1,.3,1l-7.6,8.9s-.6.2-1-.1c-.4-.4-.2-1-.2-1l3.5-3.8"/>
    <path class="cls-5" d="M349.2,101.7l-3.3,8.6s-.7.8.3,1.3c.9.4,1.3-.6,1.3-.6l3.4-9.3s.5-.8.1-1.4c-.3-.5-1-.5-1-.5h-5.9c0,0-.8.2-.8,1,0,.8.8,1,.8,1h4.3"/>
    <path class="cls-5" d="M346.1,89.1s.5-1.7.7-1.9c.2-.2,2.8-.3,3,0,.6.6-3.1,5.5-3.1,5.5,0,0-.6.5-1.1.4-.6-.1-.5-1-.5-1l1-3Z"/>
    <path class="cls-5" d="M402.4,105.6s1.5-1,1-3.2c-.5-2.6-2.9-2.6-3.5-2.6-.5,0-3.1-.3-3.6,3-.3,2.1,1.3,3,1.3,3l1.2-1-.8-.6s-.3-.2-.3-1,.3-1.5,2.1-1.5,2,1.1,2,1.4c0,.1-.1,1.1-.6,1.3-.4.2-1,.5-1.6.4-.6,0-1.4-.2-1.4-.2l-1,.9s-1.2,1.2-1.1,3.2c.1,2.7,2.7,3.1,4.2,3,1.9,0,3.3-1.5,3.5-3.3.1-1.5-1.5-3.1-1.5-3.1l-1.4.9s1.1.9,1.1,2-.9,1.7-2.1,1.7-2.3-.4-2.3-1.6c0-1.9,1.8-1.9,2.1-1.9.7,0,1.5,0,1.5,0"/>
    <path class="cls-5" d="M401,88.9l.9-.5s.6-.3.2-1.1c-.4-.7-1.1-.4-1.1-.4,0,0-1.6.9-2.4,1.9-1,1.2-1.3,2.4-1.4,3.8,0,1.3.7,3.3,1.4,4.2.7,1,2.3,1.8,2.3,1.8,0,0,1.1.4,1.5-.3.5-.8-.6-1.4-.6-1.4,0,0-1.2-.3-1.9-1.2-.8-1-1.2-1.8-1.1-3.1,0-1,.5-2.1,1-2.7,0,0,1.4-1.1,1.1-1Z"/>
    <path class="cls-5" d="M454.6,104.1s0-.8,0-1c0-.4-.3-1.2-.6-1.4-.3-.3-1.3-.6-1.7-.6-.6,0-1.5.3-2,1.1-.3.4-.3,1.3,0,1.9.3.6,1.1,1.3,2.3,1.1.9-.1,2.2-1.1,2.2-1.1l.2,1.5s-1.1,1-2,1.2c-.8.2-1.5,0-2.3-.4-.8-.4-1.2-.7-1.7-1.5-.5-.9-.6-2-.4-2.7.2-.7.8-1.9,1.4-2.3.7-.5,1.6-.8,2.5-.6.8.1,1.6.5,2,.8.5.5,1.2,1.6,1.3,2.2.2.9,0,2.2,0,3.1s0,2.5-.1,3.1c-.2.6-.8,1.4-1.3,1.8-.5.4-1.8.7-2.4.7-.6,0-1.8-.3-2.3-.7-.7-.5-1.4-1.9-1.2-1.4,0,.1-.3-.8.1-1.2.4-.3.8-.2,1,0,.3.3.4.8.9,1.1.5.4,1.1.6,1.8.5.7,0,.9-.1,1.4-.6s.7-1,.7-1.4v-3.2Z"/>
    <path class="cls-5" d="M450.8,88.5l-.3-.2s-.6-.5-.3-1.1c.3-.5.8-.5,1-.4.9.5,2.4,1.4,3.2,3.3.6,1.4.5,3.9,0,5.1-.7,1.6-2.6,3-2.6,3,0,0-1,.3-1.4,0-.4-.4,0-1.1.2-1.3.5-.5,1.5-.7,2.2-1.7.3-.5.6-1.6.7-2.5,0-1-.6-2.5-1.2-3,0,0-1.8-1.3-1.6-1.1Z"/>
    <path class="cls-5" d="M502.7,106.7c0-.8,0-3.3,0-3.6.3-.4.8-1.1,1.3-1.3.5-.2,1.7-.3,2.2,0,.4.2.8,1,.9,1.4,0,.2.1,5,0,5.1-.2.6-.5,1-1.2,1.3-.5.2-1.5.2-1.5.2v1.7s1.5,0,2-.2c.4-.2,1.2-.7,1.4-1.1.3-.4.8-1.4.9-1.9.2-1.3.1-4-.1-5.3-.1-.9-.3-1.5-1-2.2s-1.1-.9-1.6-1.1c-.5-.1-1.6-.2-2.1,0-.4.1-1.3.6-1.6.9-.4.4-1,1.3-1.3,2.2-.4,1.4.2,5.4.2,5.4,0,0,.2,1.3,1.2,2.3.8.8,2.2,1,2.2,1v-1.7c0,0-1.2-.5-1.5-1,0,0-.5-.8-.5-2.2Z"/>
    <path class="cls-5" d="M504.9,104.3l3-4.8s.6-.6,1.1-.2c.5.4.3,1,.3,1l-7.3,11.9s-.7.4-1.2,0c-.5-.5-.3-1.2-.3-1.2l4.1-6.3"/>
    <path class="cls-5" d="M1059.6,218.5s-.6.4-.7.5c-1.1.7-1.9-1.3-.9-2,0,0,1.3-1,1.4-1.1,1-.7,2.3-.1,2.3.8,0,.1,0,14.1,0,14.2,0,1.1-2.2,1.3-2.2,0v-12.4Z"/>
    <path class="cls-5" d="M1107.8,229.8c0-1.3,7.1-4.7,8.3-5.7,2.8-2.3,2.4-5,1.4-6.2-.9-1.2-2.2-1.9-4.1-2.2-1.5-.3-2.7,0-3.6.2-.9.3-3.5,1.2-2.7,2.6.6.9,1.8.3,2.3,0,1.1-.8,1.8-.7,3.6-.8,1.3,0,1.8.3,2.5,1.2,1,1.4.4,2.5-.2,3-2.2,2-8.1,4.4-9.4,7-.8,1.7-1,2.9.7,2.9s9,0,9.5,0c1.6,0,1.1-2,0-2,0,0-8.4.2-8.4-.1Z"/>
    <path class="cls-5" d="M1168.3,223.9h0c0-.1,1.4-1,1.3-3.4-.1-2.1-1.1-3.5-2.2-4.2-1.4-1-3.6-1.2-5-.9-1,.2-3.1,1.1-3.9,1.9-.5.4-.9,1.5-.3,2,.6.6,1.9-.3,1.9-.3,0,0,.4-.3,1.9-1.1.9-.5,2.4-.5,3.3-.2,1.2.3,2.1,1.2,2.2,2.4,0,1.1-.2,1.5-1,2-.7.5-2.2.4-2.2.4,0,0-.9.2-.9,1.2s.7,1.2.7,1.2c0,0,1,0,2,.2,1.3.3,1.9,1.7,1.9,3s-1.1,1.9-1.8,2.2c-1,.5-2.7.6-4.2.4-1.3-.2-2.7-1.5-2.7-1.5,0,0-.7-1-1.5-.6-.8.4-.5,1.4-.5,1.4,0,0,.4,1.3,2.4,2.2,2.1,1,5.5.7,7,.2,1.1-.3,3-1.7,3.4-4,.4-2.9-1.6-4.4-1.6-4.4-.1,0,0-.1,0-.1Z"/>
    <path class="cls-5" d="M1061.1,158.5l-4.6,5.7h7.5s1.2,0,1.2,0c0,0,.8.3.8.9,0,.8-.7,1-.7,1h-1.6v2.8s-.3.7-1.2.7c-.8,0-1.2-.6-1.2-.6v-2.7s-6.9.1-6.9.1c0,0-.7-.2-1.1-.6-.5-.5-.2-1.3-.2-1.3l8.2-10.8s.4-.6,1.3-.5c.7,0,1,.6,1,.6l.2,10.6s-2.6,0-2.6,0v-5.8Z"/>
    <path class="cls-5" d="M1107.3,155.4v2.8s2-.6,4.2-.4c2,.2,3.6,1.1,4.8,2.2.9.8,1.6,2.9,1.6,4.2s-1.1,3.2-2.1,4c-.9.8-3.3,1.8-4.9,1.7-1.5,0-3.5-.8-4.7-1.2-.6-.2-1.6-1-1.8-1.4-.2-.4.1-1.2.4-1.5.3-.2,1.1-.4,1.5-.3.7.1,1.7,1.1,2.3,1.3.6.3,1.6.6,2.7.5,1.4-.2,2.5-.9,3.1-1.8.7-1.1.7-2.3.1-3.2-.6-1-1.6-1.6-3.2-1.9-1.5-.3-2.9.4-3.8,1-.4.3-.5.8-1.6.8-1.3,0-1.4-.9-1.4-.9v-6.8c-.1,0,0-.9.3-1.1.2-.2,1.2-.3,1.2-.3h10.1c0,0,1.2.1,1.2,1.2s-1.1,1.4-1.1,1.4h-8.1"/>
    <path class="cls-5" d="M1062.7,93.7c-1.6,3.1-4.2,8-4.8,12.3,0,.5-.3,1.6.8,1.8,1.3.2,1.4-1.8,1.6-2.5,2.3-7.7,3.4-9.1,5-11.6.3-.4,1-1.2.3-2-.6-.8-1.3-.7-1.3-.7h-10.2c0,0-1.3.3-1.4,1.4,0,1.1,1.4,1.4,1.4,1.4h7.4"/>
    <path class="cls-5" d="M1115.8,98.9s2.5-1.5,1.8-4.6c-.9-3.8-4.9-3.8-5.9-3.8-.9,0-5.3-.4-6.1,4.4-.5,3,2.2,4.4,2.2,4.4l2.1-1.5-1.4-.9s-.5-.4-.5-1.5.5-2.2,3.6-2.2,3.4,1.6,3.4,2c0,.2-.2,1.6-.9,2-.6.3-1.7.7-2.8.6-1,0-2.3-.4-2.3-.4l-1.7,1.2s-2.1,1.8-1.9,4.7c.2,3.9,4.6,4.5,7.1,4.4,3.3-.1,5.7-2.1,5.9-4.7.2-2.1-2.6-4.6-2.6-4.6l-2.3,1.4s1.9,1.3,1.9,2.9-1.4,2.5-3.6,2.5-4-.6-4-2.3c0-2.8,3-2.7,3.6-2.8,1.2,0,2.6,0,2.6,0"/>
    <path class="cls-5" d="M1168.2,98.3s.1-1,0-1.3c0-.6-.1-1.2-.8-2.3-.4-.6-1.1-1.3-2.7-1.6-1.8-.3-3,.1-4,1.4-1,1.2-1.2,2.3-.3,3.8.3.6,2.6,2.2,4.6,1.9,1.9-.4,3.5-2.3,3.5-2.3l.5,2.5s-1.9,1.6-3.5,1.9c-1.4.3-2.7,0-4-.5-1.4-.6-2.1-1-2.9-2.3-.9-1.4-1-3-.7-4.2.3-1,1.5-2.6,2.5-3.2,1.2-.7,2.8-1.3,4.4-1,1.3.2,2.7.8,3.4,1.3.9.7,1.7,1.9,2,2.8.6,1.8.8,2.6.6,4.2-.1,1.3-.2,2.5-.7,3.6-.4.8-1.2,2.1-2,2.7-.9.7-2.9,1.6-4,1.6-1.2,0-3.6-.9-4.5-1.6-.3-.3-1.1-1-.6-1.6s1.3-.3,1.7,0c.5.4,1.7,1.3,3.4,1.2.7,0,2.3-.8,3.2-1.6.9-.8,1.1-1.7,1.2-2.1l-.3-3.4Z"/>
    <path class="cls-5" d="M1055.9,287.6c0-1.1-.1-4.9,0-5.2.4-.6,1.4-1.7,2.1-2,.8-.3,2.9-.4,3.7,0,.7.3,1.3,1.4,1.5,2.1,0,.3.2,7.3.1,7.5-.3.9-.8,1.5-2,1.9-.9.3-2.5.3-2.5.3v2.5s2.5,0,3.3-.2c.7-.2,2-1,2.4-1.6.5-.6,1.3-2,1.4-2.8.4-1.9.2-5.9-.2-7.8-.2-1.3-.5-2.1-1.8-3.2-.6-.5-1.9-1.4-2.7-1.5-.9-.2-2.6-.3-3.5,0-.7.2-2.2.8-2.7,1.3-.6.6-1.7,1.9-2.1,3.1-.6,2,.3,7.9.3,7.9,0,0,.3,2,2,3.4,1.4,1.2,3.7,1.4,3.7,1.4v-2.5c0,0-2-.8-2.5-1.5,0,0-.8-1.2-.9-3.2Z"/>
    <path class="cls-5" d="M1059.7,284l5-7s1-.9,1.9-.3c.9.5.5,1.5.5,1.5l-12.3,17.3s-1.2.6-2.1,0c-.9-.7-.4-1.8-.4-1.8l7-9.2"/>
    <path class="cls-5" d="M555.5,102.3c0-1.1.9-1.9,1.9-1.9,1.1,0,1.9.9,1.9,1.9,0,1.1-.9,1.9-1.9,1.9s-1.9-.9-1.9-1.9Z"/>
    <path class="cls-5" d="M555.5,107.9c0-1.1.9-1.9,1.9-1.9,1.1,0,1.9.9,1.9,1.9,0,1.1-.9,1.9-1.9,1.9s-1.9-.9-1.9-1.9Z"/>
    <path class="cls-5" d="M556.5,93.4l-2,1.9s-.9.3-1.2-.2c-.3-.4,0-1.1,0-1.1l3-2.1-3.1-2.2s-.3-.7,0-1.1c.3-.4,1-.2,1-.2l2.3,2.1v-2.4c0,0,.4-.6.9-.6.5,0,.7.6.7.6v2.4s2.6-2.2,2.6-2.2c0,0,.6-.2,1,0,.4.3,0,1.1,0,1.1l-3,2.1,2.9,2.2s.4.7,0,1.1c-.3.5-1.1.3-1.1.3l-2.6-2v2.3s-.3.7-.8.7c-.5,0-.7-.7-.7-.7v-2.4"/>
    <path class="cls-5" d="M609.5,105.1h5s.9.1.9.7-.9.9-.9.9l-9.9.2s-.9,0-.9-.9.9-.9.9-.9h4.2"/>
    <path class="cls-5" d="M611.1,93.6h2.3s.9,0,.9.8c0,.9-1,.9-1,.9h-6.9c0,.1-.9,0-.9-.7s.8-1,.8-1h4s.7,0,.7,0Z"/>
    <path class="cls-5" d="M611,88.8h2.3s.9,0,.9.8c0,.9-1,.9-1,.9h-6.9c0,.1-.9,0-.9-.7s.8-1,.8-1h4s.7,0,.7,0Z"/>
    <path class="cls-2" d="M756.4,37.8v-3.6s.1-.3.3-.4c.4-.1.8,0,.8,0v1.4c0,0-.1,2.1-.1,2.1,0,0,.7.1,1.1-.1.4-.3.6-.6.6-1.2s-.4-.7-.8-.8c-.4-.1-1,0-1,0v-1.4s1.1,0,1.4,0c.3,0,.7.3,1,.7.3.5.4.5.5,1,.1.5.2,1,0,1.4-.2.5-.6.8-.6.8,0,0,.6.4.9,1,.2.5.1,1.2,0,1.6-.1.4-.6,1.1-1,1.3-.5.2-2.2.2-2.2.2v-1.3c0,0,1.3.1,1.7-.1.3-.2.5-.6.4-1,0-.6-.6-.9-.8-1-.4,0-1.2,0-1.2,0v2.2s0,1.2,0,1.2c0,0-.5,0-.7,0-.1,0-.4-.4-.4-.4v-3.6s0-.2,0,0Z"/>
    <path class="cls-2" d="M763.1,38.2v3.2s-.3.4-.7.3c-.4,0-.6-.4-.6-.4v-7.8c0,0,1.2,0,1.2,0v1.3s0,2.3,0,2.3c0,0,.8,0,1.1,0,.2-.1.4-.3.5-.6.2-.3.2-.8,0-1.1-.2-.3-.6-.4-.8-.5-.3,0-.8,0-.8,0v-1.3s1.3,0,1.9.2c.5.3.8.8.8,1.2,0,.3.1.9.1,1.3,0,.4-.1.7-.4,1.1-.3.3-.6.5-.6.5l.4,1.2.6,1.8s.1.6-.3.8c-.5.2-.8-.3-.8-.3l-.8-3s-.2-.2-.3-.2h-.5Z"/>
    <path class="cls-2" d="M712,224.2v3.4c0,0-.3.4-.7.3-.4,0-.6-.4-.6-.4v-8.1s1.2,0,1.2,0v1.3s0,2.4,0,2.4c0,0,.8,0,1.1,0,.2-.1.4-.3.5-.6.2-.4.2-.8,0-1.2-.2-.4-.6-.4-.8-.5-.3-.1-.8,0-.8,0v-1.3s1.3,0,1.9.3c.5.3.8.9.8,1.2,0,.3.1.9.1,1.4,0,.4-.1.8-.4,1.1-.3.3-.6.5-.6.5l.4,1.2.6,1.8s.1.6-.3.8c-.5.2-.8-.3-.8-.3l-.8-3.1s-.2-.2-.3-.2h-.5Z"/>
    <path class="cls-2" d="M768.3,34.9h2.5s.6,0,.6-.6c0-.5-.5-.7-.5-.7,0,0-2.7-.1-2.9,0-.5,0-.9.2-.9.6,0,.2,0,6.7,0,6.9,0,.4.3.6.8.6.2,0,2.9,0,2.9,0,0,0,.5-.4.5-.8,0-.5-.5-.8-.5-.8h-2.4s0-1.7,0-1.7h1.9s.4-.2.4-.7c0-.4-.4-.6-.4-.6h-1.9c0,0,0-2.2,0-2.2Z"/>
    <path class="cls-5" d="M722.8,95.8h4.6s.5-.2.5-.8-.5-.7-.5-.7c0,0-4.8,0-5,0-.5,0-1,0-1,.4s0,7.6,0,7.8c0,.4.4.7.9.7s5.2-.1,5.2-.1c0,0,.5-.2.5-.7s-.5-.7-.5-.7h-4.5c0,0,0-2.4,0-2.4h2.6s.5-.2.5-.7-.5-.6-.5-.6h-2.7s0-2.2,0-2.2Z"/>
    <path class="cls-5" d="M748,95.5h4.6s.5-.2.5-.8-.5-.7-.5-.7c0,0-4.8,0-5,0-.5,0-1,0-1,.4s0,7.6,0,7.8c0,.4.4.7.9.7s5.2-.1,5.2-.1c0,0,.5-.2.5-.7s-.5-.7-.5-.7h-4.5c0,0,0-2.4,0-2.4h2.6s.5-.2.5-.7-.5-.6-.5-.6h-2.7s0-2.2,0-2.2Z"/>
    <path class="cls-2" d="M773.8,40.6l-.2.8s-.3.5-.8.3c-.5-.1-.5-.6-.5-.6l1.8-6.9s.1-.5.6-.5c.4,0,.6.5.6.5l1.8,7s0,.5-.4.6c-.4.1-.7-.2-.7-.2l-1.2-5.5-.8,3.2h1.7s.3,1.3.3,1.3h-2.1Z"/>
    <path class="cls-2" d="M700.9,220.8h2.5s.6,0,.6-.6c0-.6-.5-.7-.5-.7,0,0-2.7-.1-2.9,0-.5,0-.9.2-.9.6,0,.2,0,7,0,7.2,0,.4.3.6.8.6.2,0,2.9,0,2.9,0,0,0,.5-.4.5-.9,0-.5-.5-.9-.5-.9h-2.4s0-1.8,0-1.8h1.9s.4-.2.4-.7c0-.4-.4-.7-.4-.7h-1.9c0,0,0-2.3,0-2.3Z"/>
    <path class="cls-2" d="M706.5,226.7l-.2.8s-.3.5-.8.4c-.5-.2-.5-.6-.5-.6l1.8-7.2s.1-.6.6-.6c.4,0,.6.5.6.5l1.8,7.3s0,.5-.4.7c-.4.1-.7-.2-.7-.2l-1.2-5.7-.8,3.3h1.7s.3,1.4.3,1.4h-2.1Z"/>
    <path class="cls-5" d="M731.3,97.2v5.5c0,0-.2.7-.8.7s-.9-.7-.9-.7v-7.6c0,0,0-.7.6-.9.7-.2,1.1.2,1.1.2l3.7,5.6v-5.2c0,0,.2-.7.8-.7s.9.7.9.7v7.7c.1,0,.2.7-.6.9-.7.2-1.2-.4-1.2-.4l-3.2-5.1"/>
    <path class="cls-5" d="M740.8,95.6h-2.1s-.6-.2-.6-.8.5-.8.5-.8h6.1s.5.2.5.8c0,.5-.4.7-.4.7h-2.4s0,7,0,7c0,0-.3.7-.9.7s-.7-.8-.7-.8v-6.4c-.1,0,0-.4,0-.4Z"/>
    <path class="cls-5" d="M756.5,98c.2.1,2.7,0,3.1,0,.6-.2.9-.7.9-1.3s-.4-1-1.1-1.2c-.7-.2-3.2-.1-3.2-.1v-1.5s3.2,0,3.2,0c0,0,1.7.2,2.2,1.2.6,1.1.4,2.5.1,2.9-.4.8-1.2,1.2-1.2,1.2l1.4,2.9s.3.5,0,.9c-.4.3-1,0-1,0,0,0-1.6-3.3-2-3.4-.3-.1-2.4,0-2.4,0v2.9c-.1,0-.4.7-1,.6-.6,0-.7-.7-.7-.7,0,0-.2-7.3-.1-7.5,0-.7.2-.9.6-.9,0,0,1,0,1,0,0,0,0,4.1,0,4.2Z"/>
    <path class="cls-2" d="M1068,345.9h4.6s.5-.2.5-.8-.5-.7-.5-.7c0,0-4.8,0-5,0-.5,0-1,0-1,.4s0,7.6,0,7.8c0,.4.4.7.9.7s5.2-.1,5.2-.1c0,0,.5-.2.5-.7s-.5-.7-.5-.7h-4.5c0,0,0-2.4,0-2.4h2.6s.5-.2.5-.7-.5-.6-.5-.6h-2.7s0-2.2,0-2.2Z"/>
    <path class="cls-2" d="M1093.2,345.6h4.6s.5-.2.5-.8-.5-.7-.5-.7c0,0-4.8,0-5,0-.5,0-1,0-1,.4s0,7.6,0,7.8c0,.4.4.7.9.7s5.2-.1,5.2-.1c0,0,.5-.2.5-.7s-.5-.7-.5-.7h-4.5c0,0,0-2.4,0-2.4h2.6s.5-.2.5-.7-.5-.6-.5-.6h-2.7s0-2.2,0-2.2Z"/>
    <path class="cls-2" d="M1076.5,347.3v5.5c0,0-.2.7-.8.7s-.9-.7-.9-.7v-7.6c0,0,0-.7.6-.9.7-.2,1.1.2,1.1.2l3.7,5.6v-5.2c0,0,.2-.7.8-.7s.9.7.9.7v7.7c.1,0,.2.7-.6.9-.7.2-1.2-.4-1.2-.4l-3.2-5.1"/>
    <path class="cls-2" d="M1086,345.8h-2.1s-.6-.2-.6-.8.5-.8.5-.8h6.1s.5.2.5.8c0,.5-.4.7-.4.7h-2.4s0,7,0,7c0,0-.3.7-.9.7s-.7-.8-.7-.8v-6.4c-.1,0,0-.4,0-.4Z"/>
    <path class="cls-2" d="M1101.6,348.2c.2.1,2.7,0,3.1,0,.6-.2.9-.7.9-1.3s-.4-1-1.1-1.2c-.7-.2-3.2-.1-3.2-.1v-1.5s3.2,0,3.2,0c0,0,1.7.2,2.2,1.2.6,1.1.4,2.5.1,2.9-.4.8-1.2,1.2-1.2,1.2l1.4,2.9s.3.5,0,.9c-.4.3-1,0-1,0,0,0-1.6-3.3-2-3.4-.3-.1-2.4,0-2.4,0v2.9c-.1,0-.4.7-1,.6-.6,0-.7-.7-.7-.7,0,0-.2-7.3-.1-7.5,0-.7.2-.9.6-.9,0,0,1,0,1,0,0,0,0,4.1,0,4.2Z"/>
    <path class="cls-2" d="M33.3,347.6s-1.2-.2-1.5-.3c-.3,0-.9-.5-.8-1.1,0-.5.8-.7,1.2-.8.7-.1,1,0,1.4.1.5.1.7.6.9.7.2.2.8.3,1.2-.1.4-.5.3-1.1,0-1.4-.2-.3-.9-.9-1.5-1.1-.9-.2-1.7-.3-2.5-.2-1,.2-1.1.2-1.7.7-.6.5-.9.9-.9,1.6,0,.8,0,1,.2,1.8.3.7.8,1.1,1.2,1.3.7.3,1.7.3,2.2.5.4,0,1.3.3,1.5.5.3.3.3.7.2,1,0,.2-.5.6-.7.7-.3.1-1,.2-1.3.2-.4,0-1.3-.2-1.6-.5-.3-.3-.5-.6-.7-.7-.2-.2-.6-.3-1.1.1-.4.3-.3,1.1-.2,1.3.3.5.8.9,1.5,1.4.2.1.5.2.7.3.5.2,1,.2,1.6.1.8,0,1.6-.3,2.2-.7.7-.4,1.1-1.2,1.2-1.8.2-.6.1-1.3-.1-1.8-.3-.6-.9-1.2-1.7-1.4"/>
    <path class="cls-2" d="M39.2,347.5v-3.2s0-.9-.8-.9c-.7,0-.7.9-.7.9v8.1c0,0,0,1,.8,1,.8,0,.8-.9.8-.9v-3.2s4.1,0,4.1,0v3.3c0,0,0,.9.9.9.7,0,.7-.9.7-.9v-8.3c0,0,0-.7-.7-.8-.6,0-.8.8-.8.8v3.3s-4.2,0-4.2,0Z"/>
    <path class="cls-2" d="M46.9,348v-3.6c.1,0,.2-.9,1-.9.7,0,.7,1,.7,1v8s0,.8-.9.8c-.8,0-.9-.8-.9-.8v-3.8c0,0,0-.7,0-.7Z"/>
    <path class="cls-2" d="M52,347.5v-2.1c0,0,5,0,5,0,0,0,.9-.1.9-.9,0-.7-.8-.9-.8-.9,0,0-5,0-5.3,0-.8,0-1.2,0-1.2.7,0,.3,0,8.1,0,8.1,0,0-.1.9.8.9.8,0,.8-.8.8-.8v-3.2s3.5,0,3.5,0c0,0,.8-.1.9-.8,0-.7-.7-.9-.7-.9h-3"/>
    <path class="cls-2" d="M63.3,345.3h2s.8-.2.8-.8c0-.6-.7-.9-.7-.9h-5.9s-.6.2-.7.8c0,.5.7.8.7.8h2.1c0,.1,0,7.1,0,7.1,0,0,0,.8.7.8.7,0,.8-.8.8-.8v-6.4"/>
    <path class="cls-2" d="M164.3,348.2s-1.2-.2-1.5-.3c-.3,0-.9-.5-.8-1.1,0-.5.8-.7,1.2-.8.7-.1,1,0,1.4.1.5.1.7.6.9.7.2.2.8.3,1.2-.1.4-.5.3-1.1,0-1.4-.2-.3-.9-.9-1.5-1.1-.9-.2-1.7-.3-2.5-.2-1,.2-1.1.2-1.7.7-.6.5-.9.9-.9,1.6,0,.8,0,1,.2,1.8.3.7.8,1.1,1.2,1.3.7.3,1.7.3,2.2.5.4,0,1.3.3,1.5.5.3.3.3.7.2,1,0,.2-.5.6-.7.7-.3.1-1,.2-1.3.2-.4,0-1.3-.2-1.6-.5-.3-.3-.5-.6-.7-.7-.2-.2-.6-.3-1.1.1-.4.3-.3,1.1-.2,1.3.3.5.8.9,1.5,1.4.2.1.5.2.7.3.5.2,1,.2,1.6.1.8,0,1.6-.3,2.2-.7.7-.4,1.1-1.2,1.2-1.8.2-.6.1-1.3-.1-1.8-.3-.6-.9-1.2-1.7-1.4"/>
    <path class="cls-2" d="M170.2,348.1v-3.2s0-.9-.8-.9c-.7,0-.7.9-.7.9v8.1c0,0,0,1,.8,1,.8,0,.8-.9.8-.9v-3.2s4.1,0,4.1,0v3.3c0,0,0,.9.9.9.7,0,.7-.9.7-.9v-8.3c0,0,0-.7-.7-.8-.6,0-.8.8-.8.8v3.3s-4.2,0-4.2,0Z"/>
    <path class="cls-2" d="M177.8,348.6v-3.6c.1,0,.2-.9,1-.9.7,0,.7,1,.7,1v8s0,.8-.9.8c-.8,0-.9-.8-.9-.8v-3.8c0,0,0-.7,0-.7Z"/>
    <path class="cls-2" d="M183,348v-2.1c0,0,5,0,5,0,0,0,.9-.1.9-.9,0-.7-.8-.9-.8-.9,0,0-5,0-5.3,0-.8,0-1.2,0-1.2.7,0,.3,0,8.1,0,8.1,0,0-.1.9.8.9.8,0,.8-.8.8-.8v-3.2s3.5,0,3.5,0c0,0,.8-.1.9-.8,0-.7-.7-.9-.7-.9h-3"/>
    <path class="cls-2" d="M194.3,345.8h2s.8-.2.8-.8c0-.6-.7-.9-.7-.9h-5.9s-.6.2-.7.8c0,.5.7.8.7.8h2.1c0,.1,0,7.1,0,7.1,0,0,0,.8.7.8.7,0,.8-.8.8-.8v-6.4"/>
    <path class="cls-5" d="M749.6,346.7s-1.2-.2-1.5-.3c-.3,0-.9-.5-.8-1.1,0-.5.8-.7,1.2-.8.7-.1,1,0,1.4.1.5.1.7.6.9.7.2.2.8.3,1.2-.1.4-.5.3-1.1,0-1.4-.2-.3-.9-.9-1.5-1.1-.9-.2-1.7-.3-2.5-.2-1,.2-1.1.2-1.7.7-.6.5-.9.9-.9,1.6,0,.8,0,1,.2,1.8.3.7.8,1.1,1.2,1.3.7.3,1.7.3,2.2.5.4,0,1.3.3,1.5.5.3.3.3.7.2,1,0,.2-.5.6-.7.7-.3.1-1,.2-1.3.2-.4,0-1.3-.2-1.6-.5-.3-.3-.5-.6-.7-.7-.2-.2-.6-.3-1.1.1-.4.3-.3,1.1-.2,1.3.3.5.8.9,1.5,1.4.2.1.5.2.7.3.5.2,1,.2,1.6.1.8,0,1.6-.3,2.2-.7.7-.4,1.1-1.2,1.2-1.8.2-.6.1-1.3-.1-1.8-.3-.6-.9-1.2-1.7-1.4"/>
    <path class="cls-5" d="M755.6,346.6v-3.2s0-.9-.8-.9c-.7,0-.7.9-.7.9v8.1c0,0,0,1,.8,1,.8,0,.8-.9.8-.9v-3.2s4.1,0,4.1,0v3.3c0,0,0,.9.9.9.7,0,.7-.9.7-.9v-8.3c0,0,0-.7-.7-.8-.6,0-.8.8-.8.8v3.3s-4.2,0-4.2,0Z"/>
    <path class="cls-5" d="M763.2,347.1v-3.6c.1,0,.2-.9,1-.9.7,0,.7,1,.7,1v8s0,.8-.9.8c-.8,0-.9-.8-.9-.8v-3.8c0,0,0-.7,0-.7Z"/>
    <path class="cls-5" d="M768.4,346.5v-2.1c0,0,5,0,5,0,0,0,.9-.1.9-.9,0-.7-.8-.9-.8-.9,0,0-5,0-5.3,0-.8,0-1.2,0-1.2.7,0,.3,0,8.1,0,8.1,0,0-.1.9.8.9.8,0,.8-.8.8-.8v-3.2s3.5,0,3.5,0c0,0,.8-.1.9-.8,0-.7-.7-.9-.7-.9h-3"/>
    <path class="cls-5" d="M779.7,344.3h2s.8-.2.8-.8c0-.6-.7-.9-.7-.9h-5.9s-.6.2-.7.8c0,.5.7.8.7.8h2.1c0,.1,0,7.1,0,7.1,0,0,0,.8.7.8.7,0,.8-.8.8-.8v-6.4"/>
    <path class="cls-5" d="M566.1,346.8s-1.2-.2-1.5-.3c-.3,0-.9-.5-.8-1.1,0-.5.8-.7,1.2-.8.7-.1,1,0,1.4.1.5.1.7.6.9.7.2.2.8.3,1.2-.1.4-.5.3-1.1,0-1.4-.2-.3-.9-.9-1.5-1.1-.9-.2-1.7-.3-2.5-.2-1,.2-1.1.2-1.7.7-.6.5-.9.9-.9,1.6,0,.8,0,1,.2,1.8.3.7.8,1.1,1.2,1.3.7.3,1.7.3,2.2.5.4,0,1.3.3,1.5.5.3.3.3.7.2,1,0,.2-.5.6-.7.7-.3.1-1,.2-1.3.2-.4,0-1.3-.2-1.6-.5-.3-.3-.5-.6-.7-.7-.2-.2-.6-.3-1.1.1-.4.3-.3,1.1-.2,1.3.3.5.8.9,1.5,1.4.2.1.5.2.7.3.5.2,1,.2,1.6.1.8,0,1.6-.3,2.2-.7.7-.4,1.1-1.2,1.2-1.8.2-.6.1-1.3-.1-1.8-.3-.6-.9-1.2-1.7-1.4"/>
    <path class="cls-5" d="M572.1,346.7v-3.2s0-.9-.8-.9c-.7,0-.7.9-.7.9v8.1c0,0,0,1,.8,1,.8,0,.8-.9.8-.9v-3.2s4.1,0,4.1,0v3.3c0,0,0,.9.9.9.7,0,.7-.9.7-.9v-8.3c0,0,0-.7-.7-.8-.6,0-.8.8-.8.8v3.3s-4.2,0-4.2,0Z"/>
    <path class="cls-5" d="M579.7,347.1v-3.6c.1,0,.2-.9,1-.9.7,0,.7,1,.7,1v8s0,.8-.9.8c-.8,0-.9-.8-.9-.8v-3.8c0,0,0-.7,0-.7Z"/>
    <path class="cls-5" d="M584.8,346.6v-2.1c0,0,5,0,5,0,0,0,.9-.1.9-.9,0-.7-.8-.9-.8-.9,0,0-5,0-5.3,0-.8,0-1.2,0-1.2.7,0,.3,0,8.1,0,8.1,0,0-.1.9.8.9.8,0,.8-.8.8-.8v-3.2s3.5,0,3.5,0c0,0,.8-.1.9-.8,0-.7-.7-.9-.7-.9h-3"/>
    <path class="cls-5" d="M596.2,344.4h2s.8-.2.8-.8c0-.6-.7-.9-.7-.9h-5.9s-.6.2-.7.8c0,.5.7.8.7.8h2.1c0,.1,0,7.1,0,7.1,0,0,0,.8.7.8.7,0,.8-.8.8-.8v-6.4"/>
    <path class="cls-5" d="M166.4,166.3l-1.3-.8s-.6-.2-1,.2c-.5.6.2,1.1.2,1.1l1.1.7,2.6,1.8s.7.1,1-.3c.3-.5,0-.9,0-.9l-1.1-.9s.6-1.1.9-3c.3-2.2.1-4-.2-5.2-.2-.8-.8-2.3-1.5-3.1-.7-.7-2.5-1.9-4.8-.8-1.7.8-2.4,2.7-2.7,3.8-.4,1.4-.2,4,0,5.2.1.9.5,2.4,1,3.2.7,1,1.5,1.7,2.1,2,.8.3,2.1.3,2.8.1.5,0,1.8-.9,1.8-.9l-1.6-1.1s-.7.6-2.5-.2c-1.8-.8-2.1-3.6-2.2-4.8,0-1.2,0-2.6.2-3.4.3-.9.8-1.9,1.4-2.2.8-.5,1.5-.5,2.4-.3,1,.2,1.4,1,1.7,1.6.5,1.1.9,3.1.8,4.7-.2,1.9-.3,1.8-.4,2.4l-.5,1Z"/>
    <path class="cls-5" d="M214.3,162.7l1.6-7.1s.2-1,.8-1,.7.9.7.9l1.6,7.3,1.4-7.4s0-.9.8-.8c.6.1.6,1,.6,1l-1.7,12s-.1,1.3-.8,1.3-.9-1.3-.9-1.3l-1.7-7-1.5,7.4s0,.9-.9.9-1-1.1-1-1.1l-1.7-11.9s-.2-1,.7-1.2c.8-.1.9.7.9.7l1,6.9"/>
    <path class="cls-5" d="M266.1,160.8v-4.6s6.5,0,6.5,0c0,0,.7-.1.7-.8s-.7-.9-.7-.9c0,0-6.3,0-6.5,0-1.3,0-1.6.2-1.6,1.1s0,12.2,0,12.4c0,.8.2,1,.9,1s7.5,0,7.5,0c0,0,.8-.2.8-.8s-.9-.9-.9-.9h-6.6s0-4.6,0-4.6h5.1s.7-.3.7-.8-.6-.9-.6-.9h-3.9"/>
    <path class="cls-5" d="M318.8,156s1.9-.1,3,0c.9.2,1.8.6,2.2,1.1.3.4.4,1.4.3,1.9-.2.6-.9,1.6-1.7,1.8-.2,0-3.9,0-3.9,0v1.6s2.8,0,2.8,0l2.6,6.3s.5.5,1.1.2c.6-.3.6-.9.6-.9l-2.7-5.8s.9-.3,1.4-.7c.6-.5,1-1.3,1.2-1.8.3-.6.2-1.8.1-2.3,0-.5-.6-1.6-1-2-.4-.5-1.5-1-2.1-1.2-1.1-.3-4.3-.2-4.5-.2-.6,0-.8.4-.8.7,0,.2-.2,13-.2,13,0,0,0,1,.8,1s1-.9,1-.9v-10.5"/>
    <path class="cls-5" d="M374.7,156v12.3s-.1.8-.9.8-1-.8-1-.8l.2-12.3h-3.3c0,0-.8-.1-.8-.9,0-.7.7-.7.7-.7h8.3s.7.2.7.8-.7.8-.7.8h-2.9"/>
    <path class="cls-5" d="M426.5,160l2.9-5.1s.5-1,1.3-.6c.7.4.3,1.4.3,1.4l-3.5,5.8v6.8s-.3.8-1,.8-1-.9-1-.9v-6.7c0,0-3.6-5.9-3.6-5.9,0,0-.4-.8.2-1.3.6-.4,1.1.3,1.1.3l3.1,5.1"/>
    <path class="cls-5" d="M476.3,162.4v-6.7s0-1.4-.9-1.4-1,1.4-1,1.4c0,0,0,9.6,0,9.8.2,1.5,1.7,3,2.6,3.4,1,.4,2.8.3,3.7,0,.9-.3,2.2-2,2.3-3.3,0-.2-.1-9.9-.1-9.9,0,0,.1-1.4-.8-1.4s-.9,1.4-.9,1.4c0,0,0,9.2,0,9.3-.1.3-.8,2.6-2.5,2.5-1.5,0-2.4-2.1-2.5-2.5s0-1.4,0-1.4"/>
    <path class="cls-5" d="M530.5,160.6v-5.1c0,0,0-1.2.7-1.3.8,0,.7,1.2.7,1.2v12.1c0,0,.2,1.2-.7,1.2-.9,0-.8-1.2-.8-1.2v-5.6"/>
    <path class="cls-5" d="M580.4,161.7s0-1.9.1-2.6c.2-.7.6-1.9,1.1-2.4.4-.4,1.7-.9,2.3-.9.6,0,1.7.6,2.2,1,.4.4.8,1.5.9,2.1.1.6.2,2,.3,2.6,0,.6,0,1.8-.2,2.4-.1.6-.6,1.8-1,2.2-.4.4-1.6.9-2.2,1-.5,0-1.7-.4-2-.8-.5-.5-1-1.7-1.2-2.4-.1-.6-.2-2.4-.2-2.4h-1.5s0,2.1.2,2.8c.2.9,1,2.7,1.6,3.3.6.6,1.9,1.2,2.8,1.3,1.4,0,2.9-.5,3.5-1.2.6-.6,1.3-2.5,1.5-3.3.2-.9.2-3.7,0-5-.1-.8-.9-3.2-1.5-3.9-.6-.6-2-1.4-3.3-1.4s-2.6.7-3.2,1.3c-.7.7-1.3,2.1-1.6,3.3-.2.7,0,3,0,3h1.5Z"/>
    <path class="cls-5" d="M633.3,158.3v-2.6s2.8-.2,3.6,0c.5.1,1.2.6,1.5,1,.3.5.3,1.6.1,2.2-.2.5-1,1.2-1.5,1.4-.9.3-3.9.2-3.9.2v1.7s3.1.2,4.1,0c.9-.3,1.8-.8,2.5-1.7.5-.7.7-1.9.6-2.6,0-.8-.6-2.3-1.2-2.8-.4-.4-1.3-1-2.1-1.2-.2,0-4.1,0-4.2,0-1,0-1.1.2-1.1.7,0,.1,0,13.3,0,13.3,0,0,0,1,.8,1,.8,0,.9-1,.9-1v-8.6c0,0,0-1,0-1Z"/>
    <path class="cls-5" d="M178.1,219.9l1.7,6.3h-3.8s-.4,1.7-.4,1.7h4.6c0,0,.8,2.3,1.1,3.1.1.3.4.8,1,.6.6-.2.6-.7.5-1,0,0-3.6-12.9-3.6-13,0-.3-.2-.9-.9-1-.6,0-.9.6-1,.9,0,.1-3.8,12.6-3.8,12.8-.1.4,0,.8.5,1.1.6.3,1.1,0,1.2-.4,0-.1,2.4-8.3,2.4-8.3l.8-2.8Z"/>
    <path class="cls-5" d="M228,221.1c0-.5.2-.9.5-1.3.3-.5.9-.9,1.3-1,.5-.1,1.7,0,2.2.3.7.5.8,1,.9,1.4,0,.3,0,1.1,1,.9.9-.1.9-.7.8-1.1-.1-.8-.4-1.8-1.2-2.4-1-.8-2-1.1-3.4-1-.9,0-2,.6-2.6,1.3-.6.6-1.1,1.9-1.1,2.9s.6,2.6,1.3,3c1,.6,2.3,1,3.1,1.1.8.2,1.9.8,2.4,1.3.4.4.6,1.4.3,2-.2.5-1,1.3-1.5,1.4-.7.2-2.3.2-3.1-.2-.5-.2-1.1-1.2-1.3-1.7-.1-.3-.3-1.1-1.2-.8-1,.3-.6,1.4-.4,1.7.4.6,1.3,1.7,1.9,2.1.7.5,2.1.8,2.9.8.8,0,2.6-.5,3.2-1,.5-.4,1.2-1.7,1.4-2.4.1-.7,0-2.2-.5-2.8-.4-.6-1.6-1.5-2.2-1.8-.8-.3-2.5-.8-3.3-1-.4-.1-1.1-.9-1.1-1.3,0,0,0-.4,0-.5Z"/>
    <path class="cls-5" d="M279.7,219.2v-.9s2.4-.1,3.2.1c.9.3,2.3,1.5,2.8,2.6.4,1,.6,1.8.6,3.1,0,1.4-.5,2.4-1.2,3.5-.7,1.1-1.6,1.7-2.8,2-.7.1-2.8,0-2.8,0v1.6c-.1,0,3.1,0,3.2,0,.5,0,2.7-.8,3.8-2.7,1-1.7,1.3-2.7,1.3-4.3,0-1.6-.2-2.9-1-4.5-1-2-2.9-2.6-3.6-2.9-.1,0-3.7,0-3.9,0-.5,0-.9.1-.9.6,0,.1,0,12.8,0,13,0,.5,0,.9.4.9.2,0,.9,0,.9,0v-11.3s0-.7,0-.7Z"/>
    <path class="cls-5" d="M332.2,223.3v-4.9s4.8,0,6.3,0c.3,0,.8-.1.8-.8s-.4-.9-.9-.9c-.2,0-6.7,0-6.9,0-.6,0-1.1.3-1.1.7,0,.2,0,13,0,13,0,.3.1.9.7.9s.8-.5.8-.9c0,0,0-5.5,0-5.5,0,0,4.6,0,4.7,0,.3,0,.8-.2.8-.8s-.5-.8-.8-.8c-.1,0-4.1,0-4.1,0"/>
    <path class="cls-5" d="M390.8,225.4h-2.2s-.9,0-.9-.9c0-.8.8-.8.8-.8,0,0,2.7,0,3,0,.8,0,1,.3,1,.9,0,.3,0,6.1,0,6.1,0,0,0,.8-.8.8-.7,0-.8-1-.8-1v-.2s-1.4,1.1-2.9,1.2c-1.2,0-2.7-.5-3.4-1.1-1.1-1.1-1.6-3.2-1.8-4.4-.2-1.3,0-2.9.1-4.3.2-1.2.7-2.5,1.5-3.4,1-1.2,1.9-1.4,2.8-1.6,1-.2,2.2,0,3.1.6,1.1.6,1.5,1.5,2,2.4.2.3.5,1-.2,1.5-.6.5-1.1-.1-1.3-.4-.3-.4-.8-1.4-1.2-1.7-.5-.4-1.4-.5-2.4-.3-1,.2-1.7,1.1-2,1.8-.3.7-.6,1.6-.7,2.7,0,1,0,3,.2,3.9.2.9,1.1,2.4,2,2.6.7.2,2,.1,2.5-.2.7-.4,1.2-1.1,1.5-1.6.2-.4.2-1.4.3-1.9"/>
    <path class="cls-5" d="M443.5,223.2h-6.1s0-5.6,0-5.6c0,0,0-.9-.7-.9s-.7.8-.7.8v13s.2.8.7.8.7-.7.7-.7v-5.8s6,0,6,0v5.9s0,.8.7.8.7-.8.7-.8v-13c0,0-.1-.8-.8-.8s-.7.9-.7.9v5s0,.6,0,.6Z"/>
    <path class="cls-5" d="M495.6,227.4c0-.2,0-7.4,0-9.8,0-.3,0-1,.9-.9.8,0,.8.6.8.9,0,2.6-.2,10.2-.2,10.4-.2.8-1.1,2.3-1.8,2.8-.6.5-2.3.8-3.1.8-.8,0-2.3-.9-2.8-1.5-.6-.8-.8-2-.9-2.8,0,0-.2-1,.6-1.1.6-.2.8.5.8.8,0,.4.2,1.3.5,1.7.4.6,1.3,1.3,2.3,1.4.9,0,1.4-.4,2.1-.8,0,0,.6-.6.6-.7,0,0,.2-.6.2-.9Z"/>
    <path class="cls-5" d="M542.5,221.9v-4.6c0,0,.2-1.1-.8-1.1-.9,0-.9,1.1-.9,1.1v12.8c0,0,0,1,.8,1,.7,0,.8-.9.8-.9v-5c.1,0,5.6,5.4,5.6,5.4,0,0,.7.9,1.4.3.7-.6-.2-1.5-.2-1.5l-5.6-5.8,5.7-5.5s.7-.8.2-1.5c-.5-.7-1.5.2-1.5.2l-5.3,4.9"/>
    <path class="cls-5" d="M595,229.4l.2-12.1s0-1-.9-1c-.9,0-.9,1-.9,1,0,0,0,12.2,0,12.5,0,.7.1,1.2.8,1.4.2,0,6.9,0,6.9,0,0,0,.8,0,.8-.8,0-.8-.9-.9-.9-.9h-5.7"/>
    <path class="cls-5" d="M650.4,217.2h2.8c0,0,.7-.2.7-.8s-.7-.8-.7-.8h-2.9v-2.8s-.1-.7-.7-.7-.7.7-.7.7v2.8s-2.9,0-2.9,0c0,0-.6.2-.5.8,0,.5.6.8.6.8h3s0,2.8,0,2.8c0,0,0,.7.7.7s.7-.7.7-.7v-2.6s0-.2,0-.2Z"/>
    <path class="cls-5" d="M647.9,227c0-1,.8-1.8,1.8-1.8s1.8.8,1.8,1.8-.8,1.8-1.8,1.8-1.8-.8-1.8-1.8Z"/>
    <path class="cls-5" d="M648.1,232.7c0-.9.8-1.7,1.7-1.7s1.7.8,1.7,1.7-.8,1.7-1.7,1.7-1.7-.8-1.7-1.7Z"/>
    <path class="cls-5" d="M649.4,233.6s-.1.5-.3,1.2c0,.4-.7,1.2-.7,1.2,0,0-.3.5,0,.6.6.2,1.2,0,1.3-.2.4-.3,1-1.2,1.3-1.7.2-.4.5-1.6.5-1.6l-1.8.3s-.1,0-.4.1Z"/>
    <path class="cls-5" d="M152.7,280.3s-6,12-6.1,12.2c-.3.7,0,1.5.7,1.5s6.9,0,6.9,0c0,0,.8,0,.8-.8s-.9-.8-.9-.8h-5.8s6.1-12.3,6.2-12.5c.3-.5,0-1.2-.7-1.2-.2,0-6.4,0-6.4,0,0,0-.8,0-.8.9s1,.8,1,.8h4.5c0,0,.6,0,.6,0Z"/>
    <path class="cls-5" d="M203.5,283.6l2.4-4.8s.4-.7,1.1-.4c.6.3.4,1.1.4,1.1l-3,6,3.3,6.7s.4.8-.2,1.2c-.6.4-1.2-.3-1.2-.3l-2.7-5.8-2.5,5.8s-.5.7-1.1.4c-.7-.4-.4-1.2-.4-1.2l3.1-6.9-2.7-5.8s-.4-1,.3-1.3c.7-.3,1.1.5,1.1.5l2,4.2"/>
    <path class="cls-5" d="M252.3,285.5s0-.4,0-.5c0-.9.3-2.7.7-3.5.4-.7,1.4-1.7,2.6-1.7s1.9.4,2.4.9c.5.6.8,1.4.9,2,0,.3,0,.9.7,1,.8,0,.8-.6.7-.9,0-.8-.6-2.2-1.2-3.1-.8-1-1.9-1.3-3.1-1.4-1.6,0-2.7.6-3.6,1.5-.9.8-1.1,2-1.4,3.3-.3,1.2-.3,3.6-.2,4.8.1,1.2.7,3.1,1.8,4.4.8,1,2,1.3,2.8,1.3,1.3,0,2.3,0,3.4-1,.9-.8,1.2-2,1.5-2.8,0-.3.2-.9-.5-1.1-.7-.2-.9.4-1,.7-.1.4-.4,1.2-.9,1.7-.7.7-1.7,1-2.9.7-1.2-.3-1.6-.8-2.1-2.1-.7-1.9-.6-3.6-.6-3.6"/>
    <path class="cls-5" d="M308,290.1l3-10.9s0-1.1,1.1-.8c.9.2.5,1.2.5,1.2l-3.6,12.9s-.1,1.2-1,1.1c-.9,0-1-1.2-1-1.2l-3.8-12.8s-.4-.9.5-1.2c.9-.3,1.1.8,1.1.8l3,10.4"/>
    <path class="cls-5" d="M357.3,284.8s3.3,0,3.5,0c.4-.1.9-.4,1.3-.7.6-.5.7-1.1.7-1.7s-.2-1.3-.8-1.8c-.5-.4-1-.7-1.3-.7-.2,0-3.5,0-3.5,0v-1.7s2.9-.2,3.8,0c.7.2,1.7.6,2.4,1.5.5.6.7,1.3.8,2.1,0,.5,0,1.6-.3,2-.3.5-1.1,1.3-1.1,1.3,0,0,1.1,1,1.4,1.4.3.5.7,1.2.8,2.1,0,.9.1,1.4-.3,2.2-.4.8-.5,1.1-1.3,1.7-.7.6-1.2.7-1.8.8-1,.2-4.3.2-4.3.2v-1.7s2.8.1,3.7,0c.6-.1,1.1-.3,1.4-.8.5-.6.7-1,.7-1.9,0-.9-.3-1.6-.7-2.1-.3-.3-1-.9-1.5-1-.3,0-3.7-.1-3.7-.1v7.7c0,0-.9,0-.9,0-.3,0-.6-.2-.6-.8,0,0-.1-13.6-.1-13.7,0-.7.3-1,.7-.9,0,0,.7,0,.7,0v6.7Z"/>
    <path class="cls-5" d="M415.1,288.5v-.8s0-8.5,0-8.5c0,0-.1-1.2.8-1.2s.8,1.3.8,1.3l.3,12.8s.1,1.2-.7,1.3c-.9.1-1.2-1-1.2-1l-4.9-9.8.2,9.9s-.2,1-.9,1c-.8,0-.9-1-.9-1v-13.1c0,0-.2-1.1.5-1.2.8-.1,1.1.7,1.1.7l4.2,8.4"/>
    <path class="cls-5" d="M465.5,287.2l3.6-8.5s.4-1,1-.9c.6,0,.6.9.6.9l.3,13.7s0,.9-.7.9-.8-.8-.8-.8v-10.2c0,0-3.1,7.2-3.1,7.2,0,0-.3.7-.8.7s-.8-.7-.8-.7l-3-6.9v10.2c0,0,0,.7-.7.7s-.8-.7-.8-.7l-.2-13.8s0-.8.5-.8c.5,0,.9.5.9.5l3.8,8.2"/>
    <path class="cls-5" d="M515.6,278.1h0c0,0,6.4-4.4,6.4-4.4,0,0,.5-.3.2-.9-.4-.6-1.1-.2-1.1-.2l-6.6,4.4s-.7.3-.7,1.1c0,.7.7,1.1.7,1.1l6.7,4.7s.8.4,1.2-.2c.4-.5,0-1.1,0-1.1l-6.3-4.3"/>
    <circle class="cls-5" cx="518.3" cy="291.3" r="2.5"/>
    <path class="cls-5" d="M517.7,292.7s0,1.1,0,1.4c-.1.5-.4,1-.6,1.4-.1.2-.7.9-.8,1.2,0,.1-.2.7,0,.9.2.2,1.1,0,1.4,0,.3-.2,1-1.3,1.3-1.9,0-.1.6-1.2.8-1.6.2-.4.8-1.4.6-1.7-.1-.2-1.1,0-1.1,0l-1,.3"/>
    <path class="cls-5" d="M573.2,277.9l-6.4,4.4s-.6.7-.2,1.3c.3.4,1.1.2,1.1.2l6.3-4.6s.8-.4.9-1.1c0-.6-.8-1.2-.8-1.2l-6.1-4.4s-.8-.5-1.2,0c-.4.5.2,1.1.2,1.1l5.7,4.1.4.3Z"/>
    <path class="cls-5" d="M568.4,291.3c0-1.3,1-2.3,2.3-2.3s2.3,1,2.3,2.3-1,2.3-2.3,2.3-2.3-1-2.3-2.3Z"/>
    <path class="cls-5" d="M625.2,275.2c0-.3-.1-.7-.6-1-.5-.3-.9-.3-1.7-.4-.7,0-1.1,0-1.7.5-.5.4-.6,1-.6,1v1c0,0,.4.7,0,1-.6.5-1.1-.3-1.1-.3,0,0-.5-.5-.5-1.4,0-.9.1-1.6,1.2-2.4.9-.6,1.1-.8,2.3-.9,1,0,1.9.2,2.5.5.8.4,1.2.8,1.6,1.8.2.8,0,1.7-.3,2.4-.4.7-1,1-1.4,1.2-.3.1-.9.2-1.1.4-.1.1-.2.4-.2.6,0,.2,0,.5,0,.6,0,.2,0,.5-.6.5-.6,0-.6-.4-.7-.6-.2-.3-.1-1.1,0-1.5,0-.3.4-1,.6-1.1.3-.2,1-.2,1.3-.3.3,0,.7-.4.9-.6.1-.1.3-.7.3-.7"/>
    <circle class="cls-5" cx="622.9" cy="282.9" r="1.3"/>
    <path class="cls-5" d="M621.6,292.3l3.1-6.1s.5-.7,1.2-.4c.7.3.6,1.2.6,1.2l-5.4,11.1s-.5.7-1.3.5c-.8-.3-.4-1.3-.4-1.3l2-4.3.3-.6Z"/>
    <path class="cls-5" d="M113.1,160.3h1.7s.5,0,.7-.4c.2-.4-.1-.9-.1-.9l-2.6-4.5s-.3-.6-.7-.6c-.4,0-.8.8-.8.8l-2.6,4.5s-.3.3-.1.8c.2.4.6.4.6.4h1.9s-.1,9.1-.1,9.1c0,0,.1.9,1,.9.9,0,1.1-.9,1.1-.9v-8.7s0-.3,0-.3Z"/>
    <path class="cls-5" d="M868.1,160.3v-1.7s0-.5-.4-.7c-.4-.2-.9.1-.9.1l-4.5,2.6s-.6.3-.6.7c0,.4.8.8.8.8l4.5,2.6s.3.3.8.1c.4-.2.4-.6.4-.6v-1.9s9.1.1,9.1.1c0,0,.9-.1.9-1,0-.9-.9-1.1-.9-1.1h-8.7s-.3,0-.3,0Z"/>
    <path class="cls-5" d="M923.8,162.4v1.7s0,.5.4.7c.4.2.9-.1.9-.1l4.5-2.6s.6-.3.6-.7c0-.4-.8-.8-.8-.8l-4.5-2.6s-.3-.3-.8-.1c-.4.2-.4.6-.4.6v1.9s-9.1-.1-9.1-.1c0,0-.9.1-.9,1,0,.9.9,1.1.9,1.1h8.7s.3,0,.3,0Z"/>
    <path class="cls-5" d="M124.6,226.1h-1.7s-.5,0-.7.4c-.2.4.1.9.1.9l2.6,4.5s.3.6.7.6c.4,0,.8-.8.8-.8l2.6-4.5s.3-.3.1-.8c-.2-.4-.6-.4-.6-.4h-1.9s.1-9.1.1-9.1c0,0-.1-.9-1-.9-.9,0-1.1.9-1.1.9v8.7s0,.3,0,.3Z"/>
    <path class="cls-2" d="M695.7,226.7v-6.5c0,0,0-.7-.5-.7-.7,0-.6.8-.6.8,0,0,0,6.7,0,6.9,0,.6.1.8.6.8,0,0,3,0,3,0,0,0,.5-.1.5-.6,0-.5-.5-.6-.5-.6h-2"/>
    <path class="cls-2" d="M690.3,223.4s0-.7.1-1c0-.3.2-.8.4-1.1,0-.2.3-.5.6-.5s.7.3.8.5c0,.2,0,.7,0,.7,0,0,.1.6.6.5.5-.1.4-.7.4-.7,0,0,0-.7-.3-1.3-.3-.5-.7-.9-1.3-1-.7-.1-1.5.3-1.8.6-.5.4-.7,1.6-.9,2.2-.1.6,0,2,0,2.6,0,.6.3,1.6.7,2.1.2.3.8.8,1.4.9.4,0,1.1-.2,1.5-.7.5-.5.5-1.6.5-1.6,0,0,0-.7-.4-.8-.6-.1-.7.5-.7.5,0,0,0,.6-.2.8-.1.2-.4.5-.7.5s-.7-.9-.9-1.4c-.1-.6-.1-1.4-.1-1.4"/>
    <path class="cls-2" d="M1175.7,349.1v3.3c-.1,0-.4.4-.7.3-.4,0-.5-.4-.5-.4v-7.9c0,0,1.3,0,1.3,0v1.3s0,2.3,0,2.3c0,0,.8,0,1.1,0,.2-.1.4-.3.5-.6.2-.3.2-.8,0-1.2-.2-.4-.6-.4-.8-.5-.3-.1-.8,0-.8,0v-1.3s1.3,0,1.9.3c.5.3.7.9.8,1.2,0,.3.1.9,0,1.3,0,.4-.1.7-.5,1.1-.3.3-.6.5-.6.5l.4,1.2.6,1.8s.1.6-.3.8c-.5.2-.8-.3-.8-.3l-.7-3s-.2-.2-.3-.2h-.5Z"/>
    <path class="cls-2" d="M1161.3,349.2v-4c0,0,0-.8.7-.8.6,0,.6.8.6.8v6.5s.1.7-.4.8c-.6.2-.9-.5-.9-.5l-1.9-4.4v4.4c0,0-.2.4-.7.4-.5,0-.6-.5-.6-.5v-6.8s0-.8.6-.8c.6,0,.7.4.7.4l1.6,3.7.3.6Z"/>
    <path class="cls-2" d="M1154.1,345.8h2.5s.6,0,.6-.6c0-.6-.5-.7-.5-.7,0,0-2.7-.1-2.9,0-.5,0-.9.2-.9.6,0,.2,0,6.8,0,7,0,.4.3.6.8.6.2,0,2.9,0,2.9,0,0,0,.5-.4.5-.8,0-.5-.5-.8-.5-.8h-2.4s0-1.7,0-1.7h1.9s.4-.2.4-.7c0-.4-.4-.6-.4-.6h-1.9c0,0,0-2.2,0-2.2Z"/>
    <path class="cls-2" d="M1170.1,345.8h2.5s.6,0,.6-.6c0-.6-.5-.7-.5-.7,0,0-2.7-.1-2.9,0-.5,0-.9.2-.9.6,0,.2,0,6.8,0,7,0,.4.3.6.8.6.2,0,2.9,0,2.9,0,0,0,.5-.4.5-.8,0-.5-.5-.8-.5-.8h-2.4s0-1.7,0-1.7h1.9s.4-.2.4-.7c0-.4-.4-.6-.4-.6h-1.9c0,0,0-2.2,0-2.2Z"/>
    <path class="cls-2" d="M1166.3,345.6v6.6c0,0-.1.5-.6.5s-.6-.4-.6-.4v-6.5c0,0-1,0-1,0,0,0-.4,0-.4-.5s.4-.5.4-.5h3.1c0,0,.4,0,.4.5,0,.5-.4.5-.4.5h-.8"/>
    <circle class="cls-5" cx="1111.8" cy="286.2" r="2.2"/>
    <path class="cls-5" d="M1163.3,284.4c0-.3,0-.4.2-.7.2-.3.4-.4.5-.4.2,0,.7,0,.9.2.3.3.2.4.2.6,0,.2.2.6.6.5.4,0,.4-.4.4-.6,0-.5-.2-1-.5-1.3-.5-.4-.9-.6-1.5-.6-.4,0-1,.3-1.3.6-.2.3-.6,1.1-.6,1.7s.4,1.5.7,1.8c.4.4,1,.5,1.3.6.3,0,.7.5.9.7.2.2.3.5.1.9,0,.3-.3.6-.5.7-.3.1-.7.1-1.1,0-.2-.1-.4-.6-.5-.9,0-.2-.3-.5-.7-.4-.4.1-.3.8-.2.9.2.3.6,1,.8,1.2.3.3.9.5,1.3.4.4,0,1.1-.3,1.4-.5.2-.2.5-.9.6-1.3,0-.4,0-1.2-.2-1.6-.2-.3-.7-.8-1-1-.4-.2-1-.5-1.4-.6-.2,0-.4-.4-.4-.7,0,0,0-.3,0-.3Z"/>
    <path class="cls-5" d="M1175.6,283.2v6.8s-.3.4-.6.4-.6-.4-.6-.4v-6.7c0,0-1.2,0-1.2,0,0,0-.4-.3-.3-.7,0-.4.3-.6.3-.6h3.6s.3.2.3.6-.4.6-.4.6h-1.2Z"/>
    <path class="cls-5" d="M1153,286.8v3.4s-.3.4-.7.4c-.4,0-.6-.4-.6-.4v-8s1.2,0,1.2,0v1.3s0,2.4,0,2.4c0,0,.8,0,1.1-.1.2-.1.4-.3.5-.6.2-.4.1-.8,0-1.2-.2-.4-.6-.4-.9-.5-.3,0-.8,0-.8,0v-1.3s1.3,0,1.8.2c.5.3.8.9.9,1.2,0,.3.1.9.1,1.4,0,.4,0,.8-.4,1.1-.3.3-.6.5-.6.5l.5,1.2.6,1.8s.1.6-.2.8c-.5.3-.8-.3-.8-.3l-.8-3.1s-.2-.2-.3-.2h-.5Z"/>
    <path class="cls-5" d="M1158,283.4h2.5s.6,0,.6-.6-.5-.7-.5-.7c0,0-2.7,0-2.9,0-.5,0-.9.2-.9.6s0,6.8,0,7c0,.4.3.6.8.6h2.9s.5-.4.5-.8-.5-.8-.5-.8h-2.4s0-1.7,0-1.7h1.9s.4-.2.4-.7-.4-.6-.4-.6h-1.9s0-2.2,0-2.2Z"/>
    <path class="cls-5" d="M1169,283.3h2.5s.6,0,.6-.6-.5-.7-.5-.7c0,0-2.7,0-2.9,0-.5,0-.9.2-.9.6s0,6.8,0,7c0,.4.3.6.8.6h2.9s.5-.4.5-.8-.5-.8-.5-.8h-2.4s0-1.7,0-1.7h1.9s.4-.2.4-.7-.4-.6-.4-.6h-1.9s0-2.2,0-2.2Z"/>
    <path class="cls-5" d="M689.2,163.7s.8.9,1,1.1c.4.3,1.3.4,1.7.3.4,0,1.2-.7,1.4-1.1.2-.3.4-1.2.5-1.6.1-.9,0-2.9-.3-3.8-.3-.9-1.5-2.4-2.2-3-.7-.6-2.3-1-3.6-1s-2.7.7-3.4,1.2c-.6.5-1.2,1.4-1.7,2.5-.6,1.3-.6,2.9-.4,4.1.2,1.2.7,2.6,1.5,3.6.7.9,2.2,1.6,3.1,1.8.8.2,2.4.1,3.1-.1.3,0,.7-.3.6-.9,0-.7-.5-.8-.8-.9-.4,0-.9.2-1.6.1-.6,0-1.5-.2-2.2-.6-.8-.4-1.5-1.3-1.7-1.9-.5-1-.4-2.4-.3-3.2,0-.9.6-2.1,1.1-2.7.6-.7,1.3-1.2,1.9-1.4.2,0,.5-.1.9-.1.6,0,1.2,0,1.9.3,1,.4,1.6,1.2,1.9,1.8.4.6.6,1.7.7,2.5,0,.5,0,1.9-.4,2.2-.2.2-.7.2-.9.1-.2-.1-.5-.6-.5-.9,0-.3.2-.9.3-1.2,0-.4.2-1.2.1-1.6-.1-.4-.7-1.1-1.1-1.3-.4-.2-1.3-.3-1.7-.2-.5.1-1.2.9-1.6,1.2-.3.4-.9,1.3-1,1.7-.2.5-.3,1.5-.2,2,.1.4.7,1.2,1,1.4.3.3,1.1.5,1.5.4.5,0,1.8-1.2,1.8-1.2l-1.1-1.1s-.6.4-.8.5c-.2,0-.7,0-.8-.3-.1-.4,0-.9,0-1.1,0-.3.4-.8.6-1.1.2-.3.7-.8,1-.9.2,0,.6,0,.8,0,.2.1.2.6.2.8,0,.3-.2.8-.5,1.3-.2.5-.6.9-.6.9"/>
    <path class="cls-5" d="M108.8,287v3.4c0,0-.3.4-.7.3-.4,0-.6-.4-.6-.4v-8.1s1.2,0,1.2,0v1.3s0,2.4,0,2.4c0,0,.8,0,1.1,0,.2-.1.4-.3.5-.6.2-.4.2-.8,0-1.2-.2-.4-.6-.4-.8-.5-.3-.1-.8,0-.8,0v-1.3s1.3,0,1.9.3c.5.3.8.9.8,1.2,0,.3.1.9.1,1.4,0,.4-.1.8-.4,1.1-.3.3-.6.5-.6.5l.4,1.2.6,1.8s.1.6-.3.8c-.5.2-.8-.3-.8-.3l-.8-3.1s-.2-.2-.3-.2h-.5Z"/>
    <path class="cls-5" d="M97.7,283.6h2.5s.6,0,.6-.6c0-.6-.5-.7-.5-.7,0,0-2.7-.1-2.9,0-.5,0-.9.2-.9.6,0,.2,0,7,0,7.2,0,.4.3.6.8.6.2,0,2.9,0,2.9,0,0,0,.5-.4.5-.9,0-.5-.5-.9-.5-.9h-2.4s0-1.8,0-1.8h1.9s.4-.2.4-.7c0-.4-.4-.7-.4-.7h-1.9c0,0,0-2.3,0-2.3Z"/>
    <path class="cls-5" d="M103.2,289.4l-.2.8s-.3.5-.8.4c-.5-.2-.5-.6-.5-.6l1.8-7.2s.1-.6.6-.6c.4,0,.6.5.6.5l1.8,7.3s0,.5-.4.7c-.4.1-.7-.2-.7-.2l-1.2-5.7-.8,3.3h1.7s.3,1.4.3,1.4h-2.1Z"/>
    <path class="cls-5" d="M92.5,289.5v-6.5c0,0,0-.7-.5-.7-.7,0-.6.8-.6.8,0,0,0,6.7,0,6.9,0,.6.1.8.6.8,0,0,3,0,3,0,0,0,.5-.1.5-.6,0-.5-.5-.6-.5-.6h-2"/>
    <path class="cls-5" d="M87.1,286.2s0-.7.1-1c0-.3.2-.8.4-1.1,0-.2.3-.5.6-.5s.7.3.8.5c0,.2,0,.7,0,.7,0,0,.1.6.6.5.5-.1.4-.7.4-.7,0,0,0-.7-.3-1.3-.3-.5-.7-.9-1.3-1-.7-.1-1.5.3-1.8.6-.5.4-.7,1.6-.9,2.2-.1.6,0,2,0,2.6,0,.6.3,1.6.7,2.1.2.3.8.8,1.4.9.4,0,1.1-.2,1.5-.7.5-.5.5-1.6.5-1.6,0,0,0-.7-.4-.8-.6-.1-.7.5-.7.5,0,0,0,.6-.2.8-.1.2-.4.5-.7.5s-.7-.9-.9-1.4c-.1-.6-.1-1.4-.1-1.4"/>
    <path class="cls-5" d="M649.2,98.8v-3.6s.1-.3.3-.4c.4-.1.8,0,.8,0v1.4c0,0-.1,2.1-.1,2.1,0,0,.7.1,1.1-.1.4-.3.6-.6.6-1.2s-.4-.7-.8-.8c-.4-.1-1,0-1,0v-1.4s1.1,0,1.4,0c.3,0,.7.3,1,.7.3.5.4.5.5,1,.1.5.2,1,0,1.4-.2.5-.6.8-.6.8,0,0,.6.4.9,1,.2.5.1,1.2,0,1.6-.1.4-.6,1.1-1,1.3-.5.2-2.2.2-2.2.2v-1.3c0,0,1.3.1,1.7-.1.3-.2.5-.6.4-1,0-.6-.6-.9-.8-1-.4,0-1.2,0-1.2,0v2.2s0,1.2,0,1.2c0,0-.5,0-.7,0-.1,0-.4-.4-.4-.4v-3.6s0-.2,0,0Z"/>
    <path class="cls-5" d="M656,99.2v3.2s-.3.4-.7.3c-.4,0-.6-.4-.6-.4v-7.8c0,0,1.2,0,1.2,0v1.3s0,2.3,0,2.3c0,0,.8,0,1.1,0,.2-.1.4-.3.5-.6.2-.3.2-.8,0-1.1-.2-.3-.6-.4-.8-.5-.3,0-.8,0-.8,0v-1.3s1.3,0,1.9.2c.5.3.8.8.8,1.2,0,.3.1.9.1,1.3,0,.4-.1.7-.4,1.1-.3.3-.6.5-.6.5l.4,1.2.6,1.8s.1.6-.3.8c-.5.2-.8-.3-.8-.3l-.8-3s-.2-.2-.3-.2h-.5Z"/>
    <path class="cls-5" d="M661.1,96h2.5s.6,0,.6-.6c0-.5-.5-.7-.5-.7,0,0-2.7-.1-2.9,0-.5,0-.9.2-.9.6,0,.2,0,6.7,0,6.9,0,.4.3.6.8.6.2,0,2.9,0,2.9,0,0,0,.5-.4.5-.8,0-.5-.5-.8-.5-.8h-2.4s0-1.7,0-1.7h1.9s.4-.2.4-.7c0-.4-.4-.6-.4-.6h-1.9c0,0,0-2.2,0-2.2Z"/>
    <path class="cls-5" d="M666.6,101.6l-.2.8s-.3.5-.8.3c-.5-.1-.5-.6-.5-.6l1.8-6.9s.1-.5.6-.5c.4,0,.6.5.6.5l1.8,7s0,.5-.4.6c-.4.1-.7-.2-.7-.2l-1.2-5.5-.8,3.2h1.7s.3,1.3.3,1.3h-2.1Z"/>
    <path class="cls-2" d="M975.8,97.3h1.7s.5,0,.7-.4c.2-.4-.1-.9-.1-.9l-2.6-4.5s-.3-.6-.7-.6c-.4,0-.8.8-.8.8l-2.6,4.5s-.3.3-.1.8c.2.4.6.4.6.4h1.9s-.1,9.1-.1,9.1c0,0,.1.9,1,.9.9,0,1.1-.9,1.1-.9v-8.7s0-.3,0-.3Z"/>
    <path class="cls-2" d="M973.6,163.1h-1.7s-.5,0-.7.4c-.2.4.1.9.1.9l2.6,4.5s.3.6.7.6c.4,0,.8-.8.8-.8l2.6-4.5s.3-.3.1-.8c-.2-.4-.6-.4-.6-.4h-1.9s.1-9.1.1-9.1c0,0-.1-.9-1-.9-.9,0-1.1.9-1.1.9v8.7s0,.3,0,.3Z"/>
    <path class="cls-2" d="M868.1,98v-1.7s0-.5-.4-.7c-.4-.2-.9.1-.9.1l-4.5,2.6s-.6.3-.6.7c0,.4.8.8.8.8l4.5,2.6s.3.3.8.1c.4-.2.4-.6.4-.6v-1.9s9.1.1,9.1.1c0,0,.9-.1.9-1,0-.9-.9-1.1-.9-1.1h-8.7s-.3,0-.3,0Z"/>
    <path class="cls-2" d="M924.1,100.1v1.7s0,.5.4.7c.4.2.9-.1.9-.1l4.5-2.6s.6-.3.6-.7c0-.4-.8-.8-.8-.8l-4.5-2.6s-.3-.3-.8-.1c-.4.2-.4.6-.4.6v1.9s-9.1-.1-9.1-.1c0,0-.9.1-.9,1,0,.9.9,1.1.9,1.1h8.7s.3,0,.3,0Z"/>
    <path class="cls-2" d="M33.5,39.9s-1.1.9-1.1.9c-.7.5-1.7-.7-1-1.2,0,0,1.9-1.5,2-1.5.7-.5,1.6-.1,1.6.6s.3,10.2.3,10.3c0,.8-1.7,1-1.7,0v-9Z"/>
    <circle class="cls-2" cx="33.2" cy="35.3" r="1.1"/>
    <path class="cls-2" d="M32.3,28.9s.2,3.1.2,3.2c0,.7,1.5.8,1.5,0,0-.1.4-6,.4-6.1,0-1.4-2.2-1.5-2.2,0"/>
    <path class="cls-2" d="M136.8,49.2s4-3.9,4.1-4.2c.7-1.2.6-3.1.1-4-.5-1-1.8-1.8-3-1.9-.9,0-2.1.2-3,1.2-.8.9-1.1,2.4-.9,3,.2.6,1.1.9,1.5.3.4-.5-.2-1.1.5-2,.2-.4.7-.8,1.7-.8.7,0,1.5.3,1.8.9.6,1,.2,2.1.2,2.1,0,0-5.3,5.4-5.5,5.6-.5.6-.1,1.2.5,1.3.3,0,5.7-.1,5.9-.1.9,0,.9-1.4-.1-1.4h-3.9Z"/>
    <path class="cls-2" d="M134.7,29.3s-.3-2.1-.3-2.2c-.1-.6.4-1,1.5-1s1.5.5,1.4,1.1c0,.1-.6,4.5-.6,4.7-.1.8-1.3,1-1.5,0"/>
    <path class="cls-2" d="M138.3,29.3s-.3-2.2-.3-2.3c-.1-.6.3-.9,1.4-.9s1.3.5,1.3,1.1c0,.1-.6,4.5-.6,4.7-.1.8-1.1.8-1.3,0"/>
    <path class="cls-2" d="M192.8,44.9s1.2,1.2,1.1,2.8c0,1.4-1.2,2.4-1.9,2.8-.7.5-2.8.6-3.6.1-.8-.4-2-1-2.1-2.9,0-.2,0-.9.6-1.1.5-.2.9.2.9.2,0,0,0,1.4.9,2.1.8.6,1.7.3,2.3,0,.7-.3,1.1-1.1,1.2-1.5,0-.4-.4-1.3-.7-1.6-.4-.3-1.7-.2-1.7-.2,0,0-.6-.1-.6-.8s.5-.8.5-.8c0,0,1,0,1.6-.2.8-.2,1.1-1,.9-1.8-.1-.6-.8-1-1.4-1.3-.6-.3-1.5-.1-2,.3-.6.5-.9,1.7-.9,1.7,0,0-.3.4-.8.4-.5,0-.6-.6-.6-.6,0,0,.2-2,1.2-2.9,1.1-1,3-.8,4-.5.7.2,2,1,2.2,2.5.3,1.9-.9,3-.9,3"/>
    <path class="cls-2" d="M243.4,42.5l-2.7,4.1h4.4s.7,0,.7,0c0,0,.5.2.5.7,0,.5-.4.7-.4.7h-.9v2s-.2.5-.7.5c-.5,0-.7-.4-.7-.4v-2s-4,0-4,0c0,0-.4-.1-.6-.4-.3-.4-.1-.9-.1-.9l4.8-7.8s.2-.4.7-.4c.4,0,.6.5.6.5v7.7c.1,0-1.4,0-1.4,0v-4.2Z"/>
    <path class="cls-2" d="M243.2,34.1s.6,0,.8,0c.2,0,.5-.2.5-.8,0-.5-.2-.8-.5-.8-.6-.2-2,0-2.7-.2-.4,0-1.2-.5-1.5-.9-.3-.3-.5-1.1-.5-1.5,0-.6.5-1.5,1-1.8.5-.3,1.7-.5,1.7-.5v-1.4s0-.6.7-.6c.5,0,.7.5.7.5v1.5s.7,0,1.3.4c.5.3.9,1,.9,1,0,0,.3.7,0,1.1-.3.4-.8.2-.8.2,0,0-.3-.7-1-1-.7-.3-.7-.4-1.4-.3-.6,0-1.1.2-1.3.6-.3.6.2,1.1.2,1.1,0,0,2.1,0,2.9.2.8.2,1.4.6,1.6,1.1.2.5.4,1.7.2,2.2-.2.4-.8,1.1-1.2,1.2-.3.1-1.2,0-1.2,0v1.4s-.2.7-.7.7-.7-.6-.7-.6v-1.4s-1,0-1.8-.6c-.6-.4-1-1.3-1-1.3,0,0,0-.5.3-.7.4-.3.9,0,.9,0,0,0,.7.9,1,1.1.4.1.7,0,.9,0h1Z"/>
    <path class="cls-2" d="M187.5,31.1h-.9s-.5-.3-.5-.7.4-.7.4-.7h1s0-1.6,0-1.6c0,0,.2-.6.8-.6.6,0,.7.5.7.5v1.6c0,0,2.2,0,2.2,0v-1.3s0-.6.7-.6.7.5.7.5v1.4s1.2,0,1.2,0c0,0,.3.2.3.7s-.3.8-.3.8h-1.1s0,2,0,2h1s.4.1.4.7-.4.6-.4.6h-1.1s0,1.3,0,1.3c0,0-.2.7-.7.7s-.7-.6-.7-.6v-1.3s-2.2,0-2.2,0v1.2s-.2.7-.7.7-.7-.6-.7-.6v-1.1s-.9,0-.9,0c0,0-.6-.2-.5-.7,0-.6.4-.7.4-.7h4.7s0-2,0-2h-2.3s0,2,0,2h-1.5s0-2,0-2Z"/>
    <path class="cls-2" d="M293,40.5v1.9s1.1-.4,2.4-.3c1.1.1,2,.8,2.7,1.5.5.5.9,2,.9,2.9s-.6,2.2-1.2,2.8c-.5.5-1.9,1.2-2.7,1.2-.9,0-1.9-.5-2.6-.9-.3-.2-.9-.7-1-1,0-.2,0-.8.2-1,.1-.2.6-.3.8-.2.4,0,1,.7,1.3.9.3.2.9.4,1.5.3.8-.1,1.4-.6,1.7-1.3.4-.7.4-1.6,0-2.2-.4-.7-.9-1.1-1.8-1.3-.8-.2-1.6.3-2.1.7-.2.2-.3.6-.9.5-.7,0-.8-.6-.8-.6v-4.7c0,0,0-.6.2-.8.1-.1.7-.2.7-.2h5.6c0,0,.7,0,.7.8s-.6.9-.6.9h-4.6"/>
    <path class="cls-2" d="M372.2,43.5v-1.2s1-1.3,1.5-1.4c.7-.1,1.5,0,1.9.5.2.2,1,.9,1,.9,0,0,.2.5.9.2.6-.3.3-1,.3-1,0,0-.7-1.2-1.1-1.5-.6-.5-1.5-1.3-3.1-1.2-2.2.2-3.3,3-3.3,3.1-.2,1,0,5.5,0,5.5,0,0,0,1.2,1.2,2.2.4.3,1.3.8,2.3,1,.8.2,2-.2,2.5-.5.7-.4,1.4-1.3,1.6-2.9.2-1.7-.5-2.6-1.1-3.1-.5-.5-1.1-.9-2.6-1-1.2,0-2.2.6-2.2.6v2.2s1.2-.9,1.2-.9h2.1c0-.1.9.8.9.8v1.2s-.3,1-.3,1l-1.7.8-1.9-1.1s-.1-1.2-.1-1.5v-2.8Z"/>
    <path class="cls-2" d="M378.1,33.9l.3-2.4s.1-.7-.6-.9c-.6-.2-.8.4-.8.4l-.6,2-2.1-1.9s-1-.8-1.3-1.1c-.2-.2-.7-.7-.8-1-.2-.3-.5-1.1-.3-1.5.1-.3.6-.7.9-.8.3,0,1.2-.2,1.5-.1.3,0,.8.3,1,.5.2.2.3.8.2,1.1-.2.4-.7.8-1,1-.3.2-1.4.9-1.4.9l1.1,1s1.6-.7,2-1.1c.4-.4,1-1.3,1-1.9,0-.6-.2-1.7-.6-2.1-.4-.4-1.4-.9-1.9-1-.5,0-1.7,0-2.2,0-.6.2-1.6.3-2,1.2-.5.9-.4,2-.2,2.6.2.4,1.1,1.5,1.1,1.5v.4s-.6,0-1.2.4c-.3.3-.5.8-.7,1.4,0,.3-.1.8,0,1.3,0,.4.4,1.2.7,1.5.3.3,1.3.8,1.7.9.5.2,1.6.4,2.1.4.5,0,1.4,0,2.1-.4.8-.4,1.1-1.1,1.1-1.1l-1.1-1.1s-.9.5-1.2.6c-.4.1-1.2.3-1.5.2-.5,0-1.6-.5-2-.8-.2-.2-.5-.8-.4-1.1,0-.3.6-.8.9-.8.3,0,.9,0,1.2,0,.3.1,1,.6,1.2.8.2.2.6.5.8.7.5.4,2,1.6,2,1.6l1.8.9h0s.5,0,.8-.6c.2-.6-.3-1.1-.3-1.1l-1.3-.6Z"/>
    <path class="cls-2" d="M291.8,27.9s.5-.6.7-.7c.3-.1.6-.1.8,0,.4.3.4.7.3,1.1,0,.3-.4.8-.6.9-.4.2-.4.2-.7.2s-.4,0-.5-.2c-.3-.3-.3-.4-.3-.9,0-.4.5-.8.5-.8l-.8-.9s-.8.8-.9,1.1c-.1.3,0,.9,0,1.3,0,.4,0,.4.3.8.2.3.4.5.7.6.4.1.7.2,1.1.2s.6,0,1-.3c.2-.2.5-.4.7-.8.2-.3.4-.6.4-.9,0-.4,0-.7,0-1.1,0-.4-.3-.9-.7-1.3-.4-.3-1.1-.4-1.4-.4-.2,0-.7.1-.9.3-.3.1-.8.7-.8.7"/>
    <path class="cls-2" d="M297,34.2s.5-.6.7-.7c.3-.1.6-.1.8,0,.4.3.4.7.3,1.1,0,.3-.4.8-.6.9-.4.2-.4.2-.7.2s-.4,0-.5-.2c-.3-.3-.3-.4-.3-.9,0-.4.5-.8.5-.8l-.8-.9s-.8.8-.9,1.1c-.1.3,0,.9,0,1.3,0,.4,0,.4.3.8.2.3.4.5.7.6.4.1.7.2,1.1.2s.6,0,1-.3c.2-.2.5-.4.7-.8.2-.3.4-.6.4-.9,0-.4,0-.7,0-1.1,0-.4-.3-.9-.7-1.3-.4-.3-1.1-.4-1.4-.4-.2,0-.7.1-.9.3-.3.1-.8.7-.8.7"/>
    <path class="cls-2" d="M294.4,31.2l3.9-4.6s.4-.3.9,0c.4.3.3,1,.3,1l-7.6,8.9s-.6.2-1-.1c-.4-.4-.2-1-.2-1l3.5-3.8"/>
    <path class="cls-2" d="M428.6,40.5l-3.3,8.6s-.7.8.3,1.3c.9.4,1.3-.6,1.3-.6l3.4-9.3s.5-.8.1-1.4c-.3-.5-1-.5-1-.5h-5.9c0,0-.8.2-.8,1,0,.8.8,1,.8,1h4.3"/>
    <path class="cls-2" d="M425.5,27.9s.5-1.7.7-1.9c.2-.2,2.8-.3,3,0,.6.6-3.1,5.5-3.1,5.5,0,0-.6.5-1.1.4-.6-.1-.5-1-.5-1l1-3Z"/>
    <path class="cls-2" d="M481.8,44.4s1.5-1,1-3.2c-.5-2.6-2.9-2.6-3.5-2.6-.5,0-3.1-.3-3.6,3-.3,2.1,1.3,3,1.3,3l1.2-1-.8-.6s-.3-.2-.3-1,.3-1.5,2.1-1.5,2,1.1,2,1.4c0,.1-.1,1.1-.6,1.3-.4.2-1,.5-1.6.4-.6,0-1.4-.2-1.4-.2l-1,.9s-1.2,1.2-1.1,3.2c.1,2.7,2.7,3.1,4.2,3,1.9,0,3.3-1.5,3.5-3.3.1-1.5-1.5-3.1-1.5-3.1l-1.4.9s1.1.9,1.1,2-.9,1.7-2.1,1.7-2.3-.4-2.3-1.6c0-1.9,1.8-1.9,2.1-1.9.7,0,1.5,0,1.5,0"/>
    <path class="cls-2" d="M480.4,27.6l.9-.5s.6-.3.2-1.1c-.4-.7-1.1-.4-1.1-.4,0,0-1.6.9-2.4,1.9-1,1.2-1.3,2.4-1.4,3.8,0,1.3.7,3.3,1.4,4.2.7,1,2.3,1.8,2.3,1.8,0,0,1.1.4,1.5-.3.5-.8-.6-1.4-.6-1.4,0,0-1.2-.3-1.9-1.2-.8-1-1.2-1.8-1.1-3.1,0-1,.5-2.1,1-2.7,0,0,1.4-1.1,1.1-1Z"/>
    <path class="cls-2" d="M534.1,42.9s0-.8,0-1c0-.4-.3-1.2-.6-1.4-.3-.3-1.3-.6-1.7-.6-.6,0-1.5.3-2,1.1-.3.4-.3,1.3,0,1.9.3.6,1.1,1.3,2.3,1.1.9-.1,2.2-1.1,2.2-1.1l.2,1.5s-1.1,1-2,1.2c-.8.2-1.5,0-2.3-.4-.8-.4-1.2-.7-1.7-1.5-.5-.9-.6-2-.4-2.7.2-.7.8-1.9,1.4-2.3.7-.5,1.6-.8,2.5-.6.8.1,1.6.5,2,.8.5.5,1.2,1.6,1.3,2.2.2.9,0,2.2,0,3.1s0,2.5-.1,3.1c-.2.6-.8,1.4-1.3,1.8-.5.4-1.8.7-2.4.7-.6,0-1.8-.3-2.3-.7-.7-.5-1.4-1.9-1.2-1.4,0,.1-.3-.8.1-1.2.4-.3.8-.2,1,0,.3.3.4.8.9,1.1.5.4,1.1.6,1.8.5.7,0,.9-.1,1.4-.6s.7-1,.7-1.4v-3.2Z"/>
    <path class="cls-2" d="M530.3,27.3l-.3-.2s-.6-.5-.3-1.1c.3-.5.8-.5,1-.4.9.5,2.4,1.4,3.2,3.3.6,1.4.5,3.9,0,5.1-.7,1.6-2.6,3-2.6,3,0,0-1,.3-1.4,0-.4-.4,0-1.1.2-1.3.5-.5,1.5-.7,2.2-1.7.3-.5.6-1.6.7-2.5,0-1-.6-2.5-1.2-3,0,0-1.8-1.3-1.6-1.1Z"/>
    <path class="cls-2" d="M609.6,45.3c0-.8,0-3.3,0-3.6.3-.4.8-1.1,1.3-1.3.5-.2,1.7-.3,2.2,0,.4.2.8,1,.9,1.4,0,.2.1,5,0,5.1-.2.6-.5,1-1.2,1.3-.5.2-1.5.2-1.5.2v1.7s1.5,0,2-.2c.4-.2,1.2-.7,1.4-1.1.3-.4.8-1.4.9-1.9.2-1.3.1-4-.1-5.3-.1-.9-.3-1.5-1-2.2s-1.1-.9-1.6-1.1c-.5-.1-1.6-.2-2.1,0-.4.1-1.3.6-1.6.9-.4.4-1,1.3-1.3,2.2-.4,1.4.2,5.4.2,5.4,0,0,.2,1.3,1.2,2.3.8.8,2.2,1,2.2,1v-1.7c0,0-1.2-.5-1.5-1,0,0-.5-.8-.5-2.2Z"/>
    <path class="cls-2" d="M611.8,42.9l3-4.8s.6-.6,1.1-.2c.5.4.3,1,.3,1l-7.3,11.9s-.7.4-1.2,0c-.5-.5-.3-1.2-.3-1.2l4.1-6.3"/>
    <path class="cls-2" d="M662.4,40.9c0-1.1.9-1.9,1.9-1.9,1.1,0,1.9.9,1.9,1.9,0,1.1-.9,1.9-1.9,1.9s-1.9-.9-1.9-1.9Z"/>
    <path class="cls-2" d="M662.4,46.5c0-1.1.9-1.9,1.9-1.9,1.1,0,1.9.9,1.9,1.9,0,1.1-.9,1.9-1.9,1.9s-1.9-.9-1.9-1.9Z"/>
    <path class="cls-2" d="M663.4,32l-2,1.9s-.9.3-1.2-.2c-.3-.4,0-1.1,0-1.1l3-2.1-3.1-2.2s-.3-.7,0-1.1c.3-.4,1-.2,1-.2l2.3,2.1v-2.4c0,0,.4-.6.9-.6.5,0,.7.6.7.6v2.4s2.6-2.2,2.6-2.2c0,0,.6-.2,1,0,.4.3,0,1.1,0,1.1l-3,2.1,2.9,2.2s.4.7,0,1.1c-.3.5-1.1.3-1.1.3l-2.6-2v2.3s-.3.7-.8.7c-.5,0-.7-.7-.7-.7v-2.4"/>
    <path class="cls-2" d="M716.4,43.8h5s.9.1.9.7-.9.9-.9.9l-9.9.2s-.9,0-.9-.9.9-.9.9-.9h4.2"/>
    <path class="cls-2" d="M718,32.2h2.3s.9,0,.9.8c0,.9-1,.9-1,.9h-6.9c0,.1-.9,0-.9-.7s.8-1,.8-1h4s.7,0,.7,0Z"/>
    <path class="cls-2" d="M717.9,27.4h2.3s.9,0,.9.8c0,.9-1,.9-1,.9h-6.9c0,.1-.9,0-.9-.7s.8-1,.8-1h4s.7,0,.7,0Z"/>
    <path id="path4735-3-5-7-2" data-name="path4735-3-5-7" class="cls-2" d="M778,37.5v-3.4s.1-.5.7-.5c.6,0,.6.5.6.5v2.2s1.3-1.5,1.8-2.3c.3-.4.7-.5.9-.3.2.1.2.6.1.8-.6,1.1-2.1,3-2.1,3l1.7,2.7s.6,1,0,1.3c-.4.3-.8,0-1-.4-.6-.8-1.6-2.3-1.6-2.3v2.4s-.2.4-.6.4-.7-.4-.7-.4v-3.4s0-.4,0-.4h0Z"/>
    <path id="path2925-4-5-9" class="cls-2" d="M635.6,347.4s0-.7.1-1c0-.3.2-.8.4-1.1,0-.2.3-.5.6-.5s.7.3.8.5c0,.2,0,.7,0,.7,0,0,.2.6.7.5.5-.1.5-.7.5-.7,0,0,0-.7-.3-1.3-.3-.5-.7-.9-1.3-1-.7-.1-1.5.3-1.8.5-.5.4-.7,1.5-.9,2.2-.1.6,0,2,0,2.6,0,.6.3,1.6.7,2.1.2.2.8.8,1.3.9.4,0,1.1-.2,1.5-.7.5-.5.5-1.6.5-1.6,0,0,0-.7-.4-.8-.6-.1-.7.5-.7.5,0,0,0,.6-.2.8-.1.2-.4.5-.7.5s-.8-.9-.8-1.4c-.1-.6-.1-1.5-.1-1.5"/>
    <path id="path2961-3-4-1" class="cls-2" d="M653.8,345.9c0-.3,0-.4.2-.7.2-.3.3-.4.5-.4.2,0,.7,0,.9.2.3.3.2.4.2.6,0,.2.2.6.6.5.4,0,.4-.4.4-.6,0-.5-.2-1-.5-1.3-.5-.5-.9-.6-1.5-.6-.4,0-1,.3-1.3.6-.2.3-.6,1.1-.6,1.7s.4,1.5.7,1.8c.4.4,1,.5,1.3.6.3,0,.7.5.9.7.2.2.3.5.1.9,0,.3-.3.6-.5.7-.3.1-.7.1-1.1,0-.2-.1-.4-.6-.5-.9,0-.2-.3-.5-.7-.4-.4.1-.3.8-.2,1,.2.3.6,1,.8,1.2.3.3.9.5,1.3.4.4,0,1.1-.2,1.4-.5.2-.2.5-.9.6-1.3,0-.4,0-1.2-.2-1.6-.2-.3-.7-.8-1-1s-1-.5-1.4-.6c-.2,0-.4-.4-.4-.7,0,0,0-.3,0-.3h0Z"/>
    <path id="path2975-9-8" class="cls-2" d="M648.4,348.3v3.2s-.3.4-.7.3c-.4,0-.5-.4-.5-.4v-7.8s1.2,0,1.2,0v3.6s.8,0,1.1,0c.2-.1.4-.3.5-.6.2-.4.2-.8,0-1.1-.2-.3-.6-.4-.8-.5-.3-.1-.8,0-.8,0v-1.3s1.3,0,1.8.2c.5.3.8.8.8,1.2,0,.3.1.9,0,1.3,0,.4-.2.7-.5,1-.8.7-1.3.7-2.2.7h0Z"/>
    <path id="path2979-3-1" class="cls-2" d="M642,350.7l-.2.8s-.3.5-.8.4c-.5-.1-.5-.6-.5-.6l1.8-6.9s.2-.5.6-.5c.4,0,.5.5.5.5l1.8,7s0,.5-.4.6c-.4.1-.7-.2-.7-.2l-1.2-5.5-.8,3.2h1.7s.3,1.3.3,1.3h-2.1s0,0,0,0Z"/>
    <path class="cls-2" d="M863,36v-4s3.9,0,5.2,0c.2,0,.7,0,.7-.6s-.3-.7-.7-.7c-.1,0-5.6,0-5.7,0-.5,0-.9.2-.9.6,0,.1,0,10.7,0,10.8,0,.2.1.8.6.8s.7-.4.7-.8c0,0,0-4.6,0-4.6,0,0,3.8,0,3.9,0,.2,0,.7-.1.7-.7s-.4-.7-.7-.7c0,0-3.4,0-3.4,0"/>
    <path class="cls-2" d="M915.5,36v-4s3.9,0,5.2,0c.2,0,.7,0,.7-.6s-.3-.7-.7-.7c-.1,0-5.6,0-5.7,0-.5,0-.9.2-.9.6,0,.1,0,10.7,0,10.8,0,.2.1.8.6.8s.7-.4.7-.8c0,0,0-4.6,0-4.6,0,0,3.8,0,3.9,0,.2,0,.7-.1.7-.7s-.4-.7-.7-.7c0,0-3.4,0-3.4,0"/>
    <path class="cls-2" d="M968,36.1v-4s3.9,0,5.2,0c.2,0,.7,0,.7-.6s-.3-.7-.7-.7c-.1,0-5.6,0-5.7,0-.5,0-.9.2-.9.6,0,.1,0,10.7,0,10.8,0,.2.1.8.6.8s.7-.4.7-.8c0,0,0-4.6,0-4.6,0,0,3.8,0,3.9,0,.2,0,.7-.1.7-.7s-.4-.7-.7-.7c0,0-3.4,0-3.4,0"/>
    <path class="cls-2" d="M875.5,32.7s-1,.9-1,.9c-.6.6-1.5-.8-.9-1.3,0,0,1.7-1.5,1.8-1.6.6-.5,1.4,0,1.4.6,0,0,0,10.6,0,10.7,0,.9-1.5,1-1.5,0v-9.3Z"/>
    <path class="cls-2" d="M927.2,41.1s4-4.1,4.1-4.3c.7-1.2.6-3.3.2-4.2-.5-1.1-1.7-1.9-2.9-2-.9,0-2,.1-3,1.2-.8.9-1.1,2.5-1,3.2.2.6,1.1,1,1.5.3.4-.5-.2-1.1.5-2.1.2-.4.7-.8,1.7-.9.7,0,1.4.4,1.8,1,.5,1,.2,2.2.2,2.2,0,0-5.3,5.6-5.5,5.8-.5.6-.2,1.3.5,1.4.3,0,5.5,0,5.8,0,.9,0,1-1.5,0-1.5h-3.9Z"/>
    <path class="cls-2" d="M983,36.6s1.2,1.2,1.1,2.9c0,1.4-1.1,2.4-1.8,2.9-.7.5-2.7.6-3.5.1-.8-.4-1.9-1-2-2.9,0-.2,0-.9.5-1.1.5-.2.9.2.9.2,0,0,0,1.4.8,2.1.8.6,1.7.4,2.2.1.7-.3,1-1.1,1.1-1.6,0-.4-.3-1.3-.7-1.6-.3-.3-1.7-.2-1.7-.2,0,0-.5-.1-.5-.8s.5-.8.5-.8c0,0,.9,0,1.5-.2.7-.3,1-1,.9-1.8-.1-.7-.8-1-1.3-1.3-.6-.3-1.5-.1-2,.3-.6.5-.9,1.7-.9,1.7,0,0-.3.5-.8.4-.5,0-.6-.6-.6-.6,0,0,.2-2,1.2-3,1.1-1.1,2.9-.8,3.8-.5.7.2,1.9,1,2.1,2.5.3,2-.9,3-.9,3"/>
    <path id="path2923-5-1" class="cls-1" d="M121.2,351.4v-6.5c0,0,0-.7-.5-.7-.7,0-.6.8-.6.8v6.9c0,.6.2.8.6.8,0,0,3,0,3,0,0,0,.5-.1.5-.6,0-.5-.5-.6-.5-.6h-2"/>
    <path id="path3021-3-27" class="cls-1" d="M110.2,345.7h1.4s.5-.1.5-.7-.5-.7-.5-.7h-4s-.5,0-.5.6.5.8.5.8c.5,0,.8,0,1.5,0v6.7c0,0,0,.3.4.3.5,0,.5-.3.5-.3v-6"/>
    <path id="path3043-7-0" class="cls-1" d="M115.2,349v3.4s-.3.4-.7.4c-.4,0-.5-.4-.5-.4v-8.1s1.2,0,1.2,0v1.4s0,2.4,0,2.4c0,0,.8,0,1.1,0,.2-.1.4-.3.5-.6.2-.4.2-.8,0-1.2-.2-.4-.6-.4-.8-.5-.3-.1-.8,0-.8,0v-1.3s1.3,0,1.8.2c.5.3.8.9.8,1.2,0,.4.1.9,0,1.4,0,.4-.1.8-.4,1.1-.3.3-.6.5-.6.5l.4,1.2.6,1.8s.1.6-.2.8c-.5.2-.8-.3-.8-.3l-.8-3.1s-.2-.2-.3-.2h-.5Z"/>
    <path id="path3051-6-9" class="cls-1" d="M102.6,348.1s0-.7.1-1c0-.3.2-.8.4-1.1,0-.2.3-.5.6-.5s.7.3.8.5c0,.2,0,.7,0,.7,0,0,.2.6.7.5.5-.1.5-.7.5-.7,0,0,0-.7-.3-1.3-.3-.5-.7-.9-1.3-1-.7-.1-1.5.3-1.8.5-.5.4-.7,1.5-.9,2.2-.1.6,0,2,0,2.6,0,.6.3,1.6.7,2.1.2.2.8.8,1.3.9.4,0,1.1-.2,1.5-.7.5-.5.5-1.6.5-1.6,0,0,0-.7-.4-.8-.6-.1-.7.5-.7.5,0,0,0,.6-.2.8-.1.2-.4.5-.7.5s-.8-.9-.8-1.4c-.1-.6-.1-1.5-.1-1.5"/>
    <path class="cls-5" d="M869.8,359v-2.3s.2-.4.8-.4c.6,0,.9.4.9.4v4.5c0,0,0,.4-.8.4-.9,0-.8-.4-.8-.4v-1.9"/>
    <path class="cls-5" d="M869.8,353.3v-2.3s.2-.4.8-.4c.6,0,.9.4.9.4v4.5c0,0,0,.4-.8.4-.9,0-.8-.4-.8-.4v-1.9"/>
    <path class="cls-5" d="M923.2,278.1h0c0,0,4.3,6.5,4.3,6.5,0,0,.3.5.9.2.6-.4.2-1.1.2-1.1l-4.4-6.6s-.3-.7-1.1-.7c-.7,0-1.1.7-1.1.7l-4.7,6.7s-.4.8.2,1.2c.5.4,1.1,0,1.1,0l4.3-6.3"/>
    <path class="cls-5" d="M871.9,341.8l-3.1-6.1s-.5-.7-1.2-.4c-.7.3-.6,1.2-.6,1.2l5.4,11.1s.5.7,1.3.5c.8-.3.4-1.3.4-1.3l-2-4.3-.3-.6Z"/>
    <path class="cls-5" d="M924.6,335.3s-2.7-.1-2.9,0c-.1.2,0,11.9,0,12.1,0,0,2.8,0,2.9,0,.2,0,.2-.8,0-1s-1.5,0-1.5,0c-.1-.2-.1-9.9,0-10,0,0,1.3,0,1.6,0,0,0,.2-.5,0-1Z"/>
    <path class="cls-5" d="M974.2,335.3s2.7-.1,2.9,0c.1.2,0,11.9,0,12.1,0,0-2.8,0-2.9,0-.2,0-.2-.8,0-1s1.5,0,1.5,0c.1-.2.1-9.9,0-10,0,0-1.3,0-1.6,0,0,0-.2-.5,0-1Z"/>
    <path class="cls-5" d="M925,349.6c0-.1-1.4,0-2,.5-.6.6-.7,1.8-.6,2.5,0,.6.3,1.8,0,2.2-.3.7-1,.4-1.1.5-.2.1-.3.7,0,.9.1.1.9-.1,1.2.6.2.5,0,1.9-.2,2.4-.1.9,0,1.8.7,2.3.7.5,1.9.5,2,.4.2,0,.1-.8,0-1-.1,0-.9,0-1.3-.6-.4-.8,0-2.3,0-3.4,0-1.1-1.1-1.3-1.1-1.3,0,0,1.1,0,1.2-1.6,0-.8-.5-2.1,0-3,.3-.6,1.1-.6,1.2-.7,0,0,.3-.5,0-1Z"/>
    <path class="cls-5" d="M973.8,349.6c0-.1,1.4,0,2,.5.6.6.7,1.8.6,2.5,0,.6-.3,1.8,0,2.2.3.7,1,.4,1.1.5.2.1.3.7,0,.9-.1.1-.9-.1-1.2.6-.2.5,0,1.9.2,2.4.1.9,0,1.8-.7,2.3-.7.5-1.9.5-2,.4-.2,0-.1-.8,0-1,.1,0,.9,0,1.3-.6.4-.8,0-2.3,0-3.4,0-1.1,1.1-1.3,1.1-1.3,0,0-1.1,0-1.2-1.6,0-.8.5-2.1,0-3-.3-.6-1.1-.6-1.2-.7,0,0-.3-.5,0-1Z"/>
    <path class="cls-5" d="M917,295.9c0,0-.3-2.2,1.3-3.3.9-.6,2.1-.5,2.8-.3.8.2,2.4,1,3.2,1.4.8.3,2.1.9,2.9.5.8-.5.7-1.9.8-1.9.2-.2,1.1-.3,1.5,0s0,1.5-.3,2.2c-.2.5-.7,1.1-1.7,1.5-1.2.4-2.8-.2-4-.8-1.5-.7-2.5-1.5-3.9-1.2-1,.2-.9,2-1,2,0,0-.8.5-1.5,0Z"/>
    <path class="cls-5" d="M697.9,353.3h3.6s.7.1.7.7-.6.9-.6.9l-7.2.2s-.6,0-.6-.9.7-.9.7-.9h3"/>
    <path class="cls-5" d="M697.9,339.8h3.6s.7.1.7.7-.6.9-.6.9l-7.2.2s-.6,0-.6-.9.7-.9.7-.9h3"/>
    <path class="cls-5" d="M698.7,349.2h2.8c0,0,.7-.2.7-.8s-.7-.8-.7-.8h-2.9v-2.8s-.1-.7-.7-.7-.7.7-.7.7v2.8s-2.9,0-2.9,0c0,0-.6.2-.5.8,0,.5.6.8.6.8h3s0,2.8,0,2.8c0,0,0,.7.7.7s.7-.7.7-.7v-2.6s0-.2,0-.2Z"/>
    <path class="cls-5" d="M1218.1,89s-.5-1.7-.7-1.9c-.2-.2-2.8-.3-3,0-.6.6,3.1,5.5,3.1,5.5,0,0,.6.5,1.1.4.6-.1.5-1,.5-1l-1-3Z"/>
    <path class="cls-5" d="M1217.9,106.9s.8.9,1,1.1c.4.3,1.3.4,1.7.3.4,0,1.2-.7,1.4-1.1.2-.3.4-1.2.5-1.6.1-.9,0-2.9-.3-3.8-.3-.9-1.5-2.4-2.2-3-.7-.6-2.3-1-3.6-1s-2.7.7-3.4,1.2c-.6.5-1.2,1.4-1.7,2.5-.6,1.3-.6,2.9-.4,4.1.2,1.2.7,2.6,1.5,3.6.7.9,2.2,1.6,3.1,1.8.8.2,2.4.1,3.1-.1.3,0,.7-.3.6-.9,0-.7-.5-.8-.8-.9-.4,0-.9.2-1.6.1-.6,0-1.5-.2-2.2-.6-.8-.4-1.5-1.3-1.7-1.9-.5-1-.4-2.4-.3-3.2,0-.9.6-2.1,1.1-2.7.6-.7,1.3-1.2,1.9-1.4.2,0,.5-.1.9-.1.6,0,1.2,0,1.9.3,1,.4,1.6,1.2,1.9,1.8.4.6.6,1.7.7,2.5,0,.5,0,1.9-.4,2.2-.2.2-.7.2-.9.1-.2-.1-.5-.6-.5-.9,0-.3.2-.9.3-1.2,0-.4.2-1.2.1-1.6-.1-.4-.7-1.1-1.1-1.3-.4-.2-1.3-.3-1.7-.2-.5.1-1.2.9-1.6,1.2-.3.4-.9,1.3-1,1.7-.2.5-.3,1.5-.2,2,.1.4.7,1.2,1,1.4.3.3,1.1.5,1.5.4.5,0,1.8-1.2,1.8-1.2l-1.1-1.1s-.6.4-.8.5c-.2,0-.7,0-.8-.3-.1-.4,0-.9,0-1.1,0-.3.4-.8.6-1.1.2-.3.7-.8,1-.9.2,0,.6,0,.8,0,.2.1.2.6.2.8,0,.3-.2.8-.5,1.3-.2.5-.6.9-.6.9"/>
  </g>
</svg>