<?xml version="1.0" encoding="UTF-8"?>
<svg xmlns="http://www.w3.org/2000/svg" version="1.1" viewBox="0 0 1255.28 388">
  <defs>
    <style>
      .cls-1 {
        fill: #000;
      }

      .cls-1, .cls-2 {
        stroke-width: 0px;
      }

      .cls-3 {
        stroke: #ec2127;
      }

      .cls-3, .cls-4, .cls-5 {
        fill: none;
      }

      .cls-3, .cls-4, .cls-5, .cls-6 {
        stroke-linecap: round;
        stroke-linejoin: round;
      }

      .cls-3, .cls-4, .cls-6 {
        stroke-width: .5px;
      }

      .cls-4, .cls-5 {
        stroke: #ed1c24;
      }

      .cls-5 {
        stroke-width: .5px;
      }

      .cls-2 {
        fill: #fff;
      }

      .cls-6 {
        fill: #b7b7b7;
        stroke: #e8222f;
      }
    </style>
  </defs>
  <g id="Background">
    <rect class="cls-6" width="1255.28" height="388"/>
  </g>
  <g id="Keys">
    <path class="cls-5" d="M94.84,176.89c0,2.71,1.93,4.9,4.3,4.9h25.8c2.38,0,4.31-2.2,4.31-4.9v-29.69c0-2.7-1.93-4.89-4.31-4.89h-25.8c-2.38,0-4.3,2.19-4.3,4.89v29.69Z"/>
    <path class="cls-5" d="M147.01,176.89c0,2.71,1.93,4.9,4.3,4.9h25.8c2.38,0,4.31-2.2,4.31-4.9v-29.69c0-2.7-1.93-4.89-4.31-4.89h-25.8c-2.38,0-4.3,2.19-4.3,4.89v29.69Z"/>
    <path class="cls-5" d="M199.51,176.62c0,2.71,1.93,4.9,4.3,4.9h25.8c2.38,0,4.31-2.2,4.31-4.9v-29.69c0-2.7-1.93-4.89-4.31-4.89h-25.8c-2.38,0-4.3,2.19-4.3,4.89v29.69Z"/>
    <path class="cls-5" d="M251.95,176.62c0,2.71,1.93,4.9,4.3,4.9h25.8c2.38,0,4.31-2.2,4.31-4.9v-29.69c0-2.7-1.93-4.89-4.31-4.89h-25.8c-2.38,0-4.3,2.19-4.3,4.89v29.69Z"/>
    <path class="cls-5" d="M304.05,176.61c0,2.71,1.93,4.9,4.3,4.9h25.8c2.38,0,4.31-2.2,4.31-4.9v-29.69c0-2.7-1.93-4.89-4.31-4.89h-25.8c-2.38,0-4.3,2.19-4.3,4.89v29.69Z"/>
    <path class="cls-5" d="M356.5,176.51c0,2.71,1.93,4.9,4.3,4.9h25.8c2.38,0,4.31-2.2,4.31-4.9v-29.69c0-2.7-1.93-4.89-4.31-4.89h-25.8c-2.38,0-4.3,2.19-4.3,4.89v29.69Z"/>
    <path class="cls-5" d="M409.13,176.51c0,2.71,1.93,4.9,4.3,4.9h25.8c2.38,0,4.31-2.2,4.31-4.9v-29.69c0-2.7-1.93-4.89-4.31-4.89h-25.8c-2.38,0-4.3,2.19-4.3,4.89v29.69Z"/>
    <path class="cls-5" d="M461.57,176.51c0,2.71,1.93,4.9,4.3,4.9h25.8c2.38,0,4.31-2.2,4.31-4.9v-29.69c0-2.7-1.93-4.89-4.31-4.89h-25.8c-2.38,0-4.3,2.19-4.3,4.89v29.69Z"/>
    <path class="cls-5" d="M514.1,176.39c0,2.71,1.93,4.9,4.3,4.9h25.8c2.38,0,4.31-2.2,4.31-4.9v-29.69c0-2.7-1.93-4.89-4.31-4.89h-25.8c-2.38,0-4.3,2.19-4.3,4.89v29.69Z"/>
    <path class="cls-5" d="M566.55,176.39c0,2.71,1.93,4.9,4.3,4.9h25.8c2.38,0,4.31-2.2,4.31-4.9v-29.69c0-2.7-1.93-4.89-4.31-4.89h-25.8c-2.38,0-4.3,2.19-4.3,4.89v29.69Z"/>
    <path class="cls-5" d="M618.68,176.36c0,2.71,1.93,4.9,4.3,4.9h25.8c2.38,0,4.31-2.2,4.31-4.9v-29.69c0-2.7-1.93-4.89-4.31-4.89h-25.8c-2.38,0-4.3,2.19-4.3,4.89v29.69Z"/>
    <path class="cls-5" d="M852.24,176.23c0,2.71,1.93,4.9,4.3,4.9h25.8c2.38,0,4.31-2.2,4.31-4.9v-29.69c0-2.7-1.93-4.89-4.31-4.89h-25.8c-2.38,0-4.3,2.19-4.3,4.89v29.69Z"/>
    <path class="cls-5" d="M905,176.23c0,2.71,1.93,4.9,4.3,4.9h25.8c2.38,0,4.31-2.2,4.31-4.9v-29.69c0-2.7-1.93-4.89-4.31-4.89h-25.8c-2.38,0-4.3,2.19-4.3,4.89v29.69Z"/>
    <path class="cls-5" d="M957.43,176.23c0,2.71,1.93,4.9,4.3,4.9h25.8c2.38,0,4.31-2.2,4.31-4.9v-29.69c0-2.7-1.93-4.89-4.31-4.89h-25.8c-2.38,0-4.3,2.19-4.3,4.89v29.69Z"/>
    <path class="cls-5" d="M1042.43,176.45c0,2.71,1.93,4.9,4.3,4.9h25.8c2.38,0,4.31-2.2,4.31-4.9v-29.69c0-2.7-1.93-4.89-4.31-4.89h-25.8c-2.38,0-4.3,2.19-4.3,4.89v29.69Z"/>
    <path class="cls-5" d="M1093.95,176.45c0,2.71,1.93,4.9,4.3,4.9h25.8c2.38,0,4.31-2.2,4.31-4.9v-29.69c0-2.7-1.93-4.89-4.31-4.89h-25.8c-2.38,0-4.3,2.19-4.3,4.89v29.69Z"/>
    <path class="cls-5" d="M1146.38,176.45c0,2.71,1.93,4.9,4.3,4.9h25.8c2.38,0,4.31-2.2,4.31-4.9v-29.69c0-2.7-1.93-4.89-4.31-4.89h-25.8c-2.38,0-4.3,2.19-4.3,4.89v29.69Z"/>
    <path class="cls-5" d="M1305.23,177.07c0,2.71,1.93,4.9,4.3,4.9h25.8c2.38,0,4.31-2.2,4.31-4.9v-29.69c0-2.7-1.93-4.89-4.31-4.89h-25.8c-2.38,0-4.3,2.19-4.3,4.89v29.69Z"/>
    <path class="cls-5" d="M1357.66,177.07c0,2.71,1.93,4.9,4.3,4.9h25.8c2.38,0,4.31-2.2,4.31-4.9v-29.69c0-2.7-1.93-4.89-4.31-4.89h-25.8c-2.38,0-4.3,2.19-4.3,4.89v29.69Z"/>
    <path class="cls-5" d="M108.48,239.18c0,2.71,1.93,4.91,4.3,4.91h25.8c2.38,0,4.31-2.2,4.31-4.91v-29.69c0-2.7-1.93-4.89-4.31-4.89h-25.8c-2.38,0-4.3,2.19-4.3,4.89v29.69Z"/>
    <path class="cls-5" d="M160.9,239.18c0,2.71,1.93,4.91,4.3,4.91h25.8c2.38,0,4.31-2.2,4.31-4.91v-29.69c0-2.7-1.93-4.89-4.31-4.89h-25.8c-2.38,0-4.3,2.19-4.3,4.89v29.69Z"/>
    <path class="cls-5" d="M213.32,239.18c0,2.71,1.93,4.91,4.3,4.91h25.8c2.38,0,4.31-2.2,4.31-4.91v-29.69c0-2.7-1.93-4.89-4.31-4.89h-25.8c-2.38,0-4.3,2.19-4.3,4.89v29.69Z"/>
    <path class="cls-5" d="M265.8,238.89c0,2.71,1.93,4.91,4.3,4.91h25.8c2.38,0,4.31-2.2,4.31-4.91v-29.69c0-2.7-1.93-4.89-4.31-4.89h-25.8c-2.38,0-4.3,2.19-4.3,4.89v29.69Z"/>
    <path class="cls-5" d="M317.73,238.89c0,2.71,1.93,4.91,4.3,4.91h25.8c2.38,0,4.31-2.2,4.31-4.91v-29.69c0-2.7-1.93-4.89-4.31-4.89h-25.8c-2.38,0-4.3,2.19-4.3,4.89v29.69Z"/>
    <path class="cls-5" d="M370.3,238.89c0,2.71,1.93,4.91,4.3,4.91h25.8c2.38,0,4.31-2.2,4.31-4.91v-29.69c0-2.7-1.93-4.89-4.31-4.89h-25.8c-2.38,0-4.3,2.19-4.3,4.89v29.69Z"/>
    <path class="cls-5" d="M423.33,238.89c0,2.71,1.93,4.91,4.3,4.91h25.8c2.38,0,4.31-2.2,4.31-4.91v-29.69c0-2.7-1.93-4.89-4.31-4.89h-25.8c-2.38,0-4.3,2.19-4.3,4.89v29.69Z"/>
    <path class="cls-5" d="M475.68,238.89c0,2.71,1.93,4.91,4.3,4.91h25.8c2.38,0,4.31-2.2,4.31-4.91v-29.69c0-2.7-1.93-4.89-4.31-4.89h-25.8c-2.38,0-4.3,2.19-4.3,4.89v29.69Z"/>
    <path class="cls-5" d="M527.96,238.6c0,2.71,1.93,4.91,4.3,4.91h25.8c2.38,0,4.31-2.2,4.31-4.91v-29.69c0-2.7-1.93-4.89-4.31-4.89h-25.8c-2.38,0-4.3,2.19-4.3,4.89v29.69Z"/>
    <path class="cls-5" d="M580.47,238.6c0,2.71,1.93,4.91,4.3,4.91h25.8c2.38,0,4.31-2.2,4.31-4.91v-29.69c0-2.7-1.93-4.89-4.31-4.89h-25.8c-2.38,0-4.3,2.19-4.3,4.89v29.69Z"/>
    <path class="cls-5" d="M632.49,238.6c0,2.71,1.93,4.91,4.3,4.91h25.8c2.38,0,4.31-2.2,4.31-4.91v-29.69c0-2.7-1.93-4.89-4.31-4.89h-25.8c-2.38,0-4.3,2.19-4.3,4.89v29.69Z"/>
    <path class="cls-5" d="M684.68,238.6c0,2.71,1.93,4.91,4.3,4.91h25.8c2.38,0,4.31-2.2,4.31-4.91v-29.69c0-2.7-1.93-4.89-4.31-4.89h-25.8c-2.38,0-4.3,2.19-4.3,4.89v29.69Z"/>
    <path class="cls-5" d="M1042.48,238.81c0,2.71,1.93,4.91,4.3,4.91h25.8c2.38,0,4.31-2.2,4.31-4.91v-29.69c0-2.7-1.93-4.89-4.31-4.89h-25.8c-2.38,0-4.3,2.19-4.3,4.89v29.69Z"/>
    <path class="cls-5" d="M1094.64,238.81c0,2.71,1.93,4.91,4.3,4.91h25.8c2.38,0,4.31-2.2,4.31-4.91v-29.69c0-2.7-1.93-4.89-4.31-4.89h-25.8c-2.38,0-4.3,2.19-4.3,4.89v29.69Z"/>
    <path class="cls-5" d="M1146.67,238.81c0,2.71,1.93,4.91,4.3,4.91h25.8c2.38,0,4.31-2.2,4.31-4.91v-29.69c0-2.7-1.93-4.89-4.31-4.89h-25.8c-2.38,0-4.3,2.19-4.3,4.89v29.69Z"/>
    <path class="cls-5" d="M1305.23,239.44c0,2.71,1.93,4.91,4.3,4.91h25.8c2.38,0,4.31-2.2,4.31-4.91v-29.69c0-2.7-1.93-4.89-4.31-4.89h-25.8c-2.38,0-4.3,2.19-4.3,4.89v29.69Z"/>
    <path class="cls-5" d="M1357.66,239.44c0,2.71,1.93,4.91,4.3,4.91h25.8c2.38,0,4.31-2.2,4.31-4.91v-29.69c0-2.7-1.93-4.89-4.31-4.89h-25.8c-2.38,0-4.3,2.19-4.3,4.89v29.69Z"/>
    <path class="cls-5" d="M133.61,301.2c0,2.71,1.93,4.91,4.3,4.91h25.8c2.38,0,4.31-2.2,4.31-4.91v-29.69c0-2.7-1.93-4.89-4.31-4.89h-25.8c-2.38,0-4.3,2.19-4.3,4.89v29.69Z"/>
    <path class="cls-5" d="M81.39,301.34c0,2.71,1.93,4.91,4.3,4.91h25.8c2.38,0,4.31-2.2,4.31-4.91v-29.69c0-2.7-1.93-4.89-4.31-4.89h-25.8c-2.38,0-4.3,2.19-4.3,4.89v29.69Z"/>
    <path class="cls-5" d="M186.48,300.79c0,2.71,1.93,4.91,4.3,4.91h25.8c2.38,0,4.31-2.2,4.31-4.91v-29.69c0-2.7-1.93-4.89-4.31-4.89h-25.8c-2.38,0-4.3,2.19-4.3,4.89v29.69Z"/>
    <path class="cls-5" d="M238.32,300.79c0,2.71,1.93,4.91,4.3,4.91h25.8c2.38,0,4.31-2.2,4.31-4.91v-29.69c0-2.7-1.93-4.89-4.31-4.89h-25.8c-2.38,0-4.3,2.19-4.3,4.89v29.69Z"/>
    <path class="cls-5" d="M290.75,300.79c0,2.71,1.93,4.91,4.3,4.91h25.8c2.38,0,4.31-2.2,4.31-4.91v-29.69c0-2.7-1.93-4.89-4.31-4.89h-25.8c-2.38,0-4.3,2.19-4.3,4.89v29.69Z"/>
    <path class="cls-5" d="M343.19,300.62c0,2.71,1.93,4.91,4.3,4.91h25.8c2.38,0,4.31-2.2,4.31-4.91v-29.69c0-2.7-1.93-4.89-4.31-4.89h-25.8c-2.38,0-4.3,2.19-4.3,4.89v29.69Z"/>
    <path class="cls-5" d="M395.62,300.62c0,2.71,1.93,4.91,4.3,4.91h25.8c2.38,0,4.31-2.2,4.31-4.91v-29.69c0-2.7-1.93-4.89-4.31-4.89h-25.8c-2.38,0-4.3,2.19-4.3,4.89v29.69Z"/>
    <path class="cls-5" d="M448.45,300.35c0,2.71,1.93,4.91,4.3,4.91h25.8c2.38,0,4.31-2.2,4.31-4.91v-29.69c0-2.7-1.93-4.89-4.31-4.89h-25.8c-2.38,0-4.3,2.19-4.3,4.89v29.69Z"/>
    <path class="cls-5" d="M501.02,300.35c0,2.71,1.93,4.91,4.3,4.91h25.8c2.38,0,4.31-2.2,4.31-4.91v-29.69c0-2.7-1.93-4.89-4.31-4.89h-25.8c-2.38,0-4.3,2.19-4.3,4.89v29.69Z"/>
    <path class="cls-5" d="M553.45,300.35c0,2.71,1.93,4.91,4.3,4.91h25.8c2.38,0,4.31-2.2,4.31-4.91v-29.69c0-2.7-1.93-4.89-4.31-4.89h-25.8c-2.38,0-4.3,2.19-4.3,4.89v29.69Z"/>
    <path class="cls-5" d="M605.59,300.35c0,2.71,1.93,4.91,4.3,4.91h25.8c2.38,0,4.31-2.2,4.31-4.91v-29.69c0-2.7-1.93-4.89-4.31-4.89h-25.8c-2.38,0-4.3,2.19-4.3,4.89v29.69Z"/>
    <path class="cls-5" d="M905.95,300.99c0,2.71,1.93,4.91,4.3,4.91h25.8c2.38,0,4.3-2.2,4.3-4.91v-29.69c0-2.7-1.93-4.89-4.3-4.89h-25.8c-2.38,0-4.3,2.19-4.3,4.89v29.69Z"/>
    <path class="cls-5" d="M1042.46,301.16c0,2.71,1.93,4.91,4.3,4.91h25.8c2.38,0,4.3-2.2,4.3-4.91v-29.69c0-2.7-1.93-4.89-4.3-4.89h-25.8c-2.38,0-4.3,2.19-4.3,4.89v29.69Z"/>
    <path class="cls-5" d="M1094.9,301.16c0,2.71,1.93,4.91,4.3,4.91h25.8c2.38,0,4.3-2.2,4.3-4.91v-29.69c0-2.7-1.93-4.89-4.3-4.89h-25.8c-2.38,0-4.3,2.19-4.3,4.89v29.69Z"/>
    <path class="cls-5" d="M1146.77,301.16c0,2.71,1.93,4.91,4.3,4.91h25.8c2.38,0,4.3-2.2,4.3-4.91v-29.69c0-2.7-1.93-4.89-4.3-4.89h-25.8c-2.38,0-4.3,2.19-4.3,4.89v29.69Z"/>
    <path class="cls-5" d="M1305.23,301.78c0,2.71,1.93,4.91,4.3,4.91h25.8c2.38,0,4.3-2.2,4.3-4.91v-29.69c0-2.7-1.93-4.89-4.3-4.89h-25.8c-2.38,0-4.3,2.19-4.3,4.89v29.69Z"/>
    <path class="cls-5" d="M1357.66,301.78c0,2.71,1.93,4.91,4.3,4.91h25.8c2.38,0,4.3-2.2,4.3-4.91v-29.69c0-2.7-1.93-4.89-4.3-4.89h-25.8c-2.38,0-4.3,2.19-4.3,4.89v29.69Z"/>
    <path class="cls-5" d="M853.5,362.87c0,2.71,1.93,4.91,4.3,4.91h25.8c2.38,0,4.3-2.2,4.3-4.91v-29.69c0-2.7-1.93-4.89-4.3-4.89h-25.8c-2.38,0-4.3,2.19-4.3,4.89v29.69Z"/>
    <path class="cls-5" d="M905.95,362.87c0,2.71,1.93,4.91,4.3,4.91h25.8c2.38,0,4.3-2.2,4.3-4.91v-29.69c0-2.7-1.93-4.89-4.3-4.89h-25.8c-2.38,0-4.3,2.19-4.3,4.89v29.69Z"/>
    <path class="cls-5" d="M958.39,362.87c0,2.71,1.93,4.91,4.3,4.91h25.8c2.38,0,4.3-2.2,4.3-4.91v-29.69c0-2.7-1.93-4.89-4.3-4.89h-25.8c-2.38,0-4.3,2.19-4.3,4.89v29.69Z"/>
    <path class="cls-5" d="M1148.4,363.55c0,2.71,1.93,4.91,4.3,4.91h25.8c2.38,0,4.3-2.2,4.3-4.91v-29.69c0-2.7-1.93-4.89-4.3-4.89h-25.8c-2.38,0-4.3,2.19-4.3,4.89v29.69Z"/>
    <path class="cls-5" d="M1305.23,364.17c0,2.71,1.93,4.91,4.3,4.91h25.8c2.38,0,4.3-2.2,4.3-4.91v-29.69c0-2.7-1.93-4.89-4.3-4.89h-25.8c-2.38,0-4.3,2.19-4.3,4.89v29.69Z"/>
    <path class="cls-5" d="M1357.66,364.17c0,2.71,1.93,4.91,4.3,4.91h25.8c2.38,0,4.3-2.2,4.3-4.91v-29.69c0-2.7-1.93-4.89-4.3-4.89h-25.8c-2.38,0-4.3,2.19-4.3,4.89v29.69Z"/>
    <path class="cls-5" d="M487.73,113.81c0,2.71,1.93,4.91,4.3,4.91h25.8c2.38,0,4.31-2.2,4.31-4.91v-29.69c0-2.7-1.93-4.89-4.31-4.89h-25.8c-2.38,0-4.3,2.19-4.3,4.89v29.69Z"/>
    <path class="cls-5" d="M540.16,113.81c0,2.71,1.93,4.91,4.3,4.91h25.8c2.38,0,4.31-2.2,4.31-4.91v-29.69c0-2.7-1.93-4.89-4.31-4.89h-25.8c-2.38,0-4.3,2.19-4.3,4.89v29.69Z"/>
    <path class="cls-5" d="M592.6,113.7c0,2.71,1.93,4.91,4.3,4.91h25.8c2.38,0,4.31-2.2,4.31-4.91v-29.69c0-2.7-1.93-4.89-4.31-4.89h-25.8c-2.38,0-4.3,2.19-4.3,4.89v29.69Z"/>
    <path class="cls-5" d="M644.61,113.7c0,2.71,1.93,4.91,4.3,4.91h25.8c2.38,0,4.31-2.2,4.31-4.91v-29.69c0-2.7-1.93-4.89-4.31-4.89h-25.8c-2.38,0-4.3,2.19-4.3,4.89v29.69Z"/>
    <path class="cls-5" d="M852.63,113.85c0,2.71,1.93,4.91,4.3,4.91h25.8c2.38,0,4.31-2.2,4.31-4.91v-29.69c0-2.7-1.93-4.89-4.31-4.89h-25.8c-2.38,0-4.3,2.19-4.3,4.89v29.69Z"/>
    <path class="cls-5" d="M905.08,113.85c0,2.71,1.93,4.91,4.3,4.91h25.8c2.38,0,4.31-2.2,4.31-4.91v-29.69c0-2.7-1.93-4.89-4.31-4.89h-25.8c-2.38,0-4.3,2.19-4.3,4.89v29.69Z"/>
    <path class="cls-5" d="M957.51,113.85c0,2.71,1.93,4.91,4.3,4.91h25.8c2.38,0,4.31-2.2,4.31-4.91v-29.69c0-2.7-1.93-4.89-4.31-4.89h-25.8c-2.38,0-4.3,2.19-4.3,4.89v29.69Z"/>
    <path class="cls-5" d="M1042.17,114.07c0,2.71,1.93,4.91,4.3,4.91h25.8c2.38,0,4.31-2.2,4.31-4.91v-29.69c0-2.7-1.93-4.89-4.31-4.89h-25.8c-2.38,0-4.3,2.19-4.3,4.89v29.69Z"/>
    <path class="cls-5" d="M1094.64,114.07c0,2.71,1.93,4.91,4.3,4.91h25.8c2.38,0,4.31-2.2,4.31-4.91v-29.69c0-2.7-1.93-4.89-4.31-4.89h-25.8c-2.38,0-4.3,2.19-4.3,4.89v29.69Z"/>
    <path class="cls-5" d="M1147.06,114.07c0,2.71,1.93,4.91,4.3,4.91h25.8c2.38,0,4.31-2.2,4.31-4.91v-29.69c0-2.7-1.93-4.89-4.31-4.89h-25.8c-2.38,0-4.3,2.19-4.3,4.89v29.69Z"/>
    <path class="cls-5" d="M1199.51,114.07c0,2.71,1.93,4.91,4.3,4.91h25.8c2.38,0,4.31-2.2,4.31-4.91v-29.69c0-2.7-1.93-4.89-4.31-4.89h-25.8c-2.38,0-4.3,2.19-4.3,4.89v29.69Z"/>
    <path class="cls-5" d="M852.65,51.5c0,2.71,1.93,4.9,4.3,4.9h25.8c2.38,0,4.31-2.2,4.31-4.9v-29.69c0-2.7-1.93-4.89-4.31-4.89h-25.8c-2.38,0-4.3,2.19-4.3,4.89v29.69Z"/>
    <path class="cls-5" d="M905.06,51.51c0,2.71,1.93,4.9,4.3,4.9h25.8c2.38,0,4.31-2.2,4.31-4.9v-29.69c0-2.7-1.93-4.89-4.31-4.89h-25.8c-2.38,0-4.3,2.19-4.3,4.89v29.69Z"/>
    <path class="cls-5" d="M957.5,51.51c0,2.71,1.93,4.9,4.3,4.9h25.8c2.38,0,4.31-2.2,4.31-4.9v-29.69c0-2.7-1.93-4.89-4.31-4.89h-25.8c-2.38,0-4.3,2.19-4.3,4.89v29.69Z"/>
    <path class="cls-4" d="M16.34,239.44c0,2.7,1.95,4.9,4.35,4.9h66.86c2.41,0,4.36-2.2,4.36-4.9v-29.69c0-2.7-1.95-4.89-4.36-4.89H20.69c-2.4,0-4.35,2.19-4.35,4.89v29.69Z"/>
    <path class="cls-4" d="M16.21,177.06c0,2.71,2.03,4.9,4.53,4.9h52.61c2.5,0,4.54-2.2,4.54-4.9v-29.68c0-2.71-2.03-4.89-4.54-4.89H20.74c-2.5,0-4.53,2.19-4.53,4.89v29.68Z"/>
    <path class="cls-4" d="M783.33,265.78h-121.14c-2.48,0-4.49,2.19-4.49,4.89v29.69c0,2.71,2.01,4.9,4.49,4.9h121.14c2.48,0,4.49-2.2,4.49-4.9v-29.69c0-2.7-2.01-4.89-4.49-4.89Z"/>
    <path class="cls-4" d="M1230.03,141.31h-26.55c-2.45,0-4.43,2.19-4.43,4.89v83.73c0,2.7,1.98,4.9,4.43,4.9h26.55c2.45,0,4.43-2.2,4.43-4.9v-83.73c0-2.7-1.98-4.89-4.43-4.89Z"/>
    <path class="cls-4" d="M1230.03,266.01h-26.55c-2.45,0-4.43,2.19-4.43,4.89v83.73c0,2.71,1.98,4.91,4.43,4.91h26.55c2.45,0,4.43-2.2,4.43-4.91v-83.73c0-2.7-1.98-4.89-4.43-4.89Z"/>
    <path class="cls-4" d="M1126.82,328.97h-80.27c-2.45,0-4.43,2.19-4.43,4.89v29.68c0,2.71,1.98,4.91,4.43,4.91h80.27c2.45,0,4.43-2.19,4.43-4.91v-29.68c0-2.7-1.98-4.89-4.43-4.89Z"/>
    <path class="cls-5" d="M670.84,176.36c0,2.71,1.93,4.9,4.3,4.9h25.8c2.38,0,4.31-2.2,4.31-4.9v-29.69c0-2.7-1.93-4.89-4.31-4.89h-25.8c-2.38,0-4.3,2.19-4.3,4.89v29.69Z"/>
    <path class="cls-4" d="M781.43,79.01h-79.96c-2.44,0-4.41,2.19-4.41,4.89v29.69c0,2.71,1.97,4.9,4.41,4.9h79.96c2.44,0,4.41-2.2,4.41-4.9v-29.69c0-2.7-1.98-4.89-4.41-4.89Z"/>
    <path class="cls-3" d="M61.05,267.41H20.82c-2.33,0-4.22,2.19-4.22,4.89v29.68c0,2.71,1.89,4.91,4.22,4.91h40.22c2.33,0,4.22-2.2,4.22-4.91v-29.68c0-2.7-1.89-4.89-4.22-4.89Z"/>
    <path class="cls-3" d="M736.94,181.49v49.15c0,2.7,1.91,4.91,4.27,4.91h40.69c2.36,0,4.27-2.2,4.27-4.91v-71.55s0-12.74,0-12.74c0-2.48-2.07-4.51-4.59-4.51l-52.85.19c-2.53,0-4.59,2.03-4.59,4.51v30.46c0,2.48,2.06,4.51,4.59,4.51l8.21-.03Z"/>
    <path class="cls-5" d="M15.87,52.62c0,2.71,1.93,4.9,4.3,4.9h25.8c2.38,0,4.31-2.2,4.31-4.9v-29.69c0-2.7-1.93-4.89-4.31-4.89h-25.8c-2.38,0-4.3,2.19-4.3,4.89v29.69Z"/>
    <path class="cls-5" d="M120.75,53.59c0,2.71,1.93,4.9,4.3,4.9h25.8c2.38,0,4.31-2.2,4.31-4.9v-29.69c0-2.7-1.93-4.89-4.31-4.89h-25.8c-2.38,0-4.3,2.19-4.3,4.89v29.69Z"/>
    <path class="cls-5" d="M173.21,53.59c0,2.71,1.93,4.9,4.3,4.9h25.8c2.38,0,4.31-2.2,4.31-4.9v-29.69c0-2.7-1.93-4.89-4.31-4.89h-25.8c-2.38,0-4.3,2.19-4.3,4.89v29.69Z"/>
    <path class="cls-5" d="M225.62,53.45c0,2.71,1.93,4.9,4.3,4.9h25.8c2.38,0,4.31-2.2,4.31-4.9v-29.69c0-2.7-1.93-4.89-4.31-4.89h-25.8c-2.38,0-4.3,2.19-4.3,4.89v29.69Z"/>
    <path class="cls-5" d="M277.77,53.21c0,2.71,1.93,4.9,4.3,4.9h25.8c2.38,0,4.31-2.2,4.31-4.9v-29.69c0-2.7-1.93-4.89-4.31-4.89h-25.8c-2.38,0-4.3,2.19-4.3,4.89v29.69Z"/>
    <path class="cls-5" d="M357.09,53.32c0,2.71,1.93,4.9,4.3,4.9h25.8c2.38,0,4.3-2.2,4.3-4.9v-29.69c0-2.7-1.93-4.89-4.3-4.89h-25.8c-2.38,0-4.3,2.19-4.3,4.89v29.69Z"/>
    <path class="cls-5" d="M409.49,53.32c0,2.71,1.93,4.9,4.3,4.9h25.8c2.38,0,4.31-2.2,4.31-4.9v-29.69c0-2.7-1.93-4.89-4.31-4.89h-25.8c-2.38,0-4.3,2.19-4.3,4.89v29.69Z"/>
    <path class="cls-5" d="M462.14,53.32c0,2.71,1.93,4.9,4.3,4.9h25.8c2.38,0,4.31-2.2,4.31-4.9v-29.69c0-2.7-1.93-4.89-4.31-4.89h-25.8c-2.38,0-4.3,2.19-4.3,4.89v29.69Z"/>
    <path class="cls-5" d="M514.72,53.03c0,2.71,1.93,4.9,4.3,4.9h25.8c2.38,0,4.31-2.2,4.31-4.9v-29.69c0-2.7-1.93-4.89-4.31-4.89h-25.8c-2.38,0-4.3,2.19-4.3,4.89v29.69Z"/>
    <path class="cls-5" d="M594.61,52.88c0,2.71,1.93,4.9,4.3,4.9h25.8c2.38,0,4.31-2.2,4.31-4.9v-29.69c0-2.7-1.93-4.89-4.31-4.89h-25.8c-2.38,0-4.3,2.19-4.3,4.89v29.69Z"/>
    <path class="cls-5" d="M647.2,52.85c0,2.71,1.93,4.9,4.3,4.9h25.8c2.38,0,4.31-2.2,4.31-4.9v-29.69c0-2.7-1.93-4.89-4.31-4.89h-25.8c-2.38,0-4.3,2.19-4.3,4.89v29.69Z"/>
    <path class="cls-5" d="M699.62,52.8c0,2.71,1.93,4.9,4.3,4.9h25.8c2.38,0,4.31-2.2,4.31-4.9v-29.69c0-2.7-1.93-4.89-4.31-4.89h-25.8c-2.38,0-4.3,2.19-4.3,4.89v29.69Z"/>
    <path class="cls-5" d="M752.03,52.55c0,2.71,1.93,4.9,4.3,4.9h25.8c2.38,0,4.31-2.2,4.31-4.9v-29.69c0-2.7-1.93-4.89-4.31-4.89h-25.8c-2.38,0-4.3,2.19-4.3,4.89v29.69Z"/>
    <path class="cls-5" d="M16.48,114.87c0,2.71,1.93,4.91,4.3,4.91h25.8c2.38,0,4.31-2.2,4.31-4.91v-29.69c0-2.7-1.93-4.89-4.31-4.89h-25.8c-2.38,0-4.3,2.19-4.3,4.89v29.69Z"/>
    <path class="cls-5" d="M68.33,114.87c0,2.71,1.93,4.91,4.3,4.91h25.8c2.38,0,4.31-2.2,4.31-4.91v-29.69c0-2.7-1.93-4.89-4.31-4.89h-25.8c-2.38,0-4.3,2.19-4.3,4.89v29.69Z"/>
    <path class="cls-5" d="M120.78,114.56c0,2.71,1.93,4.91,4.3,4.91h25.8c2.38,0,4.31-2.2,4.31-4.91v-29.69c0-2.7-1.93-4.89-4.31-4.89h-25.8c-2.38,0-4.3,2.19-4.3,4.89v29.69Z"/>
    <path class="cls-5" d="M173.04,114.47c0,2.71,1.93,4.91,4.3,4.91h25.8c2.38,0,4.31-2.2,4.31-4.91v-29.69c0-2.7-1.93-4.89-4.31-4.89h-25.8c-2.38,0-4.3,2.19-4.3,4.89v29.69Z"/>
    <path class="cls-5" d="M225.64,114.47c0,2.71,1.93,4.91,4.3,4.91h25.8c2.38,0,4.31-2.2,4.31-4.91v-29.69c0-2.7-1.93-4.89-4.31-4.89h-25.8c-2.38,0-4.3,2.19-4.3,4.89v29.69Z"/>
    <path class="cls-5" d="M277.4,114.36c0,2.71,1.93,4.91,4.3,4.91h25.8c2.38,0,4.31-2.2,4.31-4.91v-29.69c0-2.7-1.93-4.89-4.31-4.89h-25.8c-2.38,0-4.3,2.19-4.3,4.89v29.69Z"/>
    <path class="cls-5" d="M330.08,114.36c0,2.71,1.93,4.91,4.3,4.91h25.8c2.38,0,4.31-2.2,4.31-4.91v-29.69c0-2.7-1.93-4.89-4.31-4.89h-25.8c-2.38,0-4.3,2.19-4.3,4.89v29.69Z"/>
    <path class="cls-5" d="M382.66,114.32c0,2.71,1.93,4.91,4.3,4.91h25.8c2.38,0,4.31-2.2,4.31-4.91v-29.69c0-2.7-1.93-4.89-4.31-4.89h-25.8c-2.38,0-4.3,2.19-4.3,4.89v29.69Z"/>
    <path class="cls-5" d="M435.08,113.89c0,2.71,1.93,4.91,4.3,4.91h25.8c2.38,0,4.3-2.2,4.3-4.91v-29.69c0-2.7-1.93-4.89-4.3-4.89h-25.8c-2.38,0-4.3,2.19-4.3,4.89v29.69Z"/>
    <path class="cls-4" d="M73.39,328.96H22.07c-2.97,0-5.38,2.19-5.38,4.89v29.68c0,2.71,2.41,4.91,5.38,4.91h51.32c2.97,0,5.38-2.2,5.38-4.91v-29.68c0-2.7-2.41-4.89-5.38-4.89Z"/>
    <path class="cls-4" d="M126.62,328.96h-28.44c-1.65,0-2.98,2.19-2.98,4.89v29.68c0,2.71,1.33,4.91,2.98,4.91h28.44c1.65,0,2.98-2.2,2.98-4.91v-29.68c0-2.7-1.34-4.89-2.98-4.89Z"/>
    <path class="cls-4" d="M204.65,329.4h-51.32c-2.97,0-5.38,2.19-5.38,4.89v29.68c0,2.71,2.41,4.91,5.38,4.91h51.32c2.97,0,5.38-2.2,5.38-4.91v-29.68c0-2.7-2.41-4.89-5.38-4.89Z"/>
    <path class="cls-4" d="M606.32,328.12h-51.32c-2.97,0-5.38,2.19-5.38,4.89v29.68c0,2.71,2.41,4.91,5.38,4.91h51.32c2.97,0,5.38-2.2,5.38-4.91v-29.68c0-2.7-2.41-4.89-5.38-4.89Z"/>
    <path class="cls-4" d="M659.98,328.12h-28.45c-1.65,0-2.98,2.19-2.98,4.89v29.68c0,2.71,1.33,4.91,2.98,4.91h28.45c1.65,0,2.98-2.2,2.98-4.91v-29.68c0-2.7-1.34-4.89-2.98-4.89Z"/>
    <path class="cls-4" d="M712.17,328.12h-28.45c-1.65,0-2.98,2.19-2.98,4.89v29.68c0,2.71,1.33,4.91,2.98,4.91h28.45c1.65,0,2.98-2.2,2.98-4.91v-29.68c0-2.7-1.34-4.89-2.98-4.89Z"/>
    <path class="cls-4" d="M789.47,328.12h-51.31c-2.97,0-5.38,2.19-5.38,4.89v29.68c0,2.71,2.41,4.91,5.38,4.91h51.31c2.97,0,5.38-2.2,5.38-4.91v-29.68c0-2.7-2.41-4.89-5.38-4.89Z"/>
    <path class="cls-4" d="M532.05,364.24c0,2.19-1.78,3.97-3.95,3.97H231.28c-2.17,0-3.95-1.79-3.95-3.97v-31.71c0-2.18,1.78-3.97,3.95-3.97h296.83c2.17,0,3.95,1.79,3.95,3.97v31.71Z"/>
  </g>
  <g id="Design">
    <path class="cls-2" d="M1162.88,155.36c.98-.27,2.94-.39,4.08.57.31.26,1.11.65,1.55.17.64-.7.23-1.5-.13-1.8-.64-.55-2.8-1.42-5.32-1.16-2.83.29-4.82,2.75-5.52,4.53-1.06,2.7-.38,6.04-.26,6.52.22.92,1.13,3.36,2.23,4.2.67.51,2.54,1.18,4.09,1.18,1.88,0,2.94-.05,4.03-.83,1.08-.77,2.27-1.99,2.54-4.22.3-2.48-.88-4.19-1.95-4.97-.9-.65-1.83-1.28-4.3-1.37-2.03-.07-4.65,2.12-4.65,2.12l.15,3.11s.88-2.11,2.56-2.68c1.87-.63,2.76-.58,4.05-.08,1.9.74,2.63,1.93,2.05,3.96-.32,1.1-.98,2.26-4.31,2.73-2.89,0-3.81-1.95-4.08-3.1-.14-.59-.01-1.2-.09-1.8,0,0-.32-2.66-.08-3.57.14-.55.25-2.51,3.42-3.51h-.04Z"/>
    <path class="cls-2" d="M33.92,102.51s-1.07.85-1.11.88c-.72.54-1.66-.73-.99-1.23.01,0,1.88-1.46,1.97-1.53.67-.5,1.55-.1,1.55.57,0,.09.3,10.22.3,10.28,0,.83-1.65.98-1.65.02l-.06-8.98Z"/>
    <circle class="cls-2" cx="33.61" cy="97.84" r="1.15"/>
    <path class="cls-2" d="M32.74,91.46s.21,3.11.2,3.25c-.01.73,1.48.81,1.49-.03,0-.11.36-5.99.36-6.13.03-1.44-2.17-1.54-2.2,0"/>
    <path class="cls-2" d="M84.59,110.55s3.99-3.94,4.14-4.19c.71-1.19.59-3.12.1-4.01-.55-1-1.77-1.79-3.02-1.87-.88-.06-2.05.16-3,1.2-.82.9-1.13,2.36-.94,3.03.17.61,1.09.89,1.49.31.36-.53-.17-1.05.49-2.04.25-.37.75-.81,1.75-.84.73-.03,1.47.32,1.83.95.55.96.19,2.1.19,2.1,0,0-5.31,5.38-5.46,5.57-.47.61-.15,1.2.54,1.33.29.05,5.65-.13,5.94-.13.9,0,.95-1.42-.11-1.42l-3.93.03Z"/>
    <path class="cls-2" d="M82.46,90.62s-.32-2.12-.35-2.25c-.12-.61.4-1.04,1.47-1.04s1.5.46,1.43,1.09c-.02.15-.56,4.51-.59,4.66-.13.82-1.26.99-1.51.02"/>
    <path class="cls-2" d="M86.1,90.62s-.27-2.22-.3-2.35c-.12-.6.3-.94,1.37-.94s1.35.46,1.28,1.09c-.02.15-.61,4.51-.64,4.66-.14.77-1.12.84-1.31.02"/>
    <path class="cls-2" d="M140.62,106.35s1.21-1.21,1.13-2.82c-.07-1.4-1.18-2.36-1.88-2.84-.75-.51-2.79-.59-3.6-.15-.8.43-1.98,1-2.05,2.86,0,.22,0,.93.56,1.12.48.16.91-.23.91-.23,0,0,.02-1.44.91-2.08.79-.56,1.71-.25,2.26-.02.7.3,1.08,1.06,1.17,1.52.07.42-.36,1.32-.7,1.57-.36.26-1.72.17-1.72.17,0,0-.57.1-.57.8,0,.58.53.82.53.82,0,0,.96.03,1.59.24.76.25,1.06,1.01.89,1.83-.13.64-.83,1.03-1.38,1.29-.64.29-1.55.13-2.04-.26-.6-.48-.91-1.72-.91-1.72,0,0-.34-.45-.78-.4-.51.05-.65.56-.65.56,0,0,.2,1.96,1.23,2.92,1.11,1.04,3,.81,3.97.5.72-.23,1.97-.99,2.17-2.49.27-1.93-.9-3-.9-3"/>
    <path class="cls-2" d="M191.14,103.85l-2.67,4.1h4.4s.72,0,.72,0c0,0,.49.2.47.66-.02.55-.42.72-.42.72h-.93v2.04s-.17.51-.71.48c-.48-.02-.73-.45-.73-.45l-.02-1.97-3.99.07s-.4-.12-.62-.42c-.28-.38-.11-.93-.11-.93l4.77-7.83s.22-.42.74-.39c.43.03.57.46.57.46l.13,7.66s-1.51.06-1.51,0l-.08-4.22Z"/>
    <path class="cls-2" d="M191,95.44s.57,0,.76-.04c.23-.05.49-.2.53-.79.03-.51-.25-.77-.51-.85-.62-.19-2.03-.08-2.68-.22-.44-.09-1.16-.49-1.55-.94-.26-.3-.53-1.12-.49-1.52.07-.58.55-1.5.98-1.77.51-.31,1.65-.46,1.65-.46v-1.37s.1-.6.67-.56c.48.04.67.53.67.53l.02,1.45s.68,0,1.27.37c.52.32.93.98.93.98,0,0,.3.73-.05,1.12-.35.4-.85.24-.85.24,0,0-.33-.72-.97-1.02-.67-.32-.73-.36-1.43-.33-.59.02-1.11.19-1.32.6-.32.63.22,1.07.22,1.07,0,0,2.13.08,2.88.22.82.15,1.41.62,1.6,1.06.21.5.38,1.66.17,2.16-.17.4-.81,1.08-1.21,1.24-.29.12-1.25.1-1.25.1l.03,1.42s-.24.71-.73.71c-.54,0-.66-.59-.66-.59l.02-1.44s-1.01,0-1.79-.59c-.55-.42-1.02-1.33-1.02-1.33,0,0-.02-.46.3-.67.38-.25.91.08.91.08,0,0,.68.93,1.02,1.05.4.14.72.06.89.08h.95Z"/>
    <path class="cls-2" d="M135.28,92.44l-.93-.02s-.53-.24-.53-.73.42-.73.42-.73h.96s.03-1.62.03-1.62c0,0,.25-.58.84-.55.64.03.72.55.72.55l.06,1.55,2.14-.02v-1.32s.02-.61.7-.61c.56,0,.73.54.73.54v1.35s1.18,0,1.18,0c0,0,.35.2.35.72,0,.57-.34.77-.34.77l-1.1.03-.03,1.97,1.04-.03s.42.13.42.69-.4.61-.4.61l-1.08-.04v1.33s-.19.67-.74.67c-.58,0-.72-.63-.72-.63v-1.28s-2.25.06-2.25.06l.04,1.18s-.27.67-.73.67c-.5,0-.72-.58-.72-.58v-1.14s-.94-.05-.94-.05c0,0-.57-.15-.53-.69.05-.61.42-.65.42-.65l4.74-.04-.03-2.01h-2.25s.03,2.04.03,2.04h-1.49s-.03-2.01-.03-2.01Z"/>
    <path class="cls-2" d="M240.76,101.82l-.02,1.93s1.11-.44,2.37-.3c1.13.12,2.02.76,2.69,1.49.49.53.87,2.01.87,2.91,0,1.06-.61,2.19-1.17,2.79-.5.53-1.86,1.23-2.75,1.2-.86-.03-1.94-.53-2.61-.86-.32-.16-.88-.66-1-.99-.09-.25.08-.82.25-1.02.14-.17.63-.27.84-.23.39.08.95.74,1.3.93.34.18.88.45,1.54.34.79-.13,1.39-.61,1.72-1.26.38-.74.41-1.58.06-2.24-.36-.68-.88-1.14-1.79-1.34-.82-.19-1.65.26-2.13.68-.2.17-.3.57-.92.54-.74-.05-.77-.65-.77-.65l-.06-4.71s.1-.63.24-.77c.13-.13.69-.23.69-.23l5.63-.05s.69.14.69.87c0,.89-.63.94-.63.94l-4.56.05"/>
    <path class="cls-2" d="M292.76,104.75l.04-1.22s1.01-1.34,1.49-1.42c.67-.11,1.47.06,1.93.48.25.23.97.92.97.92,0,0,.19.48.87.15.61-.29.3-1.01.3-1.01,0,0-.74-1.18-1.08-1.49-.61-.55-1.5-1.29-3.07-1.16-2.24.18-3.31,2.97-3.34,3.15-.16.95.05,5.5.05,5.5,0,0,.1,1.21,1.17,2.15.4.35,1.31.77,2.31.96.82.15,1.99-.22,2.48-.47.71-.37,1.4-1.35,1.56-2.9.18-1.72-.51-2.56-1.13-3.1-.52-.45-1.15-.92-2.58-.99-1.17-.05-2.17.6-2.17.6l.03,2.23,1.17-.85,2.13-.12.87.96.02,1.17-.35,1.02-1.68.84-1.93-1.15s-.13-1.19-.11-1.5l.04-2.76Z"/>
    <path class="cls-2" d="M298.61,95.16l.25-2.43s.14-.69-.55-.87c-.62-.16-.82.43-.82.43l-.57,1.95-2.15-1.94s-.99-.82-1.29-1.13c-.23-.23-.7-.69-.84-.98-.18-.35-.47-1.1-.33-1.46.13-.33.59-.72.94-.81.32-.08,1.15-.2,1.47-.13.29.07.82.29,1.01.53.18.24.28.84.16,1.11-.15.35-.7.8-1.02,1.01-.34.23-1.35.92-1.35.92l1.12.99s1.64-.69,2.05-1.11c.36-.37.95-1.34.98-1.86.03-.55-.24-1.72-.61-2.13-.36-.4-1.39-.91-1.92-.99-.54-.09-1.66-.08-2.18.09-.56.18-1.6.26-2.03,1.16-.46.95-.4,1.97-.18,2.57.16.44,1.11,1.49,1.11,1.49l-.02.39s-.58-.06-1.17.44c-.3.26-.5.77-.68,1.44-.09.32-.11.76-.01,1.32.07.39.37,1.18.65,1.46.34.34,1.25.76,1.72.9.52.15,1.57.4,2.11.39.53-.01,1.36-.03,2.1-.41.82-.42,1.06-1.12,1.06-1.12l-1.05-1.06s-.9.48-1.23.58c-.37.11-1.16.26-1.54.2-.53-.09-1.59-.48-1.99-.84-.22-.2-.51-.8-.44-1.09.07-.3.63-.75.93-.82.29-.07.91-.01,1.19.1.34.14.96.57,1.25.8.21.16.61.5.81.67.5.41,2.03,1.63,2.03,1.63l1.79.9.08.02s.52,0,.77-.58c.25-.57-.32-1.11-.32-1.11l-1.25-.65Z"/>
    <path class="cls-2" d="M239.59,89.19s.47-.6.74-.68c.34-.1.56-.1.82.08.38.27.35.67.26,1.05-.08.33-.4.82-.58.93-.35.22-.41.18-.75.18-.11,0-.4-.07-.48-.16-.28-.31-.34-.4-.27-.87.06-.41.52-.8.52-.8l-.79-.87s-.75.78-.88,1.12c-.11.3-.09.85-.05,1.27.03.4.06.44.27.82.19.34.45.55.73.65.42.14.68.17,1.13.17.3,0,.64-.06,1-.32.21-.15.47-.43.72-.76.22-.28.35-.56.44-.91.09-.38.07-.74.02-1.07-.06-.37-.26-.91-.67-1.27-.38-.34-1.06-.39-1.39-.35-.2.02-.66.14-.95.3-.27.15-.79.71-.79.71"/>
    <path class="cls-2" d="M244.79,95.49s.47-.6.74-.68c.34-.1.56-.1.82.08.38.27.35.67.26,1.05-.08.33-.4.82-.58.93-.35.22-.41.18-.75.18-.11,0-.4-.07-.48-.16-.28-.31-.34-.4-.27-.87.06-.41.52-.8.52-.8l-.79-.87s-.75.78-.88,1.12c-.11.3-.09.85-.05,1.27.03.4.06.44.27.82.19.34.45.55.73.65.42.14.68.17,1.13.17.3,0,.64-.06,1-.32.21-.15.47-.43.72-.76.22-.28.35-.56.44-.91.09-.38.07-.74.02-1.07-.06-.37-.26-.91-.67-1.27-.38-.34-1.06-.39-1.39-.35-.2.02-.66.14-.95.3-.27.15-.79.71-.79.71"/>
    <path class="cls-2" d="M242.18,92.55l3.88-4.6s.45-.3.89.02c.37.27.25.96.25.96l-7.61,8.95s-.63.18-1.01-.14c-.42-.36-.23-1.03-.23-1.03l3.48-3.83"/>
    <path class="cls-2" d="M349.17,101.75l-3.32,8.62s-.67.76.31,1.25c.85.43,1.28-.63,1.28-.63l3.43-9.32s.5-.76.14-1.37c-.33-.55-.95-.5-.95-.5l-5.92.06s-.77.14-.81.97c-.04.82.84.99.84.99l4.29-.04"/>
    <path class="cls-2" d="M346.09,89.13s.49-1.71.71-1.85c.24-.16,2.76-.3,3.04-.05.65.57-3.12,5.54-3.12,5.54,0,0-.57.5-1.11.37-.58-.14-.47-.99-.47-.99l.95-3Z"/>
    <path class="cls-2" d="M402.39,105.62s1.45-1.02,1.03-3.16c-.52-2.62-2.88-2.62-3.48-2.62-.51,0-3.13-.28-3.59,3.03-.29,2.09,1.31,3.02,1.31,3.02l1.24-1.02-.8-.64s-.27-.25-.27-1.01c0-.52.27-1.48,2.11-1.48,1.94,0,1.98,1.11,2.01,1.36.01.11-.11,1.09-.55,1.35-.37.21-.99.48-1.64.43-.57-.05-1.37-.25-1.37-.25l-1.01.86s-1.24,1.23-1.14,3.21c.13,2.69,2.72,3.08,4.16,3.01,1.92-.08,3.33-1.47,3.48-3.26.12-1.45-1.52-3.14-1.52-3.14l-1.35.93s1.1.89,1.1,1.99c0,1.33-.85,1.71-2.15,1.71s-2.33-.42-2.33-1.59c0-1.9,1.76-1.88,2.12-1.91.72-.05,1.53.06,1.53.06"/>
    <path class="cls-2" d="M400.99,88.86l.93-.54s.58-.3.22-1.07c-.35-.73-1.11-.38-1.11-.38,0,0-1.59.89-2.41,1.92-.99,1.25-1.26,2.45-1.35,3.78-.09,1.27.74,3.3,1.35,4.18.7,1,2.34,1.84,2.34,1.84,0,0,1.07.42,1.5-.3.46-.77-.59-1.39-.59-1.39,0,0-1.19-.26-1.88-1.18-.78-1.05-1.16-1.82-1.11-3.09.04-1,.48-2.15.99-2.75,0,0,1.43-1.14,1.12-1.02Z"/>
    <path class="cls-2" d="M454.62,104.13s.1-.76.07-1.01c-.04-.38-.31-1.16-.56-1.44-.28-.32-1.28-.58-1.74-.61-.59-.04-1.51.3-2,1.07-.28.43-.32,1.28,0,1.92.27.55,1.14,1.26,2.34,1.06.88-.15,2.15-1.1,2.15-1.1l.2,1.51s-1.06,1.02-2.02,1.23c-.79.17-1.55.02-2.27-.35-.8-.42-1.2-.68-1.67-1.49-.53-.91-.58-1.99-.41-2.73.16-.69.83-1.85,1.42-2.25.71-.49,1.63-.79,2.53-.63.75.13,1.64.46,2.05.83.52.48,1.2,1.59,1.34,2.23.19.87.08,2.2.08,3.06s.08,2.49-.1,3.08c-.17.57-.79,1.42-1.26,1.77-.5.37-1.76.7-2.38.71-.6,0-1.83-.31-2.32-.66-.68-.48-1.36-1.87-1.19-1.42.05.14-.35-.75.1-1.16.37-.34.8-.21.99-.03.26.25.42.78.86,1.14.46.37,1.06.61,1.84.53.7-.07.93-.15,1.42-.63s.65-1.03.66-1.42l-.12-3.21Z"/>
    <path class="cls-2" d="M450.82,88.51l-.27-.17s-.6-.52-.28-1.1c.3-.52.77-.51,1.01-.38.9.47,2.43,1.4,3.23,3.35.59,1.44.5,3.87-.03,5.07-.71,1.6-2.57,2.95-2.57,2.95,0,0-1.01.25-1.36-.1-.39-.39,0-1.12.23-1.35.54-.51,1.55-.69,2.19-1.66.34-.52.61-1.6.65-2.51.05-1.01-.62-2.51-1.18-2.95,0,0-1.78-1.31-1.62-1.15Z"/>
    <path class="cls-2" d="M502.72,106.7c-.03-.77-.09-3.34.03-3.55.26-.43.8-1.13,1.26-1.34.48-.21,1.73-.26,2.21-.04.42.19.78.96.9,1.41.06.21.11,5.02.08,5.13-.17.62-.49,1.01-1.16,1.31-.52.23-1.49.23-1.49.23v1.71s1.51.01,1.97-.16c.42-.16,1.18-.72,1.45-1.08.31-.42.78-1.38.86-1.9.21-1.31.11-4.04-.11-5.35-.14-.86-.32-1.46-1.04-2.18-.34-.34-1.14-.93-1.59-1.06-.51-.15-1.56-.19-2.06-.01-.4.14-1.31.58-1.6.89-.37.4-1.03,1.29-1.26,2.16-.38,1.39.16,5.43.16,5.43,0,0,.18,1.35,1.21,2.31.84.79,2.2.95,2.2.95l.06-1.69s-1.23-.55-1.54-1c0,0-.49-.83-.54-2.17Z"/>
    <path class="cls-2" d="M504.93,104.28l2.96-4.78s.57-.6,1.14-.23c.54.35.28,1.04.28,1.04l-7.27,11.87s-.71.39-1.23-.06c-.53-.46-.25-1.2-.25-1.2l4.12-6.33"/>
    <path class="cls-2" d="M1059.6,218.51s-.59.42-.65.46c-1.09.73-1.94-1.29-.93-1.97.02-.01,1.3-.99,1.44-1.09,1.01-.68,2.3-.1,2.29.82,0,.12-.06,14.13-.06,14.21-.02,1.14-2.22,1.32-2.2-.02l.12-12.42Z"/>
    <path class="cls-2" d="M1107.82,229.77c-.1-1.29,7.09-4.65,8.32-5.68,2.78-2.31,2.36-5,1.43-6.24-.91-1.2-2.19-1.85-4.09-2.19-1.53-.27-2.7-.03-3.55.23-.86.26-3.55,1.2-2.71,2.62.56.95,1.81.34,2.28,0,1.09-.79,1.84-.73,3.61-.78,1.3-.04,1.85.28,2.48,1.18.97,1.38.4,2.52-.16,3.02-2.19,1.96-8.08,4.36-9.41,7.04-.82,1.65-1.03,2.91.7,2.91.52,0,9,.02,9.5.02,1.58,0,1.12-2,.05-2,0,0-8.43.15-8.45-.13Z"/>
    <path class="cls-2" d="M1168.31,223.88l-.02-.12s1.43-.91,1.3-3.31c-.11-2.09-1.15-3.49-2.24-4.24-1.41-.96-3.63-1.21-4.98-.92-1.02.22-3.06,1.14-3.92,1.88-.46.39-.92,1.5-.31,2.02.65.56,1.89-.34,1.89-.34,0,0,.37-.31,1.9-1.08.94-.48,2.38-.48,3.3-.22,1.2.34,2.11,1.2,2.2,2.4.08,1.05-.18,1.51-.97,2.05-.72.49-2.24.36-2.24.36,0,0-.9.16-.9,1.2,0,.87.69,1.23.69,1.23,0,0,.96-.09,1.97.16,1.26.31,1.91,1.7,1.91,3.03,0,1.16-1.1,1.91-1.8,2.22-1.02.45-2.71.56-4.17.36-1.31-.19-2.72-1.47-2.72-1.47,0,0-.67-1.04-1.49-.6-.84.45-.53,1.45-.53,1.45,0,0,.43,1.28,2.41,2.2,2.08.97,5.47.71,7.02.25,1.14-.35,3.03-1.73,3.36-3.98.42-2.89-1.58-4.39-1.58-4.39-.12.05-.1-.11-.1-.11Z"/>
    <path class="cls-2" d="M1061.14,158.5l-4.59,5.68h7.54s1.23,0,1.23,0c0,0,.84.28.81.91-.03.76-.72,1-.72,1l-1.6.02v2.81s-.29.7-1.22.67c-.82-.03-1.25-.62-1.25-.62l-.04-2.73-6.83.1s-.68-.16-1.07-.58c-.49-.53-.19-1.29-.19-1.29l8.17-10.85s.38-.59,1.27-.54c.74.04.97.64.97.64l.23,10.62s-2.59.09-2.59,0l-.13-5.85Z"/>
    <path class="cls-2" d="M1107.33,155.42l-.04,2.8s1.99-.63,4.24-.43c2.02.18,3.61,1.1,4.81,2.16.87.77,1.55,2.92,1.55,4.22,0,1.54-1.09,3.17-2.1,4.05-.89.78-3.32,1.78-4.91,1.74-1.54-.04-3.47-.77-4.66-1.25-.56-.23-1.58-.96-1.79-1.44-.16-.36.14-1.2.44-1.49.25-.24,1.12-.39,1.5-.33.7.11,1.7,1.07,2.33,1.35.6.26,1.57.65,2.74.49,1.41-.19,2.49-.89,3.08-1.83.68-1.07.73-2.3.11-3.25-.64-.98-1.57-1.65-3.2-1.95-1.46-.27-2.94.37-3.81.98-.36.25-.54.83-1.64.78-1.32-.07-1.37-.94-1.37-.94l-.11-6.85s.18-.91.43-1.12c.23-.19,1.22-.34,1.22-.34l10.06-.07s1.23.2,1.23,1.27c0,1.29-1.13,1.36-1.13,1.36l-8.14.07"/>
    <path class="cls-2" d="M1062.72,93.67c-1.65,3.14-4.19,8.02-4.83,12.31-.08.52-.32,1.55.78,1.76,1.27.24,1.42-1.83,1.61-2.48,2.31-7.7,3.35-9.14,4.98-11.64.27-.41.97-1.17.33-2.03-.57-.77-1.34-.65-1.34-.65l-10.23.08s-1.33.2-1.4,1.36c-.06,1.15,1.44,1.39,1.44,1.39l7.41-.06"/>
    <path class="cls-2" d="M1115.8,98.92s2.47-1.49,1.75-4.59c-.88-3.81-4.9-3.82-5.9-3.82-.87,0-5.32-.41-6.1,4.4-.49,3.04,2.22,4.39,2.22,4.39l2.11-1.49-1.37-.94s-.46-.36-.46-1.47c0-.75.45-2.16,3.58-2.16,3.29,0,3.36,1.62,3.41,1.97.02.17-.19,1.59-.94,1.96-.62.31-1.68.7-2.79.62-.97-.07-2.32-.36-2.32-.36l-1.72,1.24s-2.11,1.79-1.94,4.66c.23,3.91,4.62,4.47,7.07,4.38,3.27-.12,5.66-2.14,5.91-4.74.21-2.11-2.58-4.57-2.58-4.57l-2.3,1.35s1.87,1.3,1.87,2.89c0,1.94-1.44,2.49-3.65,2.49s-3.95-.61-3.95-2.31c0-2.76,2.98-2.74,3.6-2.78,1.22-.08,2.6.09,2.6.09"/>
    <path class="cls-2" d="M1168.18,98.25s.12-.96.08-1.34c-.06-.59-.11-1.25-.82-2.29-.39-.57-1.11-1.32-2.69-1.58-1.82-.29-2.95.1-4.04,1.42-.96,1.16-1.18,2.32-.35,3.83.31.57,2.6,2.24,4.64,1.86,1.91-.35,3.51-2.28,3.51-2.28l.51,2.5s-1.85,1.56-3.53,1.88c-1.37.26-2.7.04-3.96-.54-1.4-.64-2.09-1.04-2.91-2.27-.92-1.38-1.02-3.03-.71-4.16.28-1.05,1.45-2.62,2.47-3.23,1.23-.74,2.8-1.25,4.36-1.01,1.32.2,2.71.75,3.43,1.32.92.72,1.69,1.89,1.99,2.84.6,1.85.8,2.61.63,4.17-.14,1.3-.2,2.5-.73,3.64-.38.83-1.18,2.07-1.96,2.69-.85.68-2.87,1.59-4.02,1.58-1.16-.01-3.62-.86-4.47-1.56-.33-.27-1.14-1.05-.57-1.62.69-.69,1.35-.31,1.67-.04.45.38,1.75,1.35,3.37,1.24.65-.04,2.3-.77,3.18-1.56.88-.8,1.13-1.74,1.2-2.06l-.27-3.43Z"/>
    <path class="cls-2" d="M1055.95,287.57c-.05-1.13-.15-4.88.06-5.18.43-.63,1.35-1.65,2.13-1.95.81-.31,2.92-.38,3.72-.06.72.28,1.31,1.4,1.52,2.06.1.31.18,7.32.13,7.49-.28.91-.82,1.47-1.96,1.91-.87.34-2.51.33-2.51.33v2.5s2.54.02,3.32-.24c.71-.23,2-1.05,2.45-1.58.52-.61,1.31-2.02,1.45-2.77.35-1.91.18-5.9-.18-7.81-.24-1.26-.54-2.13-1.76-3.18-.57-.49-1.92-1.35-2.69-1.55-.85-.21-2.63-.27-3.47-.02-.67.2-2.21.84-2.69,1.3-.62.58-1.73,1.88-2.13,3.15-.65,2.03.28,7.92.28,7.92,0,0,.3,1.97,2.04,3.37,1.42,1.15,3.72,1.39,3.72,1.39l.1-2.47s-2.08-.8-2.6-1.46c0,0-.83-1.22-.91-3.17Z"/>
    <path class="cls-2" d="M1059.68,284.02l5-6.98s.96-.87,1.92-.33c.92.52.48,1.52.48,1.52l-12.27,17.32s-1.2.57-2.07-.08c-.9-.68-.42-1.75-.42-1.75l6.96-9.24"/>
    <path class="cls-2" d="M555.46,102.26c.02-1.06.89-1.9,1.95-1.88,1.06.02,1.9.89,1.88,1.95-.02,1.06-.89,1.9-1.95,1.88s-1.9-.89-1.88-1.95Z"/>
    <path class="cls-2" d="M555.45,107.91c.02-1.06.89-1.9,1.95-1.88,1.06.02,1.9.89,1.88,1.95-.02,1.06-.89,1.9-1.95,1.88s-1.9-.89-1.88-1.95Z"/>
    <path class="cls-2" d="M556.51,93.38l-2.03,1.92s-.89.3-1.19-.18c-.28-.45.06-1.13.06-1.13l2.97-2.12-3.09-2.16s-.27-.71,0-1.09c.31-.42,1.02-.22,1.02-.22l2.26,2.11.05-2.42s.36-.58.8-.57c.55,0,.66.64.66.64l-.04,2.4,2.63-2.18s.64-.24,1.01.07c.41.35.07,1.12.07,1.12l-2.99,2.14,2.9,2.21s.35.72.1,1.12c-.29.46-1.08.3-1.08.3l-2.57-2.03-.05,2.32s-.24.72-.71.71c-.51,0-.68-.74-.68-.74l.03-2.36"/>
    <path class="cls-2" d="M609.48,105.15h4.99s.92.13.92.72-.85.88-.85.88l-9.87.17s-.88-.03-.88-.85c0-.93.93-.85.93-.85l4.17-.07"/>
    <path class="cls-2" d="M611.14,93.61h2.29s.86-.02.92.82c.06.87-1,.93-1,.93l-6.87.12s-.88-.03-.88-.85c0-.93.83-1,.83-1l4.02-.02c.02.05.68,0,.68,0Z"/>
    <path class="cls-2" d="M610.99,88.81h2.29s.86-.02.92.82c.06.87-1,.93-1,.93l-6.87.12s-.88-.03-.88-.85c0-.93.83-1,.83-1l4.02-.02c.02.05.68,0,.68,0Z"/>
    <path class="cls-1" d="M756.4,37.76v-3.65s.13-.33.33-.39c.35-.11.83-.06.83-.06l-.07,1.39-.05,2.14s.74.1,1.08-.11c.42-.26.63-.63.63-1.17,0-.41-.4-.69-.8-.82-.4-.14-.97-.03-.97-.03l.04-1.39s1.05-.04,1.39.03c.31.06.73.3,1.02.74.3.45.36.54.46,1.01.12.54.18.96-.05,1.43-.22.46-.59.77-.59.77,0,0,.63.36.89,1,.22.52.14,1.18-.03,1.65-.14.38-.6,1.12-.96,1.3-.49.24-2.16.17-2.16.17l-.08-1.28s1.38.11,1.83-.11c.32-.16.49-.61.43-1-.09-.6-.56-.89-.82-.95-.39-.09-1.24-.03-1.24-.03v2.21s-.02,1.18-.02,1.18c0,0-.54.04-.71-.03-.13-.05-.39-.35-.39-.35v-3.57s.03-.24,0-.07Z"/>
    <path class="cls-1" d="M763.15,38.19l-.05,3.25s-.26.35-.63.33c-.39-.02-.55-.38-.55-.38l-.05-7.77,1.23.02v1.29s-.02,2.3-.02,2.3c0,0,.84.04,1.08-.08.21-.1.36-.29.5-.6.16-.35.16-.79,0-1.14-.16-.34-.59-.38-.85-.45-.34-.1-.79-.02-.79-.02v-1.29s1.31-.06,1.85.24c.52.29.76.84.85,1.2.08.33.13.85.1,1.31-.02.37-.11.73-.44,1.06-.3.29-.61.5-.61.5l.43,1.19.61,1.77s.13.61-.25.78c-.53.23-.82-.27-.82-.27l-.79-2.97s-.2-.18-.29-.21l-.5-.07Z"/>
    <path class="cls-2" d="M711.96,224.23l-.05,3.37s-.26.37-.63.35c-.39-.02-.55-.39-.55-.39l-.05-8.07,1.23.02v1.34s-.03,2.39-.03,2.39c0,0,.84.04,1.08-.08.21-.11.36-.3.5-.63.16-.36.16-.82,0-1.19-.16-.36-.59-.39-.85-.47-.34-.1-.79-.03-.79-.03v-1.34s1.31-.06,1.85.25c.52.3.76.87.85,1.25.08.35.13.89.1,1.36-.02.38-.11.76-.44,1.1-.3.31-.61.52-.61.52l.43,1.24.6,1.84s.13.63-.25.81c-.53.24-.82-.28-.82-.28l-.79-3.08s-.2-.18-.29-.21l-.5-.07Z"/>
    <path class="cls-2" d="M933.27,286.65l-.05,3.37s-.26.37-.63.34c-.39-.02-.55-.39-.55-.39l-.05-8.07,1.23.02v1.34s-.03,2.39-.03,2.39c0,0,.84.04,1.08-.08.21-.11.36-.3.5-.63.16-.36.16-.82,0-1.19-.16-.36-.59-.39-.85-.47-.34-.1-.79-.03-.79-.03v-1.34s1.31-.06,1.85.25c.52.3.76.87.85,1.25.08.35.13.89.1,1.36-.02.38-.11.76-.44,1.1-.3.31-.61.52-.61.52l.43,1.24.6,1.84s.13.63-.25.81c-.53.24-.82-.28-.82-.28l-.79-3.08s-.2-.18-.29-.21l-.5-.07Z"/>
    <path class="cls-1" d="M768.27,34.92l2.46.05s.6-.04.61-.62c0-.55-.53-.66-.53-.66,0,0-2.72-.11-2.88-.09-.53.06-.88.17-.89.62,0,.22-.04,6.71-.03,6.91.03.37.33.61.82.62.22,0,2.91.05,2.91.05,0,0,.52-.36.53-.82,0-.47-.49-.84-.49-.84l-2.45-.03-.06-1.69h1.9s.41-.17.42-.66c0-.39-.4-.64-.4-.64l-1.95-.07.02-2.13Z"/>
    <path class="cls-2" d="M722.8,95.78l4.56-.04s.5-.15.5-.74-.49-.71-.49-.71c0,0-4.82-.02-4.98,0-.53.07-1.03-.02-1.03.45,0,.22-.03,7.58,0,7.79.04.37.44.66.94.66.22,0,5.16-.1,5.16-.1,0,0,.51-.22.51-.69s-.5-.69-.5-.69l-4.55.07-.04-2.46,2.65-.04s.51-.18.51-.67c0-.4-.46-.59-.46-.59h-2.75s-.02-2.24-.02-2.24Z"/>
    <path class="cls-2" d="M748.05,95.53l4.56-.04s.5-.15.5-.74-.49-.71-.49-.71c0,0-4.82-.02-4.98,0-.53.07-1.03-.02-1.03.45,0,.22-.03,7.58,0,7.79.04.37.44.66.94.66.22,0,5.16-.1,5.16-.1,0,0,.51-.22.51-.69s-.5-.69-.5-.69l-4.55.07-.04-2.46,2.65-.04s.51-.18.51-.67c0-.4-.46-.59-.46-.59h-2.75s-.02-2.24-.02-2.24Z"/>
    <path class="cls-1" d="M773.75,40.58l-.17.76s-.28.5-.78.35c-.49-.15-.52-.59-.52-.59l1.78-6.94s.15-.55.59-.54c.42,0,.55.5.55.5l1.77,7.02s.09.49-.41.65c-.44.13-.67-.18-.67-.18l-1.22-5.53-.79,3.19,1.67-.02.3,1.34-2.1-.02Z"/>
    <path class="cls-2" d="M700.94,220.84l2.46.05s.6-.04.61-.64c0-.57-.53-.68-.53-.68,0,0-2.72-.11-2.88-.1-.53.06-.88.17-.89.65,0,.23-.05,6.95-.03,7.17.03.38.33.63.82.64.22,0,2.91.05,2.91.05,0,0,.52-.37.53-.86,0-.49-.49-.87-.49-.87l-2.45-.03-.06-1.75h1.9s.41-.18.42-.69c0-.41-.4-.66-.4-.66l-1.95-.07.02-2.21Z"/>
    <path class="cls-2" d="M922.25,283.26l2.46.05s.6-.04.61-.64c0-.57-.53-.68-.53-.68,0,0-2.72-.11-2.88-.1-.53.06-.88.17-.89.65,0,.23-.05,6.95-.03,7.17.03.38.33.63.82.64.22,0,2.91.05,2.91.05,0,0,.52-.37.53-.86,0-.49-.49-.87-.49-.87l-2.45-.03-.06-1.75h1.9s.41-.18.42-.69c0-.41-.4-.66-.4-.66l-1.95-.07.02-2.21Z"/>
    <path class="cls-2" d="M706.46,226.67l-.17.79s-.29.52-.79.36c-.49-.15-.53-.61-.53-.61l1.8-7.18s.15-.56.6-.56c.42,0,.56.52.56.52l1.78,7.27s.09.51-.42.67c-.45.14-.67-.19-.67-.19l-1.23-5.72-.8,3.3,1.69-.02.31,1.38-2.12-.02Z"/>
    <path class="cls-2" d="M927.77,289.09l-.17.79s-.29.52-.79.36c-.49-.15-.53-.61-.53-.61l1.8-7.18s.15-.56.6-.56c.42,0,.56.52.56.52l1.78,7.27s.09.51-.42.67c-.45.14-.67-.18-.67-.18l-1.23-5.72-.8,3.3,1.69-.02.31,1.38-2.12-.02Z"/>
    <path class="cls-1" d="M777.95,37.53v-3.43s.14-.51.67-.48c.56.03.58.48.58.48v2.23s1.64-2.3,1.64-2.3c0,0,.46-.32.86.02.42.35.05.89.05.89l-1.79,2.62,1.7,2.74s.21.7-.12,1.01c-.3.29-.74.04-.74.04l-1.62-2.41v2.38s-.17.45-.61.45c-.49,0-.65-.43-.65-.43l.04-3.36-.02-.45Z"/>
    <path class="cls-2" d="M731.3,97.19l-.06,5.52s-.1.71-.79.71c-.76,0-.87-.75-.87-.75l.06-7.6s-.11-.7.52-.92c.66-.23,1.12.18,1.12.18l3.74,5.59.1-5.24s.12-.65.74-.65c.7,0,.9.67.9.67l.1,7.73s.05.7-.66.92c-.7.22-1.24-.42-1.24-.42l-3.2-5.12"/>
    <path class="cls-2" d="M740.83,95.65h-2.12s-.59-.22-.59-.84.46-.77.46-.77h6.15s.53.18.51.84c-.02.53-.45.66-.45.66l-2.36.05.07,6.94s-.26.7-.89.7c-.68,0-.73-.81-.73-.81l-.11-6.41.06-.35Z"/>
    <path class="cls-2" d="M756.48,98.04c.19.12,2.74.06,3.15-.05.64-.18.91-.67.91-1.29,0-.56-.44-1-1.13-1.16-.75-.17-3.22-.11-3.22-.11v-1.51s3.23,0,3.23,0c0,0,1.72.22,2.21,1.23.55,1.13.36,2.47.12,2.91-.42.76-1.17,1.17-1.17,1.17l1.4,2.86s.31.54-.1.86c-.38.31-1,0-1,0,0,0-1.62-3.27-1.96-3.43-.3-.15-2.35-.06-2.35-.06l-.11,2.94s-.25.72-.88.65c-.6-.07-.65-.75-.65-.75,0,0-.16-7.33-.14-7.5.08-.71.23-.87.61-.89.08,0,.99-.03.99-.03,0,0-.07,4.07.09,4.17Z"/>
    <path class="cls-1" d="M1067.96,345.89l4.56-.04s.5-.15.5-.74-.49-.71-.49-.71c0,0-4.82-.02-4.98,0-.53.07-1.03-.02-1.03.45,0,.22-.03,7.58,0,7.79.04.37.44.66.94.66.22,0,5.16-.1,5.16-.1,0,0,.51-.22.51-.69s-.5-.69-.5-.69l-4.55.07-.04-2.46,2.65-.04s.51-.18.51-.67c0-.4-.46-.59-.46-.59h-2.75s-.02-2.24-.02-2.24Z"/>
    <path class="cls-1" d="M1093.21,345.64l4.56-.04s.5-.15.5-.74-.49-.71-.49-.71c0,0-4.82-.02-4.98,0-.53.07-1.03-.02-1.03.45,0,.22-.03,7.58,0,7.79.04.37.44.66.94.66.22,0,5.16-.1,5.16-.1,0,0,.51-.22.51-.69s-.5-.69-.5-.69l-4.55.07-.04-2.46,2.65-.04s.51-.18.51-.67c0-.4-.46-.59-.46-.59h-2.75s-.02-2.24-.02-2.24Z"/>
    <path class="cls-1" d="M1076.47,347.3l-.06,5.52s-.1.71-.79.71c-.76,0-.87-.75-.87-.75l.06-7.6s-.11-.7.52-.92c.66-.23,1.12.18,1.12.18l3.74,5.59.1-5.24s.12-.65.74-.65c.7,0,.9.67.9.67l.1,7.73s.05.7-.66.92c-.7.22-1.24-.42-1.24-.42l-3.2-5.12"/>
    <path class="cls-1" d="M1085.99,345.76h-2.12s-.59-.22-.59-.84.46-.77.46-.77h6.15s.53.18.51.84c-.02.53-.45.66-.45.66l-2.36.05.07,6.94s-.26.7-.89.7c-.68,0-.73-.81-.73-.81l-.11-6.41.06-.35Z"/>
    <path class="cls-1" d="M1101.65,348.16c.19.12,2.74.06,3.15-.05.64-.18.91-.67.91-1.29,0-.56-.44-1-1.13-1.16-.75-.17-3.22-.11-3.22-.11v-1.51s3.23,0,3.23,0c0,0,1.72.22,2.21,1.23.55,1.13.36,2.47.12,2.91-.42.76-1.17,1.17-1.17,1.17l1.4,2.86s.31.54-.1.86c-.38.31-1,0-1,0,0,0-1.62-3.27-1.96-3.43-.3-.15-2.35-.06-2.35-.06l-.11,2.94s-.25.72-.88.65c-.6-.07-.65-.75-.65-.75,0,0-.16-7.33-.14-7.5.08-.71.23-.87.61-.89.08,0,.99-.03.99-.03,0,0-.07,4.07.09,4.17Z"/>
    <path class="cls-1" d="M33.32,347.65s-1.18-.24-1.51-.3c-.34-.07-.92-.48-.83-1.07.08-.51.81-.68,1.23-.76.66-.13.97,0,1.37.12.48.14.69.56.93.72.25.16.81.29,1.17-.12.4-.45.3-1.11.09-1.39-.22-.29-.86-.91-1.48-1.08-.85-.22-1.73-.35-2.52-.22-.97.17-1.07.2-1.74.72-.64.49-.88.89-.93,1.56-.06.76-.08,1.04.23,1.76.32.74.79,1.14,1.22,1.31.66.26,1.68.34,2.2.46.4.09,1.34.35,1.51.53.3.33.32.67.23.97-.06.2-.45.58-.68.68-.3.12-.96.19-1.28.15-.39-.04-1.28-.24-1.57-.53-.33-.33-.52-.58-.73-.73-.22-.15-.59-.25-1.07.13-.42.33-.31,1.07-.15,1.34.26.46.78.95,1.48,1.35.23.13.46.23.69.31.49.15,1.02.19,1.65.13.78-.07,1.58-.29,2.25-.72.67-.42,1.06-1.2,1.25-1.83.19-.63.15-1.29-.12-1.76-.34-.61-.93-1.2-1.7-1.44"/>
    <path class="cls-2" d="M102.76,347.78s-.8-.24-1.03-.3c-.23-.07-.63-.48-.56-1.07.05-.51.55-.68.84-.76.45-.13.66,0,.93.12.33.14.47.56.64.72.17.16.55.29.8-.12.27-.45.2-1.11.06-1.39-.15-.29-.59-.91-1.01-1.08-.58-.22-1.18-.35-1.71-.22-.66.17-.73.2-1.18.72-.44.49-.6.89-.64,1.56-.04.76-.06,1.04.16,1.76.22.74.54,1.14.83,1.31.45.26,1.14.34,1.49.46.28.09.92.35,1.03.53.21.33.22.67.16.97-.04.2-.31.58-.47.68-.2.12-.65.19-.87.15-.27-.04-.87-.24-1.07-.53-.22-.33-.35-.58-.5-.73-.15-.15-.4-.25-.73.13-.29.33-.21,1.07-.1,1.34.18.46.53.95,1.01,1.35.15.13.31.23.47.31.33.15.69.19,1.12.13.53-.07,1.08-.29,1.53-.72.46-.42.72-1.2.85-1.83.13-.63.1-1.29-.08-1.76-.23-.61-.63-1.2-1.15-1.44"/>
    <path class="cls-1" d="M39.24,347.51l.04-3.21s.04-.89-.81-.86c-.69.02-.75.89-.75.89l-.08,8.08s.06.96.87.98c.77.01.79-.93.79-.93l.05-3.21h4.02s-.06,3.29-.06,3.29c0,0,.06.89.91.9.69.01.73-.89.73-.89l.09-8.26s-.04-.74-.8-.76c-.65-.01-.76.76-.76.76l-.03,3.31-4.22-.09Z"/>
    <path class="cls-2" d="M106.79,347.65l.03-3.21s.02-.89-.55-.86c-.47.02-.51.89-.51.89l-.05,8.08s.04.96.59.98c.53.01.54-.93.54-.93l.03-3.21h2.74s-.04,3.29-.04,3.29c0,0,.04.89.62.9.47.01.5-.89.5-.89l.06-8.26s-.03-.74-.54-.76c-.44-.01-.52.76-.52.76l-.02,3.31-2.87-.09Z"/>
    <path class="cls-1" d="M46.87,347.98l.13-3.58s.04-.93.88-.91c.74.01.67,1,.67,1v8.03s-.06.8-.88.79c-.82-.01-.86-.81-.86-.81l.07-3.82v-.7Z"/>
    <path class="cls-2" d="M111.97,348.12l.09-3.58s.03-.93.6-.91c.5.01.45,1,.45,1v8.03s-.04.8-.6.79c-.56-.01-.59-.81-.59-.81l.05-3.82v-.7Z"/>
    <path class="cls-1" d="M52.04,347.47l.07-2.06,4.89.06s.87-.13.88-.88c.01-.72-.84-.92-.84-.92,0,0-5.02-.06-5.27-.07-.82-.01-1.23,0-1.24.66,0,.28-.04,8.11-.04,8.11,0,0-.12.88.77.89.8.01.79-.83.79-.83l.04-3.22,3.47.03s.85-.13.86-.81c.01-.66-.74-.93-.74-.93h-2.95"/>
    <path class="cls-2" d="M115.49,347.6l.05-2.06,3.33.06s.59-.13.6-.88c0-.72-.57-.92-.57-.92,0,0-3.42-.06-3.59-.07-.56-.01-.84,0-.85.66,0,.28-.03,8.11-.03,8.11,0,0-.08.88.52.89.54.01.53-.83.53-.83l.02-3.22,2.36.03s.58-.13.59-.81c0-.66-.51-.93-.51-.93h-2.01"/>
    <path class="cls-1" d="M63.35,345.26l1.99.02s.77-.22.78-.79c.01-.63-.68-.93-.68-.93h-5.86s-.64.19-.65.83c0,.55.69.76.69.76l2.1.11-.07,7.02s.07.84.72.85c.73.01.82-.8.82-.8l.14-6.41"/>
    <path class="cls-2" d="M123.19,345.39l1.36.02s.53-.22.53-.79c0-.63-.46-.93-.46-.93h-3.99s-.44.19-.44.83c0,.55.47.76.47.76l1.43.11-.05,7.02s.05.84.49.85c.5.01.55-.8.55-.8l.09-6.41"/>
    <path class="cls-1" d="M164.29,348.23s-1.18-.24-1.51-.3c-.34-.07-.92-.48-.83-1.07.08-.51.81-.68,1.23-.76.66-.13.97,0,1.37.12.48.14.69.56.93.72.25.16.81.29,1.17-.12.4-.45.3-1.11.09-1.39-.22-.29-.86-.91-1.48-1.08-.85-.22-1.73-.35-2.52-.22-.97.17-1.07.2-1.74.72-.64.49-.88.89-.93,1.56-.06.76-.08,1.04.23,1.76.32.74.79,1.14,1.22,1.31.66.26,1.68.34,2.2.46.4.09,1.34.35,1.51.53.31.33.32.67.23.97-.06.2-.45.58-.68.68-.3.12-.96.19-1.28.15-.39-.04-1.28-.24-1.57-.53-.33-.33-.52-.58-.73-.73-.22-.15-.59-.25-1.07.13-.42.33-.31,1.07-.15,1.34.26.46.78.95,1.48,1.35.23.13.46.23.69.31.49.15,1.02.19,1.65.13.78-.07,1.58-.29,2.25-.72.67-.42,1.06-1.2,1.25-1.83.19-.63.15-1.29-.12-1.76-.34-.61-.93-1.2-1.7-1.44"/>
    <path class="cls-1" d="M170.22,348.09l.04-3.21s.04-.89-.81-.86c-.69.02-.75.89-.75.89l-.08,8.08s.06.96.87.98c.77.01.79-.93.79-.93l.05-3.21h4.02s-.06,3.29-.06,3.29c0,0,.06.89.91.9.69.01.73-.89.73-.89l.09-8.26s-.04-.74-.8-.76c-.65-.01-.76.76-.76.76l-.03,3.31-4.22-.09Z"/>
    <path class="cls-1" d="M177.84,348.56l.13-3.58s.04-.93.88-.91c.74.01.67,1,.67,1v8.03s-.06.8-.88.79c-.82-.01-.86-.81-.86-.81l.07-3.82v-.7Z"/>
    <path class="cls-1" d="M183.01,348.05l.07-2.06,4.89.06s.87-.13.88-.88c.01-.72-.84-.92-.84-.92,0,0-5.02-.06-5.27-.07-.82-.01-1.23,0-1.24.66,0,.28-.04,8.11-.04,8.11,0,0-.12.88.77.89.8.01.79-.83.79-.83l.04-3.22,3.47.03s.85-.13.86-.81c.01-.66-.75-.93-.75-.93h-2.95"/>
    <path class="cls-1" d="M194.32,345.84l1.99.02s.77-.22.78-.79c.01-.63-.68-.93-.68-.93h-5.86s-.64.19-.65.83c0,.55.69.76.69.76l2.1.11-.07,7.02s.07.84.72.85c.73.01.82-.8.82-.8l.14-6.41"/>
    <path class="cls-2" d="M749.64,346.72s-1.18-.24-1.51-.3c-.34-.07-.92-.48-.83-1.07.08-.51.81-.68,1.23-.76.66-.13.97,0,1.37.12.48.14.69.56.93.72.25.16.81.29,1.17-.12.4-.45.3-1.11.09-1.39-.22-.29-.86-.91-1.48-1.08-.85-.22-1.73-.35-2.52-.22-.97.17-1.07.2-1.74.72-.64.49-.88.89-.93,1.56-.06.76-.08,1.04.23,1.76.32.74.79,1.14,1.22,1.31.66.26,1.68.34,2.2.46.4.09,1.34.35,1.51.53.31.33.32.67.23.97-.06.2-.45.58-.68.68-.3.12-.96.19-1.28.15-.39-.04-1.28-.24-1.57-.53-.33-.33-.52-.58-.73-.73-.22-.15-.59-.25-1.07.13-.42.33-.31,1.07-.15,1.34.26.46.78.95,1.48,1.35.23.13.46.23.69.31.49.15,1.02.19,1.65.13.78-.07,1.58-.29,2.25-.72.67-.42,1.06-1.2,1.25-1.83.19-.63.15-1.29-.12-1.76-.34-.61-.93-1.2-1.7-1.44"/>
    <path class="cls-2" d="M755.56,346.59l.04-3.21s.04-.89-.81-.86c-.69.02-.75.89-.75.89l-.08,8.08s.06.96.87.98c.77.01.79-.93.79-.93l.05-3.21h4.02s-.06,3.29-.06,3.29c0,0,.06.89.91.9.69.01.73-.89.73-.89l.09-8.26s-.04-.74-.8-.76c-.65-.01-.76.76-.76.76l-.03,3.31-4.22-.09Z"/>
    <path class="cls-2" d="M763.18,347.06l.13-3.58s.04-.93.88-.91c.74.01.67,1,.67,1v8.03s-.06.8-.88.79c-.82-.01-.86-.81-.86-.81l.07-3.82v-.7Z"/>
    <path class="cls-2" d="M768.36,346.54l.07-2.06,4.89.06s.87-.13.88-.88c.01-.72-.84-.92-.84-.92,0,0-5.02-.06-5.27-.07-.82-.01-1.23,0-1.25.66,0,.28-.04,8.11-.04,8.11,0,0-.12.88.77.89.8.01.79-.83.79-.83l.04-3.22,3.47.03s.85-.13.86-.81c.01-.66-.75-.93-.75-.93h-2.95"/>
    <path class="cls-2" d="M779.67,344.33l1.99.02s.77-.22.78-.79c.01-.63-.68-.93-.68-.93h-5.86s-.64.19-.65.83c0,.55.69.76.69.76l2.1.11-.07,7.02s.07.84.72.85c.73.01.82-.8.82-.8l.14-6.41"/>
    <path class="cls-2" d="M566.13,346.81s-1.18-.24-1.51-.3c-.34-.07-.92-.48-.83-1.07.08-.51.81-.68,1.23-.76.66-.13.97,0,1.37.12.48.14.69.56.93.72.25.16.81.29,1.17-.12.4-.45.3-1.11.09-1.39-.22-.29-.86-.91-1.48-1.08-.85-.22-1.73-.35-2.52-.22-.97.17-1.07.2-1.74.72-.64.49-.88.89-.93,1.56-.06.76-.08,1.04.23,1.76.32.74.79,1.14,1.22,1.31.66.26,1.68.34,2.2.46.4.09,1.34.35,1.51.53.31.33.32.67.23.97-.06.2-.45.58-.68.68-.3.12-.96.19-1.28.15-.39-.04-1.28-.24-1.57-.53-.33-.33-.52-.58-.73-.73-.22-.15-.59-.25-1.07.13-.42.33-.31,1.07-.15,1.34.26.46.78.95,1.48,1.35.23.13.46.23.69.31.49.15,1.02.19,1.65.13.78-.07,1.58-.29,2.25-.72.67-.42,1.06-1.2,1.25-1.83.19-.63.15-1.29-.12-1.76-.34-.61-.93-1.2-1.7-1.44"/>
    <path class="cls-2" d="M572.05,346.68l.04-3.21s.04-.89-.81-.86c-.69.02-.75.89-.75.89l-.08,8.08s.06.96.87.98c.77.01.79-.93.79-.93l.05-3.21h4.02s-.06,3.29-.06,3.29c0,0,.06.89.91.9.69.01.73-.89.73-.89l.09-8.26s-.04-.74-.8-.76c-.65-.01-.76.76-.76.76l-.03,3.31-4.22-.09Z"/>
    <path class="cls-2" d="M579.67,347.15l.13-3.58s.04-.93.88-.91c.74.01.67,1,.67,1v8.03s-.06.8-.88.79c-.82-.01-.86-.81-.86-.81l.07-3.82v-.7Z"/>
    <path class="cls-2" d="M584.85,346.63l.07-2.06,4.89.06s.87-.13.88-.88c.01-.72-.84-.92-.84-.92,0,0-5.02-.06-5.27-.07-.82-.01-1.23,0-1.25.66,0,.28-.04,8.11-.04,8.11,0,0-.12.88.77.89.8.01.78-.83.78-.83l.04-3.22,3.47.03s.85-.13.86-.81c.01-.66-.75-.93-.75-.93h-2.95"/>
    <path class="cls-2" d="M596.16,344.42l1.99.02s.77-.22.78-.79c.01-.63-.68-.93-.68-.93h-5.86s-.64.19-.65.83c0,.55.69.76.69.76l2.1.11-.07,7.02s.07.84.72.85c.73.01.82-.8.82-.8l.14-6.41"/>
    <path class="cls-2" d="M166.41,166.28l-1.28-.77s-.58-.25-.97.22c-.47.56.2,1.07.2,1.07l1.06.7,2.58,1.84s.69.13,1-.35c.29-.46,0-.89,0-.89l-1.08-.85s.57-1.07.87-3.02c.33-2.18.15-4.03-.17-5.24-.22-.84-.78-2.3-1.55-3.11-.68-.72-2.55-1.9-4.82-.84-1.72.8-2.39,2.73-2.73,3.84-.42,1.37-.24,3.97-.03,5.22.15.85.49,2.45.96,3.17.68,1.05,1.48,1.74,2.12,2.01.76.33,2.14.25,2.83.14.48-.08,1.75-.86,1.75-.86l-1.57-1.07s-.72.61-2.52-.21c-1.8-.82-2.14-3.6-2.19-4.76-.06-1.23-.1-2.62.2-3.39.34-.88.82-1.87,1.36-2.23.78-.51,1.47-.52,2.37-.3,1,.24,1.45.99,1.72,1.56.52,1.07.94,3.07.75,4.72-.21,1.88-.25,1.81-.43,2.37l-.45,1.02Z"/>
    <path class="cls-2" d="M214.32,162.73l1.65-7.14s.16-.96.82-.96.68.86.68.86l1.63,7.33,1.36-7.4s0-.95.76-.81c.61.11.56.95.56.95l-1.67,12.01s-.12,1.32-.83,1.32c-.78,0-.86-1.35-.86-1.35l-1.68-7-1.53,7.42s-.09.93-.88.93-.96-1.14-.96-1.14l-1.72-11.91s-.25-.99.66-1.15c.76-.14.93.72.93.72l1,6.85"/>
    <path class="cls-2" d="M266.07,160.83l.04-4.65,6.45-.06s.68-.12.68-.78-.68-.85-.68-.85c0,0-6.31-.03-6.5-.03-1.29.04-1.61.17-1.61,1.14,0,.19-.06,12.25-.06,12.43,0,.76.16.99.86.99.2,0,7.5-.08,7.5-.08,0,0,.83-.15.83-.82s-.89-.93-.89-.93l-6.55-.02v-4.61s5.12-.01,5.12-.01c0,0,.68-.25.68-.81,0-.6-.63-.86-.63-.86l-3.93-.05"/>
    <path class="cls-2" d="M318.76,155.98s1.9-.12,2.95.07c.92.17,1.83.59,2.19,1.1.27.38.43,1.43.28,1.86-.22.62-.9,1.6-1.75,1.8-.2.05-3.85-.04-3.85-.04l-.02,1.62h2.82s2.58,6.33,2.58,6.33c0,0,.55.49,1.09.24.61-.28.56-.86.56-.86l-2.66-5.76s.9-.26,1.36-.67c.58-.51,1.03-1.3,1.24-1.76.26-.56.2-1.77.11-2.29-.09-.55-.58-1.55-.96-1.96-.42-.46-1.49-1.01-2.09-1.16-1.1-.27-4.29-.17-4.51-.18-.6-.02-.82.39-.83.74,0,.25-.16,12.99-.16,12.99,0,0,.07.96.76.96.73,0,1.01-.94,1.01-.94l-.13-10.52"/>
    <path class="cls-2" d="M374.7,155.95l.03,12.29s-.16.81-.91.81c-.85,0-.97-.83-.97-.83l.17-12.3-3.3.06s-.81-.2-.79-.91c.02-.65.68-.73.68-.73l8.33-.04s.73.2.73.88c0,.72-.73.78-.73.78h-2.91"/>
    <path class="cls-2" d="M426.46,160l2.91-5.09s.53-1,1.26-.58c.71.41.26,1.41.26,1.41l-3.5,5.76-.02,6.83s-.27.81-.99.81c-.75,0-.97-.88-.97-.88l.05-6.73-3.6-5.87s-.43-.85.18-1.28c.58-.41,1.15.28,1.15.28l3.08,5.05"/>
    <path class="cls-2" d="M476.3,162.42l.02-6.69s.07-1.41-.95-1.41-.97,1.43-.97,1.43c0,0,.04,9.59.07,9.78.23,1.52,1.73,3,2.61,3.39.96.42,2.76.26,3.74-.1.94-.35,2.24-2.02,2.34-3.33.01-.19-.11-9.91-.11-9.91,0,0,.13-1.39-.82-1.39-1.02,0-.87,1.36-.87,1.36,0,0,.1,9.15.02,9.34-.12.28-.8,2.61-2.54,2.55-1.53-.05-2.39-2.14-2.45-2.49s-.05-1.43-.05-1.43"/>
    <path class="cls-2" d="M530.53,160.6l.05-5.14s-.15-1.24.63-1.26c.82-.02.73,1.22.73,1.22l.1,12.14s.08,1.17-.78,1.15c-.91-.02-.75-1.19-.75-1.19v-5.59"/>
    <path class="cls-2" d="M580.37,161.73s-.02-1.95.12-2.56c.16-.72.63-1.94,1.13-2.43.41-.42,1.66-.92,2.25-.89.61.03,1.74.58,2.19,1.01.45.42.77,1.49.91,2.09.15.63.25,1.99.26,2.63.01.58-.1,1.8-.21,2.36-.12.61-.61,1.77-1.03,2.24-.4.45-1.6.95-2.2.96-.55,0-1.66-.42-2.03-.81-.46-.48-1.02-1.72-1.17-2.37-.13-.58-.21-2.36-.21-2.36l-1.54-.02s.08,2.09.21,2.78c.16.89,1,2.68,1.64,3.32.63.62,1.9,1.22,2.79,1.26,1.36.06,2.89-.53,3.54-1.19.61-.62,1.32-2.48,1.49-3.33.18-.92.24-3.73.06-5.03-.12-.84-.85-3.2-1.53-3.92-.61-.64-1.95-1.36-3.3-1.36s-2.58.7-3.22,1.31c-.69.66-1.28,2.08-1.59,3.34-.17.72-.1,2.95-.1,2.95l1.52.02Z"/>
    <path class="cls-2" d="M633.31,158.35l.02-2.59s2.75-.19,3.61.03c.45.11,1.23.58,1.48.98.29.46.31,1.64.13,2.17-.17.5-.99,1.17-1.54,1.39-.89.34-3.91.23-3.91.23l.03,1.75s3.09.24,4.07-.04c.89-.26,1.85-.83,2.47-1.7.5-.7.65-1.92.63-2.58-.02-.81-.59-2.26-1.19-2.79-.4-.36-1.33-1-2.09-1.16-.21-.04-4.15-.04-4.24-.05-.96-.02-1.1.24-1.13.69,0,.11-.05,13.25-.05,13.25,0,0-.02.96.84.98.82.01.95-.97.95-.97l-.07-8.61-.02-.97Z"/>
    <path class="cls-2" d="M178.1,219.85l1.67,6.3h-3.79s-.39,1.67-.39,1.67l4.56-.07s.76,2.41,1.07,3.18c.11.27.39.8.97.61.59-.19.57-.69.54-1.01,0-.05-3.62-12.91-3.64-13-.08-.33-.25-.95-.94-.96-.62-.01-.91.57-1.04.89-.05.13-3.78,12.65-3.82,12.79-.1.38-.1.81.48,1.08.56.25,1.06-.09,1.17-.38.05-.14,2.4-8.3,2.4-8.3l.75-2.81Z"/>
    <path class="cls-2" d="M228.04,221.06c.06-.54.17-.89.47-1.34.34-.52.91-.89,1.31-.97.54-.11,1.74,0,2.19.32.66.48.78,1.01.88,1.41.08.32.05,1.05.96.91.86-.13.86-.75.81-1.08-.12-.84-.36-1.82-1.15-2.44-1.04-.82-2.04-1.09-3.37-1.01-.94.06-2,.65-2.62,1.26-.55.55-1.06,1.86-1.06,2.93s.63,2.55,1.29,2.98c1,.65,2.3.96,3.12,1.13.77.16,1.95.83,2.39,1.27.36.36.6,1.39.32,2.04-.22.52-.95,1.25-1.5,1.4-.74.2-2.32.17-3.14-.18-.51-.22-1.11-1.19-1.32-1.71-.13-.33-.3-1.08-1.22-.83-.99.27-.64,1.38-.44,1.72.37.62,1.29,1.74,1.9,2.15.71.47,2.08.84,2.85.81.85-.03,2.58-.46,3.25-.98.54-.42,1.25-1.69,1.37-2.36.13-.75-.09-2.21-.52-2.83-.41-.6-1.58-1.48-2.24-1.76-.82-.34-2.45-.79-3.35-1-.44-.1-1.09-.88-1.09-1.33,0,0-.1-.4-.09-.49Z"/>
    <path class="cls-2" d="M279.72,219.24v-.92s2.44-.13,3.16.11c.92.3,2.3,1.51,2.77,2.58.45,1.02.6,1.85.57,3.1-.03,1.45-.53,2.4-1.2,3.5-.67,1.09-1.62,1.75-2.78,1.97-.68.13-2.78.06-2.78.06l-.1,1.6s3.15.04,3.28.02c.47-.05,2.72-.83,3.85-2.72,1.04-1.74,1.28-2.7,1.3-4.29.03-1.61-.16-2.89-1.01-4.51-1.04-1.97-2.91-2.65-3.63-2.92-.14-.05-3.73-.04-3.92-.05-.49,0-.9.14-.9.57,0,.12.01,12.81,0,12.95-.04.53.03.88.44.92.2.02.95-.02.95-.02v-11.29s0-.68,0-.68Z"/>
    <path class="cls-2" d="M332.19,223.27l.04-4.86s4.72.04,6.29-.06c.29-.02.84-.1.84-.77,0-.71-.4-.86-.86-.88-.17,0-6.71.04-6.9.04-.57.02-1.06.26-1.1.72-.01.17.07,12.96.06,13.02-.02.29.13.93.74.93.66,0,.79-.48.82-.91,0-.05.06-5.54.06-5.54,0,0,4.58-.09,4.7-.08.29.03.83-.15.83-.8s-.52-.83-.81-.84c-.11,0-4.11.05-4.11.05"/>
    <path class="cls-2" d="M390.76,225.39l-2.22.02s-.91-.09-.9-.88c.01-.78.81-.79.81-.79,0,0,2.68-.08,2.97-.06.78.05,1.02.34.99.86-.02.26-.08,6.14-.08,6.14,0,0-.05.83-.83.84-.73.01-.78-.96-.78-.96l-.02-.23s-1.43,1.12-2.86,1.23c-1.24.1-2.73-.47-3.37-1.13-1.08-1.12-1.61-3.24-1.83-4.41-.25-1.33-.05-2.92.14-4.34.16-1.18.65-2.47,1.49-3.43,1.02-1.17,1.91-1.44,2.76-1.6,1.01-.19,2.15.07,3.12.58,1.09.58,1.47,1.48,1.98,2.35.19.33.49.95-.19,1.51-.64.53-1.13-.12-1.32-.42-.27-.42-.81-1.43-1.19-1.75-.49-.4-1.44-.51-2.43-.34-1.05.18-1.7,1.13-1.98,1.78-.28.65-.58,1.63-.67,2.68-.09.99-.02,2.96.24,3.92.23.86,1.15,2.4,2.01,2.65.74.22,1.96.14,2.45-.15.69-.4,1.21-1.08,1.47-1.63.2-.42.25-1.45.26-1.92"/>
    <path class="cls-2" d="M443.55,223.15l-6.06-.02.05-5.57s0-.85-.7-.85c-.6,0-.71.77-.71.77l.03,12.98s.17.8.68.8c.43,0,.71-.75.71-.75l-.03-5.84,5.99.03.02,5.93s.05.76.68.76c.55,0,.73-.8.73-.8l-.06-12.99s-.06-.85-.69-.85-.68.85-.68.85l.05,4.97v.57Z"/>
    <path class="cls-2" d="M495.59,227.35c0-.2.01-7.36.09-9.77.01-.32.06-.98.87-.94.76.04.78.59.78.88,0,2.59-.19,10.2-.23,10.35-.2.83-1.09,2.29-1.76,2.82-.65.51-2.31.84-3.13.75-.85-.09-2.31-.87-2.83-1.55-.57-.76-.8-1.96-.92-2.83,0-.07-.18-.95.56-1.13.64-.15.82.52.85.82.03.43.24,1.32.47,1.68.36.57,1.27,1.32,2.28,1.39.89.06,1.45-.36,2.11-.83,0,0,.55-.64.63-.73,0,0,.22-.64.23-.92Z"/>
    <path class="cls-2" d="M542.54,221.89l.06-4.56s.12-1.05-.84-1.07c-.89-.02-.9,1.1-.9,1.1l.07,12.77s0,1.02.74,1.04c.72.01.83-.93.83-.93l.12-4.96,5.44,5.36s.71.91,1.36.34c.73-.65-.23-1.51-.23-1.51l-5.55-5.81,5.72-5.53s.7-.81.18-1.52c-.53-.7-1.46.17-1.46.17l-5.26,4.88"/>
    <path class="cls-2" d="M594.99,229.38l.15-12.09s.08-1.03-.85-1.04c-.85-.01-.9,1.04-.9,1.04,0,0,0,12.25,0,12.49-.05.73.14,1.23.82,1.38.17.04,6.9-.03,6.9-.03,0,0,.82.02.84-.75.01-.82-.9-.86-.9-.86l-5.69-.15"/>
    <path class="cls-2" d="M650.42,217.23l2.82-.08s.65-.09.65-.75-.65-.79-.65-.79h-2.87l-.04-2.77s-.07-.66-.7-.66-.74.65-.74.65v2.78s-2.92.07-2.92.07c0,0-.56.22-.54.77.02.46.6.77.6.77h2.95s.04,2.82.04,2.82c0,0,.05.7.7.7s.73-.72.73-.72l-.04-2.61.02-.19Z"/>
    <path class="cls-2" d="M647.86,226.95c0-1.01.82-1.84,1.84-1.84s1.84.82,1.84,1.84-.82,1.84-1.84,1.84-1.84-.82-1.84-1.84Z"/>
    <path class="cls-2" d="M648.13,232.75c0-.94.76-1.7,1.7-1.7s1.7.76,1.7,1.7-.76,1.7-1.7,1.7-1.7-.76-1.7-1.7Z"/>
    <path class="cls-2" d="M649.37,233.57s-.14.51-.28,1.2c-.07.36-.75,1.25-.75,1.25,0,0-.35.49.04.6.55.16,1.18-.08,1.31-.19.38-.32.99-1.23,1.25-1.69.23-.41.53-1.57.53-1.57l-1.76.27s-.13.02-.35.13Z"/>
    <path class="cls-2" d="M152.7,280.33s-5.99,12.05-6.06,12.2c-.31.7,0,1.52.72,1.52.22,0,6.89-.07,6.89-.07,0,0,.84-.08.84-.82s-.86-.8-.86-.8l-5.84-.03s6.15-12.28,6.24-12.46c.27-.53.09-1.2-.67-1.24-.23-.01-6.42.1-6.42.1,0,0-.84-.04-.84.91,0,.74.97.75.97.75l4.47-.06.56-.02Z"/>
    <path class="cls-2" d="M203.49,283.57l2.43-4.76s.45-.73,1.09-.41c.62.31.43,1.12.43,1.12l-2.96,6.02,3.26,6.68s.4.81-.25,1.22c-.63.4-1.21-.28-1.21-.28l-2.66-5.77-2.53,5.75s-.54.71-1.14.4c-.72-.37-.36-1.15-.36-1.15l3.06-6.95-2.71-5.75s-.37-1,.32-1.29c.72-.3,1.06.55,1.06.55l2,4.18"/>
    <path class="cls-2" d="M252.29,285.54s0-.39.01-.52c.06-.92.28-2.68.75-3.48.39-.67,1.42-1.74,2.59-1.74,1.08,0,1.89.36,2.37.92.53.62.79,1.44.87,1.97.05.3-.09.95.7.98.78.03.77-.58.74-.87-.08-.8-.56-2.23-1.23-3.07-.83-1.04-1.9-1.33-3.06-1.4-1.63-.09-2.72.64-3.61,1.46-.91.83-1.13,2.01-1.44,3.25-.29,1.16-.32,3.59-.17,4.78.15,1.19.71,3.06,1.81,4.43.8.98,2.04,1.31,2.82,1.31,1.28,0,2.3-.05,3.37-1.01.85-.77,1.2-1.98,1.46-2.83.09-.3.18-.89-.54-1.11-.72-.22-.89.39-.97.67-.13.43-.35,1.18-.86,1.75-.67.75-1.75.99-2.93.72-1.22-.28-1.61-.8-2.08-2.11-.7-1.94-.64-3.56-.64-3.56"/>
    <path class="cls-2" d="M308.04,290.07l2.99-10.9s.04-1.08,1.13-.82c.91.22.55,1.24.55,1.24l-3.65,12.86s-.13,1.18-1,1.14c-.86-.04-1-1.25-1-1.25l-3.84-12.75s-.37-.94.54-1.22c.91-.28,1.08.77,1.08.77l3.02,10.41"/>
    <path class="cls-2" d="M357.26,284.76s3.26,0,3.51-.08c.36-.12.9-.43,1.26-.75.57-.51.74-1.09.74-1.7,0-.66-.15-1.34-.76-1.79-.47-.35-.97-.65-1.34-.74-.19-.05-3.54.06-3.54.06v-1.66s2.9-.23,3.82.04c.72.21,1.69.64,2.41,1.5.51.61.7,1.31.76,2.15.04.54-.03,1.62-.26,2.01-.29.49-1.12,1.34-1.12,1.34,0,0,1.15.99,1.42,1.41.32.49.73,1.18.83,2.08.1.92.11,1.4-.31,2.25-.42.83-.52,1.09-1.3,1.72-.71.56-1.24.68-1.76.8-1.04.23-4.26.15-4.26.15v-1.71s2.83.1,3.75-.07c.58-.11,1.08-.33,1.44-.76.51-.61.7-.98.73-1.92.03-.86-.31-1.62-.74-2.11-.3-.34-1.03-.86-1.47-.96-.28-.06-3.69-.15-3.69-.15l.1,7.68s-.97,0-1.05,0c-.31,0-.58-.2-.55-.82,0-.1-.11-13.61-.11-13.66,0-.72.29-.96.74-.95.04,0,.73-.02.73-.02l.05,6.66Z"/>
    <path class="cls-2" d="M415.12,288.49v-.81s.09-8.46.09-8.46c0,0-.15-1.17.76-1.17,1,0,.8,1.26.8,1.26l.3,12.79s.13,1.16-.66,1.3c-.87.15-1.23-1.01-1.23-1.01l-4.94-9.8.18,9.89s-.16,1.05-.86,1.02c-.81-.04-.91-1.04-.91-1.04l-.09-13.14s-.1-1.08.62-1.2c.78-.12,1.06.71,1.06.71l4.23,8.38"/>
    <path class="cls-2" d="M465.55,287.19l3.58-8.52s.4-.98.96-.91c.58.07.6.87.6.87l.25,13.7s-.01.94-.73.94c-.83,0-.85-.85-.85-.85l-.07-10.25-2.98,7.17s-.29.65-.76.65c-.5,0-.79-.7-.79-.7l-3.02-6.94.09,10.15s-.16.7-.78.7c-.67,0-.79-.69-.79-.69l-.17-13.79s.06-.78.54-.84c.51-.06.85.52.85.52l3.78,8.22"/>
    <path class="cls-2" d="M515.64,278.12l.09-.06,6.38-4.34s.55-.34.15-.89c-.42-.58-1.09-.17-1.09-.17l-6.64,4.4s-.7.3-.73,1.07c-.03.75.69,1.13.69,1.13l6.68,4.72s.78.36,1.18-.15c.41-.53,0-1.1,0-1.1l-6.31-4.29"/>
    <circle class="cls-2" cx="518.26" cy="291.31" r="2.49"/>
    <path class="cls-2" d="M517.69,292.72s.07,1.1-.03,1.4c-.15.46-.36.95-.61,1.37-.15.25-.67.91-.77,1.17-.06.15-.16.72-.02.89.2.24,1.12.1,1.35-.07.3-.21,1.02-1.32,1.35-1.86.08-.13.62-1.19.8-1.6.15-.35.78-1.39.6-1.73-.13-.25-1.15.04-1.15.04l-1.03.33"/>
    <path class="cls-2" d="M573.2,277.92l-6.36,4.37s-.63.71-.19,1.29c.34.45,1.14.15,1.14.15l6.29-4.59s.83-.39.86-1.06c.03-.64-.77-1.19-.77-1.19l-6.06-4.44s-.82-.5-1.22-.02c-.42.5.18,1.1.18,1.1l5.72,4.09.42.3Z"/>
    <path class="cls-2" d="M568.39,291.31c0-1.27,1.03-2.3,2.3-2.3s2.3,1.03,2.3,2.3-1.03,2.3-2.3,2.3-2.3-1.03-2.3-2.3Z"/>
    <path class="cls-2" d="M625.17,275.21c0-.3-.14-.7-.63-1.03-.46-.31-.92-.34-1.71-.41-.75-.06-1.14.03-1.71.47-.49.38-.57.96-.57.96l.07.97s.37.66-.06,1.04c-.6.53-1.14-.26-1.14-.26,0,0-.55-.51-.47-1.42.08-.95.15-1.6,1.22-2.41.85-.65,1.09-.75,2.27-.86,1.04-.09,1.9.19,2.52.5.75.37,1.25.79,1.55,1.81.25.85.08,1.69-.32,2.44-.37.71-1.02,1.01-1.42,1.17-.26.11-.86.15-1.06.38-.1.11-.18.41-.2.56-.03.16-.07.47-.09.63-.02.2-.03.53-.64.51-.65-.02-.58-.35-.69-.56-.17-.33-.11-1.1-.05-1.46.06-.32.37-.96.64-1.15.27-.2.99-.19,1.31-.3.26-.09.75-.37.92-.58.12-.14.28-.67.28-.67"/>
    <circle class="cls-2" cx="622.92" cy="282.86" r="1.27"/>
    <path class="cls-2" d="M621.57,292.33l3.05-6.08s.46-.71,1.19-.36c.7.34.58,1.15.58,1.15l-5.41,11.06s-.54.72-1.28.46c-.83-.29-.41-1.31-.41-1.31l1.98-4.31.3-.61Z"/>
    <path class="cls-2" d="M113.15,160.29h1.68s.53.05.74-.35c.21-.41-.13-.92-.13-.92l-2.61-4.55s-.29-.62-.74-.63c-.45,0-.8.76-.8.76l-2.58,4.45s-.3.33-.12.79c.17.43.61.44.61.44l1.93.02-.12,9.06s.14.89,1.04.91c.93.02,1.09-.91,1.09-.91v-8.74s0-.33,0-.33Z"/>
    <path class="cls-2" d="M868.09,160.32v-1.68s.05-.53-.35-.74c-.41-.21-.92.13-.92.13l-4.55,2.61s-.62.29-.63.74c0,.45.76.8.76.8l4.45,2.58s.33.3.79.12c.43-.17.44-.61.44-.61l.02-1.93,9.06.12s.89-.14.91-1.04c.02-.93-.91-1.09-.91-1.09h-8.74s-.33,0-.33,0Z"/>
    <path class="cls-2" d="M923.8,162.44v1.68s-.05.53.35.74c.41.21.92-.13.92-.13l4.55-2.61s.62-.29.63-.75c0-.45-.76-.8-.76-.8l-4.45-2.58s-.33-.3-.79-.12c-.43.17-.44.61-.44.61l-.02,1.93-9.06-.12s-.89.14-.91,1.04c-.02.93.91,1.09.91,1.09h8.74s.33,0,.33,0Z"/>
    <path class="cls-2" d="M124.58,226.09h-1.68s-.53-.05-.74.35c-.21.41.13.92.13.92l2.61,4.55s.29.62.75.63c.45,0,.8-.76.8-.76l2.58-4.45s.3-.33.12-.79c-.17-.43-.61-.44-.61-.44l-1.93-.02.12-9.06s-.14-.89-1.04-.91c-.93-.02-1.09.91-1.09.91v8.74s0,.33,0,.33Z"/>
    <path class="cls-2" d="M695.72,226.73l.07-6.52s.01-.71-.62-.73c-.67-.01-.64.76-.64.76,0,0,0,6.74,0,6.9-.01.58.15.77.59.8.07,0,2.97.06,2.97.06,0,0,.48-.13.49-.61,0-.5-.53-.62-.53-.62l-2.04-.02"/>
    <path class="cls-2" d="M917.03,289.15l.07-6.52s.01-.71-.62-.73c-.67-.01-.64.76-.64.76,0,0,0,6.74,0,6.9-.01.58.15.77.59.8.07,0,2.97.06,2.97.06,0,0,.48-.13.49-.61,0-.5-.53-.62-.53-.62l-2.04-.02"/>
    <path class="cls-2" d="M690.31,223.38s.07-.73.11-.97c.06-.29.24-.81.38-1.12.09-.19.3-.53.64-.53.46,0,.71.34.79.53.07.17.08.67.08.67,0,0,.15.61.65.49.46-.11.45-.67.45-.67,0,0,.05-.69-.33-1.29-.34-.54-.67-.88-1.27-.99-.67-.13-1.47.29-1.77.55-.51.44-.71,1.55-.86,2.21-.14.64-.07,1.97,0,2.61.07.62.32,1.65.69,2.15.19.25.8.77,1.35.89.43.09,1.06-.17,1.54-.71.48-.55.55-1.59.55-1.59,0,0,.08-.69-.42-.8-.56-.13-.71.53-.71.53,0,0-.06.61-.16.78-.12.2-.38.48-.72.48-.31,0-.75-.9-.85-1.41-.12-.6-.12-1.45-.12-1.45"/>
    <path class="cls-2" d="M911.63,285.8s.07-.73.11-.97c.06-.29.24-.81.38-1.12.09-.19.3-.53.64-.53.46,0,.71.34.79.53.07.17.08.67.08.67,0,0,.15.61.65.49.46-.11.45-.67.45-.67,0,0,.05-.69-.33-1.29-.34-.54-.67-.88-1.27-.99-.67-.13-1.47.29-1.77.55-.51.44-.71,1.55-.86,2.21-.14.64-.07,1.97,0,2.61.07.62.32,1.65.69,2.15.19.25.8.77,1.35.89.43.09,1.06-.17,1.54-.71.48-.55.55-1.59.55-1.59,0,0,.08-.69-.42-.8-.56-.13-.71.53-.71.53,0,0-.06.61-.16.78-.12.2-.38.48-.72.48-.31,0-.75-.9-.85-1.41-.12-.6-.12-1.45-.12-1.45"/>
    <path class="cls-1" d="M1175.65,349.08l-.11,3.28s-.27.35-.63.32c-.39-.03-.55-.39-.55-.39l.09-7.86,1.23.04-.03,1.3-.06,2.33s.84.06,1.08-.06c.21-.1.36-.28.51-.6.16-.35.17-.8.01-1.15-.16-.35-.58-.39-.84-.47-.34-.11-.79-.04-.79-.04l.03-1.3s1.3-.04,1.84.28c.51.3.75.86.82,1.23.07.34.12.87.08,1.32-.03.37-.12.73-.46,1.06-.3.29-.61.5-.61.5l.41,1.21.57,1.81s.12.62-.27.78c-.53.23-.81-.28-.81-.28l-.74-3.01s-.2-.18-.29-.21l-.5-.08Z"/>
    <path class="cls-1" d="M1161.33,349.2l.09-3.98s0-.77.65-.75c.59.01.56.78.56.78v6.53s.11.69-.4.84c-.6.18-.87-.51-.87-.51l-1.9-4.37-.08,4.43s-.12.45-.59.44c-.51,0-.62-.51-.62-.51v-6.77s.01-.76.59-.8c.57-.04.69.43.69.43l1.59,3.71.29.55Z"/>
    <path class="cls-1" d="M1154.11,345.78l2.46.05s.6-.04.61-.62c0-.55-.53-.67-.53-.67,0,0-2.72-.11-2.88-.09-.53.06-.88.17-.89.63,0,.22-.04,6.78-.03,6.99.03.37.33.61.82.62.22,0,2.91.05,2.91.05,0,0,.52-.36.53-.83,0-.48-.49-.84-.49-.84l-2.45-.03-.06-1.71h1.9s.41-.18.42-.67c0-.4-.4-.65-.4-.65l-1.95-.07.02-2.15Z"/>
    <path class="cls-1" d="M1170.07,345.79l2.46.05s.6-.04.61-.62c0-.55-.53-.67-.53-.67,0,0-2.72-.11-2.88-.09-.53.06-.88.17-.89.63,0,.22-.04,6.78-.03,6.99.03.37.33.61.82.62.22,0,2.91.05,2.91.05,0,0,.52-.36.53-.83,0-.48-.49-.84-.49-.84l-2.45-.03-.06-1.71h1.9s.41-.18.42-.67c0-.4-.4-.65-.4-.65l-1.95-.07.02-2.15Z"/>
    <path class="cls-1" d="M1166.25,345.62l.05,6.55s-.2.46-.64.46c-.47,0-.6-.42-.6-.42l-.08-6.53-.93-.02s-.42-.04-.42-.53.41-.51.41-.51l3.13-.06s.35.01.39.51c.03.46-.39.52-.39.52l-.76.02"/>
    <circle class="cls-2" cx="1111.84" cy="286.24" r="2.25"/>
    <path class="cls-1" d="M868.84,34.82c.03-.3.07-.44.21-.69.15-.29.35-.39.53-.44.24-.06.67.05.87.23.29.26.19.4.24.63.03.18.17.58.57.5.38-.07.43-.41.41-.59-.05-.46-.16-1-.51-1.34-.46-.45-.9-.6-1.49-.56-.42.03-1.03.26-1.3.59-.24.3-.57,1.12-.57,1.71s.43,1.54.72,1.77c.44.36.98.54,1.34.64.34.09.69.45.89.7.16.2.26.52.14.87-.1.29-.27.59-.51.67-.32.11-.72.14-1.08-.05-.23-.12-.44-.6-.53-.89-.06-.18-.33-.49-.74-.36-.44.15-.28.76-.19.95.16.34.57.96.84,1.18.31.26.92.46,1.26.44.37-.02,1.14-.25,1.43-.54.24-.23.55-.93.6-1.3.06-.41-.04-1.22-.23-1.56-.18-.33-.69-.82-.99-.97-.36-.18-1.03-.49-1.43-.6-.19-.06-.38-.43-.38-.68,0,0-.09-.27-.09-.32Z"/>
    <path class="cls-1" d="M881.09,33.65v6.77s-.28.35-.61.35c-.38,0-.65-.36-.65-.36l.07-6.73-1.23-.02s-.36-.26-.35-.66c0-.36.33-.59.33-.59h3.62s.32.22.32.6c0,.4-.36.64-.36.64h-1.16Z"/>
    <path class="cls-1" d="M858.46,37.25l-.04,3.36s-.31.37-.67.35c-.39-.01-.61-.38-.61-.38l-.04-8.03h1.23v1.33s.04,2.38.04,2.38c0,0,.84.03,1.08-.1.21-.11.35-.3.49-.63.15-.36.15-.82-.03-1.18-.17-.35-.59-.38-.86-.45-.35-.1-.79-.01-.79-.01v-1.33s1.29-.08,1.83.22c.52.29.78.86.87,1.23.08.34.15.88.13,1.35-.02.38-.1.75-.42,1.1-.29.31-.6.53-.6.53l.45,1.22.64,1.82s.14.62-.24.81c-.52.25-.82-.26-.82-.26l-.84-3.05s-.21-.18-.29-.21l-.5-.06Z"/>
    <path class="cls-1" d="M863.52,33.88h2.46s.6-.05.6-.63-.54-.66-.54-.66c0,0-2.72-.07-2.88-.04-.53.07-.88.18-.88.65,0,.22.07,6.78.09,6.99.04.37.34.61.84.61h2.91s.51-.37.51-.84-.5-.84-.5-.84l-2.45.02-.09-1.71,1.9-.04s.41-.18.41-.67c0-.4-.41-.64-.41-.64l-1.95-.04-.02-2.15Z"/>
    <path class="cls-1" d="M874.55,33.75h2.46s.6-.05.6-.63-.54-.66-.54-.66c0,0-2.72-.07-2.88-.04-.53.07-.88.18-.88.65,0,.22.07,6.78.09,6.99.04.37.34.61.84.61h2.91s.51-.37.51-.84-.5-.84-.5-.84l-2.45.02-.09-1.71,1.9-.04s.41-.18.41-.67c0-.4-.41-.64-.41-.64l-1.95-.04-.02-2.15Z"/>
    <path class="cls-2" d="M921.32,34.88c.03-.3.07-.44.21-.69.15-.29.35-.39.53-.44.24-.06.67.05.87.23.29.26.19.4.24.63.03.18.17.58.57.5.38-.07.43-.41.41-.59-.05-.47-.16-1-.51-1.34-.46-.45-.9-.6-1.49-.56-.42.03-1.03.26-1.3.59-.24.3-.57,1.12-.57,1.71s.43,1.54.72,1.77c.44.36.98.54,1.34.64.34.09.69.45.89.7.16.2.26.52.14.87-.1.29-.27.59-.51.67-.32.11-.72.14-1.08-.05-.23-.12-.44-.6-.53-.89-.06-.18-.33-.49-.74-.36-.44.15-.28.76-.19.95.16.34.57.96.84,1.18.31.26.92.46,1.26.44.37-.02,1.14-.25,1.43-.54.24-.23.55-.93.6-1.3.06-.41-.04-1.22-.23-1.56-.18-.33-.69-.82-.99-.97-.36-.18-1.03-.49-1.43-.6-.19-.06-.38-.43-.38-.68,0,0-.09-.27-.09-.32Z"/>
    <path class="cls-2" d="M933.57,33.72v6.77s-.28.35-.61.35c-.38,0-.65-.36-.65-.36l.07-6.73-1.23-.02s-.36-.26-.35-.66c0-.37.33-.59.33-.59h3.62s.32.22.32.6c0,.4-.36.64-.36.64h-1.16Z"/>
    <path class="cls-2" d="M910.94,37.31l-.04,3.36s-.31.37-.67.35c-.39-.01-.61-.38-.61-.38l-.04-8.03h1.23v1.33s.04,2.38.04,2.38c0,0,.84.03,1.08-.1.21-.11.35-.3.49-.63.15-.36.15-.82-.03-1.18-.17-.35-.59-.38-.86-.45-.35-.1-.79-.01-.79-.01v-1.33s1.29-.08,1.83.22c.52.29.78.86.87,1.23.08.34.15.88.13,1.35-.02.38-.1.75-.42,1.1-.29.31-.6.53-.6.53l.45,1.22.64,1.82s.14.62-.24.81c-.52.25-.82-.26-.82-.26l-.84-3.05s-.21-.18-.29-.21l-.5-.06Z"/>
    <path class="cls-2" d="M916,33.94h2.46s.6-.05.6-.63-.54-.66-.54-.66c0,0-2.72-.06-2.88-.04-.53.07-.88.18-.88.65,0,.22.07,6.78.1,6.99.04.37.34.61.84.61h2.91s.51-.37.51-.84-.5-.84-.5-.84l-2.45.02-.09-1.71,1.9-.04s.41-.18.41-.67c0-.4-.41-.64-.41-.64l-1.95-.04-.02-2.15Z"/>
    <path class="cls-2" d="M927.03,33.82h2.46s.6-.05.6-.63-.54-.66-.54-.66c0,0-2.72-.06-2.88-.04-.53.07-.88.18-.88.65,0,.22.07,6.78.09,6.99.04.37.34.61.84.61h2.91s.51-.37.51-.84-.5-.84-.5-.84l-2.45.02-.09-1.71,1.9-.04s.41-.18.41-.67c0-.4-.41-.64-.41-.64l-1.95-.04-.02-2.15Z"/>
    <path class="cls-2" d="M973.71,34.88c.03-.3.07-.44.21-.69.15-.29.35-.39.53-.44.24-.06.67.05.87.23.29.26.19.4.24.63.03.18.17.58.57.5.38-.07.43-.41.41-.59-.05-.47-.16-1-.51-1.34-.46-.45-.9-.6-1.49-.56-.42.03-1.03.26-1.3.59-.24.3-.57,1.12-.57,1.71s.43,1.54.72,1.77c.44.36.98.54,1.34.64.34.09.69.45.89.7.16.2.26.52.14.87-.1.29-.27.59-.51.67-.32.11-.72.14-1.08-.05-.23-.12-.44-.6-.53-.89-.06-.18-.33-.49-.74-.36-.44.15-.28.76-.19.95.16.34.57.96.84,1.18.31.26.92.46,1.26.44.37-.02,1.14-.25,1.43-.54.24-.23.55-.93.6-1.3.06-.41-.04-1.22-.23-1.56-.18-.33-.69-.82-.99-.97-.36-.18-1.03-.49-1.43-.6-.19-.06-.38-.43-.38-.68,0,0-.09-.27-.09-.32Z"/>
    <path class="cls-2" d="M985.97,33.72v6.77s-.28.35-.61.35c-.38,0-.65-.36-.65-.36l.07-6.73-1.23-.02s-.36-.26-.35-.66c0-.37.33-.59.33-.59h3.62s.32.22.32.6c0,.4-.36.64-.36.64h-1.16Z"/>
    <path class="cls-2" d="M963.33,37.31l-.04,3.36s-.31.37-.67.35c-.39-.01-.61-.38-.61-.38l-.04-8.03h1.23v1.33s.04,2.38.04,2.38c0,0,.84.03,1.08-.1.21-.11.35-.3.49-.63.15-.36.15-.82-.03-1.18-.17-.35-.59-.38-.86-.45-.35-.1-.79-.01-.79-.01v-1.33s1.29-.08,1.83.22c.52.29.78.86.87,1.23.08.34.15.88.13,1.35-.02.38-.1.75-.42,1.1-.29.31-.6.53-.6.53l.45,1.22.64,1.82s.14.62-.24.81c-.52.25-.82-.26-.82-.26l-.84-3.05s-.21-.18-.29-.21l-.5-.06Z"/>
    <path class="cls-2" d="M968.39,33.94h2.46s.6-.05.6-.63-.54-.66-.54-.66c0,0-2.72-.06-2.88-.04-.53.07-.88.18-.88.65,0,.22.07,6.78.09,6.99.04.37.34.61.84.61h2.91s.51-.37.51-.84-.5-.84-.5-.84l-2.45.02-.09-1.71,1.9-.04s.41-.18.41-.67c0-.4-.41-.64-.41-.64l-1.95-.04-.02-2.15Z"/>
    <path class="cls-2" d="M979.42,33.82h2.46s.6-.05.6-.63-.54-.66-.54-.66c0,0-2.72-.06-2.88-.04-.53.07-.88.18-.88.65,0,.22.07,6.78.1,6.99.04.37.34.61.84.61h2.91s.51-.37.51-.84-.5-.84-.5-.84l-2.45.02-.09-1.71,1.9-.04s.41-.18.41-.67c0-.4-.41-.64-.41-.64l-1.95-.04-.02-2.15Z"/>
    <path class="cls-2" d="M689.19,163.73s.76.9,1.04,1.1c.35.26,1.29.38,1.72.29.44-.09,1.17-.72,1.45-1.08.25-.33.44-1.15.51-1.56.14-.94-.03-2.89-.33-3.8-.29-.88-1.49-2.41-2.23-2.97-.74-.57-2.28-.99-3.58-.99-1.39,0-2.69.7-3.42,1.25-.61.45-1.18,1.41-1.69,2.52-.58,1.27-.56,2.89-.37,4.13.18,1.22.71,2.63,1.46,3.62.7.92,2.23,1.57,3.09,1.79.76.19,2.37.12,3.11-.11.27-.08.66-.34.61-.94-.06-.67-.52-.84-.81-.86-.39-.02-.92.17-1.57.14-.58-.03-1.47-.21-2.22-.65-.76-.44-1.47-1.32-1.74-1.9-.45-1-.4-2.36-.33-3.15.08-.9.55-2.05,1.09-2.69.56-.65,1.29-1.2,1.9-1.44.22-.08.52-.13.86-.15.65-.03,1.23.02,1.92.31,1.01.42,1.58,1.21,1.94,1.8.39.62.62,1.7.68,2.48.03.5-.01,1.86-.37,2.2-.17.17-.7.24-.92.13-.23-.11-.46-.63-.49-.88-.04-.3.22-.9.28-1.2.08-.4.21-1.22.11-1.61-.11-.42-.73-1.11-1.09-1.34-.36-.23-1.29-.32-1.71-.22-.48.12-1.23.85-1.57,1.21-.35.37-.86,1.27-1.04,1.75-.18.48-.27,1.53-.15,2.02.1.43.69,1.16,1.04,1.44.31.25,1.13.51,1.52.45.53-.08,1.78-1.21,1.78-1.21l-1.14-1.1s-.55.44-.77.47c-.22.04-.68.01-.79-.3-.13-.39-.06-.87,0-1.13.08-.3.4-.84.58-1.1.18-.27.65-.77.96-.9.18-.08.63-.04.79.08.16.12.2.56.22.76.02.33-.21.82-.46,1.28-.25.46-.6.88-.6.88"/>
    <path class="cls-2" d="M1203.97,99.36v-3.65s.13-.33.33-.39c.36-.11.83-.06.83-.06l-.07,1.39-.05,2.14s.74.1,1.08-.11c.42-.26.63-.63.63-1.17,0-.41-.4-.69-.8-.82-.4-.14-.97-.03-.97-.03l.04-1.39s1.05-.04,1.39.03c.31.06.73.3,1.02.74.3.45.36.54.46,1.01.12.54.18.96-.05,1.43-.22.46-.59.77-.59.77,0,0,.63.36.89,1,.22.52.14,1.18-.03,1.65-.14.38-.6,1.12-.96,1.3-.49.24-2.16.17-2.16.17l-.08-1.28s1.38.11,1.83-.11c.32-.16.49-.61.43-1-.09-.6-.56-.89-.82-.95-.39-.09-1.24-.03-1.24-.03v2.21s-.02,1.18-.02,1.18c0,0-.54.04-.71-.03-.13-.05-.39-.35-.39-.35v-3.57s.03-.24,0-.07Z"/>
    <path class="cls-2" d="M1210.72,99.79l-.05,3.25s-.26.35-.63.33c-.39-.02-.55-.38-.55-.38l-.05-7.77,1.23.02v1.29s-.02,2.3-.02,2.3c0,0,.84.04,1.08-.08.21-.1.36-.29.5-.6.16-.35.16-.79,0-1.14-.16-.34-.59-.38-.85-.45-.34-.1-.79-.02-.79-.02v-1.29s1.31-.06,1.85.24c.52.29.76.84.85,1.2.08.33.13.85.1,1.31-.02.37-.11.73-.44,1.06-.3.29-.61.5-.61.5l.43,1.19.61,1.77s.13.61-.25.78c-.53.23-.82-.27-.82-.27l-.79-2.97s-.2-.18-.29-.21l-.5-.07Z"/>
    <path class="cls-2" d="M1215.85,96.52l2.46.05s.6-.04.61-.62c0-.55-.53-.66-.53-.66,0,0-2.72-.11-2.88-.09-.53.06-.88.17-.89.62,0,.22-.04,6.71-.03,6.91.03.37.33.61.82.62.22,0,2.91.05,2.91.05,0,0,.52-.36.53-.82,0-.47-.49-.84-.49-.84l-2.45-.03-.06-1.69h1.9s.41-.17.42-.66c0-.39-.4-.64-.4-.64l-1.95-.07.02-2.13Z"/>
    <path class="cls-2" d="M1221.33,102.17l-.17.76s-.28.5-.78.35c-.49-.15-.52-.59-.52-.59l1.78-6.94s.15-.55.59-.54c.42,0,.55.5.55.5l1.77,7.02s.09.49-.41.65c-.44.13-.67-.18-.67-.18l-1.22-5.53-.79,3.19,1.67-.02.3,1.34-2.1-.02Z"/>
    <path class="cls-2" d="M1225.52,99.13v-3.43s.14-.51.67-.48c.56.03.58.48.58.48v2.23s1.64-2.3,1.64-2.3c0,0,.46-.32.86.01.42.35.05.89.05.89l-1.79,2.62,1.7,2.74s.21.7-.12,1.01c-.3.29-.74.04-.74.04l-1.62-2.41v2.38s-.17.45-.61.45c-.49,0-.65-.43-.65-.43l.04-3.36-.02-.45Z"/>
    <path class="cls-1" d="M108.75,287l-.05,3.37s-.26.37-.63.34c-.39-.02-.55-.39-.55-.39l-.05-8.07,1.23.02v1.34s-.03,2.39-.03,2.39c0,0,.84.04,1.08-.08.21-.11.36-.3.5-.63.16-.36.16-.82,0-1.19-.16-.36-.59-.39-.85-.47-.34-.1-.79-.03-.79-.03v-1.34s1.31-.06,1.85.25c.52.3.76.87.85,1.25.08.35.13.89.1,1.36-.02.38-.11.76-.44,1.1-.3.31-.61.52-.61.52l.43,1.24.6,1.84s.13.63-.25.81c-.53.24-.82-.28-.82-.28l-.79-3.08s-.2-.18-.29-.21l-.5-.07Z"/>
    <path class="cls-1" d="M97.73,283.61l2.46.05s.6-.04.61-.64c0-.57-.53-.68-.53-.68,0,0-2.72-.11-2.88-.1-.53.06-.88.17-.89.65,0,.23-.05,6.95-.03,7.17.03.38.33.63.82.64.22,0,2.91.05,2.91.05,0,0,.52-.37.53-.86,0-.49-.49-.87-.49-.87l-2.45-.03-.06-1.75h1.9s.41-.18.42-.69c0-.41-.4-.66-.4-.66l-1.95-.07.02-2.21Z"/>
    <path class="cls-1" d="M103.25,289.44l-.17.79s-.29.52-.79.36c-.49-.15-.53-.61-.53-.61l1.8-7.18s.15-.56.6-.56c.42,0,.56.52.56.52l1.78,7.27s.09.51-.42.67c-.45.14-.67-.19-.67-.19l-1.23-5.72-.8,3.3,1.69-.02.31,1.38-2.12-.02Z"/>
    <path class="cls-1" d="M92.51,289.51l.07-6.52s.01-.71-.62-.73c-.67-.01-.64.76-.64.76,0,0,0,6.74,0,6.9-.01.58.15.77.59.8.07,0,2.97.06,2.97.06,0,0,.48-.13.49-.61,0-.5-.53-.62-.53-.62l-2.04-.02"/>
    <path class="cls-1" d="M87.11,286.15s.07-.73.11-.97c.06-.29.24-.81.38-1.12.09-.19.3-.53.64-.53.46,0,.71.34.79.53.07.17.08.67.08.67,0,0,.15.61.65.49.46-.11.45-.67.45-.67,0,0,.05-.69-.33-1.29-.34-.54-.67-.88-1.27-.99-.67-.13-1.47.29-1.77.55-.51.44-.71,1.55-.86,2.21-.14.64-.07,1.97,0,2.61.07.62.32,1.65.69,2.15.19.25.8.77,1.35.89.43.09,1.06-.17,1.54-.71.48-.55.55-1.59.55-1.59,0,0,.08-.69-.42-.8-.56-.13-.71.53-.71.53,0,0-.06.61-.16.78-.12.2-.38.48-.72.48-.31,0-.75-.9-.85-1.41-.12-.6-.12-1.45-.12-1.45"/>
    <path class="cls-2" d="M1174.33,286.86l-.11,3.28s-.27.35-.63.32c-.39-.03-.55-.39-.55-.39l.09-7.86,1.23.04-.03,1.3-.06,2.33s.84.06,1.08-.06c.21-.1.36-.28.51-.6.16-.35.17-.8.01-1.15-.16-.35-.58-.39-.84-.47-.34-.11-.79-.04-.79-.04l.03-1.3s1.3-.04,1.84.28c.51.3.75.86.82,1.23.07.34.12.87.08,1.32-.03.37-.12.73-.46,1.06-.3.29-.61.5-.61.5l.41,1.21.57,1.81s.12.62-.27.78c-.53.23-.81-.28-.81-.28l-.74-3.01s-.2-.18-.29-.21l-.5-.08Z"/>
    <path class="cls-2" d="M1160,286.97l.09-3.98s0-.77.65-.75c.59.01.56.78.56.78v6.53s.11.69-.4.84c-.6.18-.87-.51-.87-.51l-1.9-4.37-.08,4.43s-.12.45-.59.44c-.51,0-.62-.51-.62-.51v-6.77s.01-.76.59-.8c.57-.04.69.43.69.43l1.59,3.71.29.55Z"/>
    <path class="cls-2" d="M1152.79,283.56l2.46.05s.6-.04.61-.62c0-.55-.53-.67-.53-.67,0,0-2.72-.11-2.88-.09-.53.06-.88.17-.89.63,0,.22-.04,6.78-.03,6.99.03.37.33.61.82.62.22,0,2.91.05,2.91.05,0,0,.52-.36.53-.83,0-.48-.49-.84-.49-.84l-2.45-.03-.06-1.71h1.9s.41-.18.42-.67c0-.4-.4-.65-.4-.65l-1.95-.07.02-2.15Z"/>
    <path class="cls-2" d="M1168.75,283.57l2.46.05s.6-.04.61-.62c0-.55-.53-.67-.53-.67,0,0-2.72-.11-2.88-.09-.53.06-.88.17-.89.63,0,.22-.04,6.78-.03,6.99.03.37.33.61.82.62.22,0,2.91.05,2.91.05,0,0,.52-.36.53-.83,0-.48-.49-.84-.49-.84l-2.45-.03-.06-1.71h1.9s.41-.18.42-.67c0-.4-.4-.65-.4-.65l-1.95-.07.02-2.15Z"/>
    <path class="cls-2" d="M1164.93,283.4l.05,6.55s-.2.46-.64.46c-.47,0-.6-.42-.6-.42l-.08-6.53-.93-.02s-.42-.04-.42-.53.41-.51.41-.51l3.13-.06s.35.01.39.51c.03.46-.39.52-.39.52l-.76.02"/>
    <path class="cls-2" d="M649.21,98.8v-3.65s.13-.33.33-.39c.35-.11.83-.06.83-.06l-.07,1.39-.05,2.14s.74.1,1.08-.11c.42-.26.63-.63.63-1.17,0-.41-.4-.69-.8-.82-.4-.14-.97-.03-.97-.03l.04-1.39s1.05-.04,1.39.03c.31.06.73.3,1.02.74.3.45.36.54.46,1.01.12.54.18.96-.05,1.43-.22.46-.59.77-.59.77,0,0,.63.36.89,1,.22.52.14,1.18-.03,1.65-.14.38-.6,1.12-.96,1.3-.49.24-2.16.17-2.16.17l-.08-1.28s1.38.11,1.83-.11c.32-.16.49-.61.43-1-.09-.6-.56-.89-.82-.95-.39-.09-1.24-.03-1.24-.03v2.21s-.02,1.18-.02,1.18c0,0-.54.04-.71-.03-.13-.05-.39-.35-.39-.35v-3.57s.03-.24,0-.07Z"/>
    <path class="cls-2" d="M655.96,99.23l-.05,3.25s-.26.35-.63.33c-.39-.02-.55-.38-.55-.38l-.05-7.77,1.23.02v1.29s-.02,2.3-.02,2.3c0,0,.84.04,1.08-.08.21-.1.36-.29.5-.6.16-.35.16-.79,0-1.14-.16-.34-.59-.38-.85-.45-.34-.1-.79-.02-.79-.02v-1.29s1.31-.06,1.85.24c.52.29.76.84.85,1.2.08.33.13.85.1,1.31-.02.37-.11.73-.44,1.06-.3.29-.61.5-.61.5l.43,1.19.61,1.77s.13.61-.25.78c-.53.23-.82-.27-.82-.27l-.79-2.97s-.2-.18-.29-.21l-.5-.07Z"/>
    <path class="cls-2" d="M661.09,95.96l2.46.05s.6-.04.61-.62c0-.55-.53-.66-.53-.66,0,0-2.72-.11-2.88-.09-.53.06-.88.17-.89.62,0,.22-.04,6.71-.03,6.91.03.37.33.61.82.62.22,0,2.91.05,2.91.05,0,0,.52-.36.53-.82,0-.47-.49-.84-.49-.84l-2.45-.03-.06-1.69h1.9s.41-.17.42-.66c0-.39-.4-.64-.4-.64l-1.95-.07.02-2.13Z"/>
    <path class="cls-2" d="M666.57,101.62l-.17.76s-.28.5-.78.35c-.49-.15-.52-.59-.52-.59l1.78-6.94s.15-.55.59-.54c.42,0,.55.5.55.5l1.77,7.02s.09.49-.41.65c-.44.13-.67-.18-.67-.18l-1.22-5.53-.79,3.19,1.67-.02.3,1.34-2.1-.02Z"/>
    <path class="cls-2" d="M670.76,98.57v-3.43s.14-.51.67-.48c.56.03.58.48.58.48v2.23s1.64-2.3,1.64-2.3c0,0,.46-.32.86.01.42.35.05.89.05.89l-1.79,2.62,1.7,2.74s.21.7-.12,1.01c-.3.29-.74.04-.74.04l-1.62-2.41v2.38s-.17.45-.61.45c-.49,0-.65-.43-.65-.43l.04-3.36-.02-.45Z"/>
    <path class="cls-2" d="M636.42,346.84s-.8-.24-1.03-.3c-.23-.07-.63-.48-.56-1.07.05-.51.55-.68.84-.76.45-.13.66,0,.93.12.33.14.47.56.64.72.17.16.55.29.8-.12.27-.45.2-1.11.06-1.39-.15-.29-.59-.91-1.01-1.08-.58-.22-1.18-.35-1.71-.22-.66.17-.73.2-1.18.72-.44.49-.6.89-.64,1.56-.04.76-.06,1.04.16,1.76.22.74.54,1.14.83,1.31.45.26,1.14.34,1.49.46.28.09.92.35,1.03.53.21.33.22.67.16.97-.04.2-.31.58-.47.68-.2.12-.65.19-.87.15-.27-.04-.87-.24-1.07-.53-.22-.33-.35-.58-.5-.73-.15-.15-.4-.25-.73.13-.29.33-.21,1.07-.1,1.34.18.46.53.95,1.01,1.35.15.13.31.23.47.31.33.15.69.19,1.12.13.53-.07,1.08-.29,1.53-.72.46-.42.72-1.2.85-1.83.13-.63.1-1.29-.08-1.76-.23-.61-.63-1.2-1.15-1.44"/>
    <path class="cls-2" d="M640.45,346.7l.03-3.21s.02-.89-.55-.86c-.47.02-.51.89-.51.89l-.05,8.08s.04.96.59.98c.53.01.54-.93.54-.93l.03-3.21h2.74s-.04,3.29-.04,3.29c0,0,.04.89.62.9.47.01.5-.89.5-.89l.06-8.26s-.03-.74-.54-.76c-.44-.01-.52.76-.52.76l-.02,3.31-2.87-.09Z"/>
    <path class="cls-2" d="M645.64,347.17l.09-3.58s.03-.93.6-.91c.5.01.45,1,.45,1v8.03s-.04.8-.6.79c-.56-.01-.59-.81-.59-.81l.05-3.82v-.7Z"/>
    <path class="cls-2" d="M649.16,346.66l.05-2.06,3.33.06s.59-.13.6-.88c0-.72-.57-.92-.57-.92,0,0-3.42-.06-3.59-.07-.56-.01-.84,0-.85.66,0,.28-.03,8.11-.03,8.11,0,0-.08.88.52.89.54.01.53-.83.53-.83l.02-3.22,2.36.03s.58-.13.59-.81c0-.66-.51-.93-.51-.93h-2.01"/>
    <path class="cls-2" d="M656.86,344.45l1.36.02s.53-.22.53-.79c0-.63-.46-.93-.46-.93h-3.99s-.44.19-.44.83c0,.55.47.76.47.76l1.43.11-.05,7.02s.05.84.49.85c.5.01.55-.8.55-.8l.09-6.41"/>
    <path class="cls-2" d="M962.86,348.06v-3.65s.13-.33.33-.39c.36-.11.83-.06.83-.06l-.07,1.39-.05,2.14s.74.1,1.08-.11c.42-.26.63-.63.63-1.17,0-.41-.4-.69-.8-.82-.4-.14-.97-.03-.97-.03l.04-1.39s1.05-.04,1.39.03c.31.06.73.3,1.02.74.3.45.36.54.46,1.01.12.54.18.96-.05,1.43-.22.46-.59.77-.59.77,0,0,.63.36.89,1,.22.52.14,1.18-.03,1.65-.14.38-.6,1.12-.96,1.3-.49.24-2.16.17-2.16.17l-.08-1.28s1.38.11,1.83-.11c.32-.16.49-.61.43-1-.09-.6-.56-.89-.82-.95-.39-.09-1.24-.03-1.24-.03v2.21s-.02,1.18-.02,1.18c0,0-.54.04-.71-.03-.13-.05-.39-.35-.39-.35v-3.57s.03-.24,0-.07Z"/>
    <path class="cls-2" d="M969.61,348.49l-.05,3.25s-.26.35-.63.33c-.39-.02-.55-.38-.55-.38l-.05-7.77,1.23.02v1.29s-.02,2.3-.02,2.3c0,0,.84.04,1.08-.08.21-.1.36-.29.5-.6.16-.35.16-.79,0-1.14-.16-.34-.59-.38-.85-.45-.34-.1-.79-.02-.79-.02v-1.29s1.31-.06,1.85.24c.52.29.76.84.85,1.2.08.33.13.85.1,1.31-.02.37-.11.73-.44,1.06-.3.29-.61.5-.61.5l.43,1.19.61,1.77s.13.61-.25.78c-.53.23-.82-.27-.82-.27l-.79-2.97s-.2-.18-.29-.21l-.5-.07Z"/>
    <path class="cls-2" d="M974.74,345.22l2.46.05s.6-.04.61-.62c0-.55-.53-.66-.53-.66,0,0-2.72-.11-2.88-.09-.53.06-.88.17-.89.62,0,.22-.04,6.71-.03,6.91.03.37.33.61.82.62.22,0,2.91.05,2.91.05,0,0,.52-.36.53-.82,0-.47-.49-.84-.49-.84l-2.45-.03-.06-1.69h1.9s.41-.17.42-.66c0-.39-.4-.64-.4-.64l-1.95-.07.02-2.13Z"/>
    <path class="cls-2" d="M980.22,350.87l-.17.76s-.28.5-.78.35c-.49-.15-.52-.59-.52-.59l1.78-6.94s.15-.55.59-.54c.42,0,.55.5.55.5l1.77,7.02s.09.49-.41.65c-.44.13-.67-.18-.67-.18l-1.22-5.53-.79,3.19,1.67-.02.3,1.34-2.1-.02Z"/>
    <path class="cls-2" d="M984.41,347.83v-3.43s.14-.51.67-.48c.56.03.58.48.58.48v2.23s1.64-2.3,1.64-2.3c0,0,.46-.32.86.01.42.35.05.89.05.89l-1.79,2.62,1.7,2.74s.21.7-.12,1.01c-.3.29-.74.04-.74.04l-1.62-2.41v2.38s-.17.45-.61.45c-.49,0-.65-.43-.65-.43l.04-3.36-.02-.45Z"/>
    <path class="cls-2" d="M910.41,348.09v-3.65s.13-.33.33-.39c.35-.11.83-.06.83-.06l-.07,1.39-.05,2.14s.74.1,1.08-.11c.42-.26.63-.63.63-1.17,0-.41-.4-.69-.8-.82-.4-.14-.97-.03-.97-.03l.04-1.39s1.05-.04,1.39.03c.31.06.73.3,1.02.74.3.45.36.54.46,1.01.12.54.18.96-.05,1.43-.22.46-.59.77-.59.77,0,0,.63.36.89,1,.22.52.14,1.18-.03,1.65-.14.38-.6,1.12-.96,1.3-.49.24-2.16.17-2.16.17l-.08-1.28s1.38.11,1.83-.11c.32-.16.49-.61.43-1-.09-.6-.56-.89-.82-.95-.39-.09-1.24-.03-1.24-.03v2.21s-.02,1.18-.02,1.18c0,0-.54.04-.71-.03-.13-.05-.39-.35-.39-.35v-3.57s.03-.24,0-.07Z"/>
    <path class="cls-2" d="M917.17,348.52l-.05,3.25s-.26.35-.63.33c-.39-.02-.55-.38-.55-.38l-.05-7.77,1.23.02v1.29s-.02,2.3-.02,2.3c0,0,.84.04,1.08-.08.21-.1.36-.29.5-.6.16-.35.16-.79,0-1.14-.16-.34-.59-.38-.85-.45-.34-.1-.79-.02-.79-.02v-1.29s1.31-.06,1.85.24c.52.29.76.84.85,1.2.08.33.13.85.1,1.31-.02.37-.11.73-.44,1.06-.3.29-.61.5-.61.5l.43,1.19.61,1.77s.13.61-.25.78c-.53.23-.82-.27-.82-.27l-.79-2.97s-.2-.18-.29-.21l-.5-.07Z"/>
    <path class="cls-2" d="M922.29,345.25l2.46.05s.6-.04.61-.62c0-.55-.53-.66-.53-.66,0,0-2.72-.11-2.88-.09-.53.06-.88.17-.89.62,0,.22-.04,6.71-.03,6.91.03.37.33.61.82.62.22,0,2.91.05,2.91.05,0,0,.52-.36.53-.82,0-.47-.49-.84-.49-.84l-2.45-.03-.06-1.69h1.9s.41-.17.42-.66c0-.39-.4-.64-.4-.64l-1.95-.07.02-2.13Z"/>
    <path class="cls-2" d="M927.77,350.9l-.17.76s-.28.5-.78.35c-.49-.15-.52-.59-.52-.59l1.78-6.94s.15-.55.59-.54c.42,0,.55.5.55.5l1.77,7.02s.09.49-.41.65c-.44.13-.67-.18-.67-.18l-1.22-5.53-.79,3.19,1.67-.02.3,1.34-2.1-.02Z"/>
    <path class="cls-2" d="M931.96,347.86v-3.43s.14-.51.67-.48c.56.03.58.48.58.48v2.23s1.64-2.3,1.64-2.3c0,0,.46-.32.86.02.42.35.05.89.05.89l-1.79,2.62,1.7,2.74s.21.7-.12,1.01c-.3.29-.74.04-.74.04l-1.62-2.41v2.38s-.17.45-.61.45c-.49,0-.65-.43-.65-.43l.04-3.36-.02-.45Z"/>
    <path class="cls-2" d="M707.95,348.13l-.05,3.37s-.26.37-.63.35c-.39-.02-.55-.39-.55-.39l-.05-8.07,1.23.02v1.34s-.03,2.39-.03,2.39c0,0,.84.04,1.08-.08.21-.11.36-.3.5-.63.16-.36.16-.82,0-1.19-.16-.36-.59-.39-.85-.47-.34-.1-.79-.03-.79-.03v-1.34s1.31-.06,1.85.25c.52.3.76.87.85,1.25.08.35.13.89.1,1.36-.02.38-.11.76-.44,1.1-.3.31-.61.52-.61.52l.43,1.24.61,1.84s.13.63-.25.81c-.53.24-.82-.28-.82-.28l-.79-3.08s-.2-.18-.29-.21l-.5-.07Z"/>
    <path class="cls-2" d="M696.94,344.74l2.46.05s.6-.04.61-.64c0-.57-.53-.68-.53-.68,0,0-2.72-.11-2.88-.1-.53.06-.88.17-.89.65,0,.23-.05,6.95-.03,7.17.03.38.33.63.82.64.22,0,2.91.05,2.91.05,0,0,.52-.37.53-.86,0-.49-.49-.87-.49-.87l-2.45-.03-.06-1.75h1.9s.41-.18.42-.69c0-.41-.4-.66-.4-.66l-1.95-.07.02-2.21Z"/>
    <path class="cls-2" d="M702.45,350.57l-.17.79s-.29.52-.79.36c-.49-.15-.53-.61-.53-.61l1.8-7.18s.15-.56.6-.56c.42,0,.56.52.56.52l1.78,7.27s.09.51-.42.67c-.45.14-.67-.19-.67-.19l-1.23-5.72-.8,3.3,1.69-.02.31,1.38-2.12-.02Z"/>
    <path class="cls-2" d="M691.72,350.63l.07-6.52s.01-.71-.62-.73c-.67-.01-.64.76-.64.76,0,0,0,6.74,0,6.9-.01.58.15.77.59.8.07,0,2.97.06,2.97.06,0,0,.48-.13.49-.61,0-.5-.53-.62-.53-.62l-2.04-.02"/>
    <path class="cls-2" d="M686.31,347.28s.07-.73.11-.97c.06-.29.24-.81.38-1.12.09-.19.3-.53.64-.53.46,0,.71.34.79.53.07.17.08.67.08.67,0,0,.15.61.65.49.46-.11.45-.67.45-.67,0,0,.05-.69-.33-1.29-.34-.54-.67-.88-1.27-.99-.67-.13-1.47.29-1.77.55-.51.44-.71,1.55-.86,2.21-.14.64-.07,1.97,0,2.61.07.62.32,1.65.69,2.15.19.25.8.77,1.35.89.43.09,1.06-.17,1.54-.71.48-.55.55-1.59.55-1.59,0,0,.08-.69-.42-.8-.56-.13-.71.53-.71.53,0,0-.06.61-.16.78-.12.2-.38.48-.72.48-.31,0-.75-.9-.85-1.41-.12-.6-.12-1.45-.12-1.45"/>
    <path class="cls-1" d="M975.79,97.3h1.68s.53.05.74-.35c.21-.41-.13-.92-.13-.92l-2.61-4.55s-.29-.62-.74-.63c-.45,0-.8.76-.8.76l-2.58,4.45s-.3.33-.12.79c.17.43.61.44.61.44l1.93.02-.12,9.06s.14.89,1.04.91c.93.02,1.09-.91,1.09-.91v-8.74s0-.33,0-.33Z"/>
    <path class="cls-1" d="M973.58,163.14h-1.68s-.53-.05-.74.35c-.21.41.13.92.13.92l2.61,4.55s.29.62.75.63c.45,0,.8-.76.8-.76l2.58-4.45s.3-.33.12-.79c-.17-.43-.61-.44-.61-.44l-1.93-.02.12-9.06s-.14-.89-1.04-.91c-.93-.02-1.09.91-1.09.91v8.74s0,.33,0,.33Z"/>
    <path class="cls-1" d="M868.09,97.96v-1.68s.05-.53-.35-.74c-.41-.21-.92.13-.92.13l-4.55,2.61s-.62.29-.63.74c0,.45.76.8.76.8l4.45,2.58s.33.3.79.12c.43-.17.44-.61.44-.61l.02-1.93,9.06.12s.89-.14.91-1.04c.02-.93-.91-1.09-.91-1.09h-8.74s-.33,0-.33,0Z"/>
    <path class="cls-1" d="M924.1,100.12v1.68s-.05.53.35.74c.41.21.92-.13.92-.13l4.55-2.61s.62-.29.63-.75c0-.45-.76-.8-.76-.8l-4.45-2.58s-.33-.3-.79-.12c-.43.17-.44.61-.44.61l-.02,1.93-9.06-.12s-.89.14-.91,1.04c-.02.93.91,1.09.91,1.09h8.74s.33,0,.33,0Z"/>
    <path class="cls-1" d="M33.48,39.91s-1.07.85-1.11.88c-.72.54-1.66-.73-.99-1.23.01,0,1.88-1.46,1.97-1.53.67-.5,1.55-.1,1.55.57,0,.09.3,10.22.3,10.28,0,.83-1.65.98-1.65.02l-.06-8.98Z"/>
    <circle class="cls-1" cx="33.18" cy="35.25" r="1.15"/>
    <path class="cls-1" d="M32.31,28.87s.21,3.11.2,3.25c-.01.73,1.48.81,1.49-.03,0-.11.36-5.99.36-6.13.03-1.44-2.17-1.54-2.2,0"/>
    <path class="cls-1" d="M136.82,49.21s3.99-3.94,4.14-4.19c.71-1.19.59-3.12.1-4.01-.55-1-1.77-1.79-3.02-1.87-.88-.06-2.05.16-3,1.2-.82.9-1.13,2.36-.94,3.03.17.61,1.09.89,1.49.31.36-.53-.17-1.05.49-2.04.25-.37.75-.81,1.75-.84.73-.03,1.47.32,1.83.95.55.96.19,2.1.19,2.1,0,0-5.31,5.38-5.46,5.57-.47.61-.15,1.2.54,1.33.29.05,5.65-.13,5.94-.13.9,0,.95-1.42-.11-1.42l-3.93.03Z"/>
    <path class="cls-1" d="M134.69,29.28s-.32-2.12-.35-2.25c-.12-.61.4-1.04,1.47-1.04s1.5.46,1.43,1.09c-.02.15-.56,4.51-.59,4.66-.13.82-1.26.99-1.51.02"/>
    <path class="cls-1" d="M138.33,29.28s-.27-2.22-.3-2.35c-.12-.6.3-.94,1.37-.94s1.35.46,1.28,1.09c-.02.15-.61,4.51-.64,4.66-.14.77-1.12.84-1.31.02"/>
    <path class="cls-1" d="M192.85,45s1.21-1.21,1.13-2.82c-.07-1.4-1.18-2.36-1.88-2.84-.75-.51-2.79-.59-3.6-.15-.8.43-1.98,1-2.05,2.86,0,.22,0,.93.56,1.12.48.16.91-.23.91-.23,0,0,.02-1.44.91-2.08.79-.56,1.71-.25,2.26-.02.7.3,1.08,1.06,1.17,1.52.07.42-.36,1.32-.7,1.57-.36.26-1.72.17-1.72.17,0,0-.57.1-.57.8,0,.58.53.82.53.82,0,0,.96.03,1.59.24.76.25,1.06,1.01.89,1.83-.13.64-.83,1.03-1.38,1.29-.64.29-1.55.13-2.04-.26-.6-.48-.91-1.72-.91-1.72,0,0-.34-.45-.78-.4-.51.05-.65.56-.65.56,0,0,.2,1.96,1.23,2.92,1.11,1.04,3,.81,3.97.5.72-.23,1.97-.99,2.17-2.49.27-1.93-.9-3-.9-3"/>
    <path class="cls-1" d="M243.37,42.5l-2.67,4.1h4.4s.72,0,.72,0c0,0,.49.2.47.66-.02.55-.42.72-.42.72h-.93v2.04s-.17.51-.71.48c-.48-.02-.73-.45-.73-.45l-.02-1.97-3.99.07s-.4-.12-.62-.42c-.28-.38-.11-.93-.11-.93l4.77-7.83s.22-.42.74-.39c.43.03.57.46.57.46l.13,7.66s-1.51.06-1.51,0l-.08-4.22Z"/>
    <path class="cls-1" d="M243.23,34.09s.57,0,.76-.04c.23-.05.49-.2.53-.79.03-.51-.25-.77-.51-.85-.62-.19-2.03-.08-2.68-.22-.44-.09-1.16-.49-1.55-.94-.26-.3-.53-1.12-.49-1.52.07-.58.55-1.5.98-1.77.51-.31,1.65-.46,1.65-.46v-1.37s.1-.6.67-.56c.48.04.67.53.67.53l.02,1.45s.68,0,1.27.37c.52.32.93.98.93.98,0,0,.3.73-.05,1.12-.35.4-.85.24-.85.24,0,0-.33-.72-.97-1.02-.67-.32-.73-.36-1.43-.33-.59.02-1.11.19-1.32.6-.32.63.22,1.07.22,1.07,0,0,2.13.08,2.88.22.82.15,1.41.62,1.6,1.06.21.5.38,1.66.17,2.16-.17.4-.81,1.08-1.21,1.24-.29.12-1.25.1-1.25.1l.03,1.42s-.24.71-.73.71c-.54,0-.66-.59-.66-.59l.02-1.44s-1.01,0-1.79-.59c-.55-.42-1.02-1.33-1.02-1.33,0,0-.02-.46.3-.67.38-.25.91.08.91.08,0,0,.68.93,1.02,1.05.4.14.72.06.89.08h.95Z"/>
    <path class="cls-1" d="M187.51,31.1l-.93-.02s-.53-.24-.53-.73.42-.73.42-.73h.96s.03-1.62.03-1.62c0,0,.25-.58.84-.55.64.03.72.55.72.55l.06,1.55,2.14-.02v-1.32s.02-.61.7-.61c.56,0,.73.54.73.54v1.35s1.18,0,1.18,0c0,0,.35.2.35.72,0,.57-.34.77-.34.77l-1.1.03-.03,1.97,1.04-.03s.42.13.42.69-.4.61-.4.61l-1.08-.04v1.33s-.19.67-.75.67c-.58,0-.72-.63-.72-.63v-1.28s-2.25.06-2.25.06l.04,1.18s-.27.67-.73.67c-.5,0-.72-.58-.72-.58v-1.14s-.94-.05-.94-.05c0,0-.57-.15-.53-.69.05-.61.42-.65.42-.65l4.74-.04-.03-2.01h-2.25s.03,2.04.03,2.04h-1.49s-.03-2.01-.03-2.01Z"/>
    <path class="cls-1" d="M293,40.48l-.02,1.93s1.11-.44,2.37-.3c1.13.12,2.02.76,2.69,1.49.49.53.87,2.01.87,2.91,0,1.06-.61,2.19-1.17,2.79-.5.53-1.86,1.23-2.75,1.2-.86-.03-1.94-.53-2.61-.86-.32-.16-.88-.66-1-.99-.09-.25.08-.82.25-1.02.14-.17.63-.27.84-.23.39.08.95.74,1.3.93.34.18.88.45,1.54.34.79-.13,1.39-.61,1.72-1.26.38-.74.41-1.58.06-2.24-.36-.68-.88-1.14-1.79-1.34-.82-.19-1.65.26-2.13.68-.2.17-.3.57-.92.54-.74-.05-.77-.65-.77-.65l-.06-4.71s.1-.63.24-.77c.13-.13.69-.23.69-.23l5.63-.05s.69.14.69.87c0,.89-.63.94-.63.94l-4.56.05"/>
    <path class="cls-1" d="M372.21,43.52l.04-1.22s1.01-1.34,1.49-1.42c.67-.11,1.47.06,1.93.48.25.23.97.92.97.92,0,0,.19.48.87.15.61-.29.3-1.01.3-1.01,0,0-.74-1.18-1.08-1.49-.61-.55-1.5-1.29-3.07-1.16-2.24.18-3.31,2.97-3.34,3.15-.16.95.05,5.5.05,5.5,0,0,.1,1.21,1.17,2.16.4.35,1.31.77,2.31.96.82.15,1.99-.22,2.48-.47.71-.37,1.4-1.35,1.56-2.9.18-1.72-.51-2.56-1.13-3.1-.52-.45-1.15-.92-2.58-.99-1.17-.05-2.17.6-2.17.6l.03,2.23,1.17-.85,2.13-.12.87.96.02,1.17-.35,1.02-1.68.84-1.93-1.15s-.13-1.19-.11-1.5l.04-2.76Z"/>
    <path class="cls-1" d="M378.06,33.92l.25-2.43s.14-.69-.55-.87c-.62-.16-.82.43-.82.43l-.57,1.95-2.15-1.94s-.99-.82-1.29-1.13c-.23-.23-.7-.69-.84-.98-.18-.35-.47-1.1-.33-1.46.13-.33.59-.72.94-.81.32-.08,1.15-.2,1.47-.13.29.07.82.29,1.01.53.18.24.28.84.16,1.11-.15.35-.7.8-1.02,1.01-.34.23-1.35.92-1.35.92l1.12.99s1.64-.69,2.05-1.11c.36-.37.95-1.34.98-1.86.03-.55-.24-1.72-.61-2.13-.36-.4-1.39-.91-1.92-.99-.54-.09-1.66-.08-2.18.09-.56.18-1.6.26-2.03,1.16-.46.95-.4,1.97-.18,2.57.16.44,1.11,1.49,1.11,1.49l-.02.39s-.58-.06-1.17.44c-.3.26-.5.77-.68,1.44-.09.32-.11.76-.01,1.32.07.39.37,1.18.65,1.46.34.34,1.25.76,1.72.9.52.15,1.57.4,2.11.39.53-.01,1.36-.03,2.1-.41.82-.42,1.06-1.12,1.06-1.12l-1.05-1.06s-.9.48-1.23.58c-.37.11-1.16.26-1.54.2-.53-.09-1.59-.48-1.99-.84-.22-.2-.51-.8-.44-1.09.07-.3.63-.75.93-.82.29-.07.91-.01,1.19.1.34.14.96.57,1.25.8.21.16.61.5.81.67.5.41,2.03,1.63,2.03,1.63l1.79.9.08.02s.52,0,.77-.58c.25-.57-.32-1.11-.32-1.11l-1.25-.65Z"/>
    <path class="cls-1" d="M291.82,27.85s.47-.6.74-.68c.34-.1.56-.1.82.08.38.27.35.67.26,1.05-.08.33-.4.82-.58.93-.35.22-.41.18-.75.18-.11,0-.4-.07-.48-.16-.28-.31-.34-.4-.27-.87.06-.41.52-.8.52-.8l-.79-.87s-.75.78-.88,1.12c-.11.3-.09.85-.05,1.27.03.4.06.44.27.82.19.34.45.55.73.65.42.14.68.17,1.13.17.3,0,.64-.06,1-.32.21-.15.47-.43.72-.76.22-.28.35-.56.44-.91.09-.38.07-.74.02-1.07-.06-.37-.26-.91-.67-1.27-.38-.34-1.06-.39-1.39-.35-.2.02-.66.14-.95.3-.27.15-.79.71-.79.71"/>
    <path class="cls-1" d="M297.02,34.15s.47-.6.74-.68c.34-.1.56-.1.82.08.38.27.35.67.26,1.05-.08.33-.4.82-.58.93-.35.22-.41.18-.75.18-.11,0-.4-.07-.48-.16-.28-.31-.34-.4-.27-.87.06-.41.52-.8.52-.8l-.79-.87s-.75.78-.88,1.12c-.11.3-.09.85-.05,1.27.03.4.06.44.27.82.19.34.45.55.73.65.42.14.68.17,1.13.17.3,0,.64-.06,1-.32.21-.15.47-.43.72-.76.22-.28.35-.56.44-.91.09-.38.07-.74.02-1.07-.06-.37-.26-.91-.67-1.27-.38-.34-1.06-.39-1.39-.35-.2.02-.66.14-.95.3-.27.15-.79.71-.79.71"/>
    <path class="cls-1" d="M294.42,31.21l3.88-4.6s.45-.3.89.02c.37.27.25.96.25.96l-7.61,8.95s-.63.18-1.01-.14c-.42-.36-.23-1.03-.23-1.03l3.48-3.83"/>
    <path class="cls-1" d="M428.62,40.52l-3.32,8.62s-.67.76.31,1.25c.85.43,1.28-.63,1.28-.63l3.43-9.32s.5-.76.14-1.37c-.33-.55-.95-.5-.95-.5l-5.92.06s-.77.14-.81.97c-.04.82.84.99.84.99l4.29-.04"/>
    <path class="cls-1" d="M425.54,27.9s.49-1.71.71-1.85c.24-.16,2.76-.3,3.04-.05.65.57-3.12,5.54-3.12,5.54,0,0-.57.5-1.11.37-.58-.14-.47-.99-.47-.99l.95-3Z"/>
    <path class="cls-1" d="M481.85,44.38s1.45-1.02,1.03-3.16c-.52-2.62-2.88-2.62-3.48-2.62-.51,0-3.13-.28-3.59,3.03-.29,2.09,1.31,3.02,1.31,3.02l1.24-1.02-.8-.64s-.27-.25-.27-1.01c0-.52.27-1.48,2.11-1.48,1.94,0,1.98,1.11,2.01,1.36.01.11-.11,1.09-.55,1.35-.37.21-.99.48-1.64.43-.57-.05-1.37-.25-1.37-.25l-1.01.86s-1.24,1.23-1.14,3.21c.13,2.69,2.72,3.08,4.16,3.01,1.92-.08,3.33-1.47,3.48-3.26.12-1.45-1.52-3.14-1.52-3.14l-1.35.93s1.1.89,1.1,1.99c0,1.33-.85,1.71-2.15,1.71s-2.33-.42-2.33-1.59c0-1.9,1.76-1.88,2.12-1.91.72-.05,1.53.06,1.53.06"/>
    <path class="cls-1" d="M480.45,27.63l.93-.54s.58-.3.22-1.07c-.35-.73-1.11-.38-1.11-.38,0,0-1.59.89-2.41,1.92-.99,1.25-1.26,2.45-1.35,3.78-.09,1.27.74,3.3,1.35,4.18.7,1,2.34,1.84,2.34,1.84,0,0,1.07.42,1.5-.3.46-.77-.59-1.39-.59-1.39,0,0-1.19-.26-1.88-1.18-.78-1.05-1.16-1.82-1.11-3.09.04-1,.48-2.15.99-2.75,0,0,1.43-1.14,1.12-1.02Z"/>
    <path class="cls-1" d="M534.07,42.9s.1-.76.07-1.01c-.04-.38-.31-1.16-.56-1.44-.28-.32-1.28-.58-1.74-.61-.59-.04-1.51.3-2,1.07-.28.43-.32,1.28,0,1.92.27.55,1.14,1.26,2.34,1.06.88-.15,2.15-1.1,2.15-1.1l.2,1.51s-1.06,1.02-2.02,1.23c-.79.17-1.55.02-2.27-.35-.8-.42-1.2-.68-1.67-1.49-.53-.91-.58-1.99-.41-2.73.16-.69.83-1.85,1.42-2.25.71-.49,1.63-.79,2.53-.63.75.13,1.64.46,2.05.83.52.48,1.2,1.59,1.34,2.23.19.87.08,2.2.08,3.06s.08,2.49-.1,3.08c-.17.57-.79,1.42-1.26,1.77-.5.37-1.76.7-2.38.71-.6,0-1.83-.31-2.32-.66-.68-.48-1.36-1.87-1.19-1.42.05.14-.35-.75.1-1.16.37-.34.8-.21.99-.03.26.25.42.78.86,1.14.46.37,1.06.61,1.84.53.7-.07.93-.15,1.42-.63s.65-1.03.66-1.42l-.12-3.21Z"/>
    <path class="cls-1" d="M530.27,27.28l-.27-.17s-.6-.52-.28-1.1c.3-.52.77-.51,1.01-.38.9.47,2.43,1.4,3.23,3.35.59,1.44.5,3.87-.03,5.07-.71,1.6-2.57,2.95-2.57,2.95,0,0-1.01.25-1.36-.1-.39-.39,0-1.12.23-1.35.54-.51,1.55-.69,2.19-1.66.34-.52.61-1.6.65-2.51.05-1.01-.62-2.51-1.18-2.95,0,0-1.78-1.31-1.62-1.15Z"/>
    <path class="cls-1" d="M609.63,45.33c-.03-.77-.09-3.34.03-3.55.26-.43.8-1.13,1.26-1.34.48-.21,1.73-.26,2.21-.04.42.19.78.96.9,1.41.06.21.11,5.02.08,5.13-.17.62-.49,1.01-1.16,1.31-.52.23-1.49.23-1.49.23v1.71s1.51.01,1.97-.16c.42-.16,1.18-.72,1.45-1.08.31-.42.78-1.38.86-1.9.21-1.31.11-4.04-.11-5.35-.14-.86-.32-1.46-1.04-2.18-.34-.34-1.14-.93-1.59-1.06-.51-.15-1.56-.19-2.06-.01-.4.14-1.31.58-1.6.89-.37.4-1.03,1.29-1.26,2.16-.38,1.39.16,5.43.16,5.43,0,0,.18,1.35,1.21,2.31.84.79,2.2.95,2.2.95l.06-1.69s-1.23-.55-1.54-1c0,0-.49-.83-.54-2.17Z"/>
    <path class="cls-1" d="M611.84,42.9l2.96-4.78s.57-.6,1.14-.23c.54.35.28,1.04.28,1.04l-7.27,11.87s-.71.39-1.23-.06c-.53-.46-.25-1.2-.25-1.2l4.12-6.33"/>
    <path class="cls-1" d="M662.37,40.89c.02-1.06.89-1.9,1.95-1.88,1.06.02,1.9.89,1.88,1.95-.02,1.06-.89,1.9-1.95,1.88s-1.9-.89-1.88-1.95Z"/>
    <path class="cls-1" d="M662.36,46.54c.02-1.06.89-1.9,1.95-1.88,1.06.02,1.9.89,1.88,1.95-.02,1.06-.89,1.9-1.95,1.88s-1.9-.89-1.88-1.95Z"/>
    <path class="cls-1" d="M663.42,32l-2.03,1.92s-.89.3-1.19-.18c-.28-.45.06-1.13.06-1.13l2.97-2.12-3.09-2.16s-.27-.71,0-1.09c.31-.42,1.02-.22,1.02-.22l2.26,2.11.05-2.42s.36-.58.8-.57c.55,0,.66.64.66.64l-.04,2.4,2.63-2.18s.64-.24,1.01.07c.41.35.07,1.12.07,1.12l-2.99,2.14,2.9,2.21s.35.72.1,1.12c-.29.46-1.08.3-1.08.3l-2.57-2.03-.05,2.32s-.24.72-.71.71c-.51,0-.68-.74-.68-.74l.03-2.36"/>
    <path class="cls-1" d="M716.39,43.77h4.99s.92.13.92.72-.85.88-.85.88l-9.87.17s-.88-.03-.88-.85c0-.93.93-.85.93-.85l4.17-.07"/>
    <path class="cls-1" d="M718.05,32.24h2.29s.86-.02.92.82c.06.87-1,.93-1,.93l-6.87.12s-.88-.03-.88-.85c0-.93.83-1,.83-1l4.02-.02c.02.05.68,0,.68,0Z"/>
    <path class="cls-1" d="M717.89,27.44h2.29s.86-.02.92.82c.06.87-1,.93-1,.93l-6.87.12s-.88-.03-.88-.85c0-.93.83-1,.83-1l4.02-.02c.02.05.68,0,.68,0Z"/>
    <path class="cls-1" d="M872.82,344.76s1.16-.07,1.8.04c.56.09,1.11.32,1.33.6.17.2.26.78.17,1.01-.13.34-.55.87-1.06.98-.12.03-2.34-.02-2.34-.02v.88s1.7,0,1.7,0l1.57,3.45s.33.27.66.13c.37-.15.34-.47.34-.47l-1.62-3.13s.55-.14.83-.36c.35-.28.63-.71.76-.96.16-.3.12-.96.07-1.24-.06-.3-.35-.84-.58-1.07-.26-.25-.9-.55-1.27-.63-.67-.15-2.61-.09-2.75-.1-.37-.01-.5.21-.51.4,0,.13-.1,7.07-.1,7.07,0,0,.04.52.46.52.44,0,.62-.51.62-.51l-.08-5.72"/>
    <path class="cls-1" d="M867.94,344.76l.02,6.66s-.09.44-.49.44c-.46,0-.52-.45-.52-.45l.09-6.67-1.78.03s-.44-.11-.42-.5c.01-.35.36-.39.36-.39l4.49-.02s.39.11.39.48c0,.39-.39.42-.39.42h-1.57"/>
    <path class="cls-1" d="M879.4,350.9l-.03-6.49s.04-.55-.52-.55c-.51,0-.53.56-.53.56,0,0,.13,6.57.13,6.7-.02.39.09.66.51.73.1.02,4.15-.08,4.15-.08,0,0,.49,0,.49-.41,0-.44-.55-.45-.55-.45l-3.42-.02"/>
    <path class="cls-1" d="M859.04,347.65s0-.21,0-.27c.04-.48.19-1.41.51-1.82.26-.35.96-.91,1.76-.91.73,0,1.28.19,1.6.49.36.33.53.76.59,1.03.03.16-.06.5.47.51.53.01.52-.3.5-.46-.06-.42-.38-1.17-.83-1.61-.56-.54-1.29-.7-2.07-.73-1.1-.05-1.84.34-2.44.76-.62.44-.77,1.06-.98,1.71-.2.61-.21,1.89-.11,2.51.1.62.48,1.61,1.23,2.33.54.52,1.38.69,1.91.69.87,0,1.56-.03,2.28-.53.58-.4.81-1.04.99-1.49.06-.16.12-.47-.37-.58-.49-.12-.6.2-.66.35-.09.23-.24.62-.58.92-.46.39-1.18.52-1.98.38-.83-.15-1.09-.42-1.41-1.11-.47-1.02-.43-1.87-.43-1.87"/>
  </g>
</svg>